solid Triwheel Rival upscale
facet normal 1.43369469220037e-013 -0.996529992044879 -0.0832344577385678
  outer loop
    vertex 2074.46726694872 -641.359909297254 235.821225282341
    vertex 2054.46726694872 -641.183928700986 233.714286077509
    vertex 2074.46726694872 -641.183928700983 233.714286077509
  endloop
endfacet
facet normal 1.43369469220037e-013 -0.996529992044879 -0.0832344577385678
  outer loop
    vertex 2054.46726694872 -641.183928700986 233.714286077509
    vertex 2074.46726694872 -641.359909297254 235.821225282341
    vertex 2054.46726694872 -641.359909297257 235.821225282341
  endloop
endfacet
facet normal -1.28679902995374e-013 0.894426012776186 0.447215951939657
  outer loop
    vertex 2054.46726694873 -671.236811613415 212.413946297298
    vertex 2074.46726694872 -668.807621663282 207.555598396362
    vertex 2054.46726694873 -668.807621663285 207.555598396362
  endloop
endfacet
facet normal -1.28679902995374e-013 0.894426012776186 0.447215951939657
  outer loop
    vertex 2074.46726694872 -668.807621663282 207.555598396362
    vertex 2054.46726694873 -671.236811613415 212.413946297298
    vertex 2074.46726694872 -671.236811613412 212.413946297298
  endloop
endfacet
facet normal -1.20783833690872e-013 0.839542152746516 0.543294555247654
  outer loop
    vertex 2054.46726694873 -668.807621663285 207.555598396362
    vertex 2074.46726694872 -668.460469639519 207.019151353879
    vertex 2054.46726694873 -668.460469639522 207.019151353879
  endloop
endfacet
facet normal -1.20783833690872e-013 0.839542152746516 0.543294555247654
  outer loop
    vertex 2074.46726694872 -668.460469639519 207.019151353879
    vertex 2054.46726694873 -668.807621663285 207.555598396362
    vertex 2074.46726694872 -668.807621663282 207.555598396362
  endloop
endfacet
facet normal -1.00667350839007e-013 0.699716856570148 0.714420268911507
  outer loop
    vertex 2054.46726694873 -667.984094117768 206.552580069253
    vertex 2074.46726694872 -668.460469639519 207.019151353879
    vertex 2074.46726694873 -667.984094117765 206.552580069253
  endloop
endfacet
facet normal -1.00667350839007e-013 0.699716856570148 0.714420268911507
  outer loop
    vertex 2074.46726694872 -668.460469639519 207.019151353879
    vertex 2054.46726694873 -667.984094117768 206.552580069253
    vertex 2054.46726694873 -668.460469639522 207.019151353879
  endloop
endfacet
facet normal -7.56479628556173e-014 0.525812533399435 0.850600481848011
  outer loop
    vertex 2074.46726694872 -667.416860889576 206.201935616179
    vertex 2054.46726694873 -667.984094117768 206.552580069253
    vertex 2074.46726694873 -667.984094117765 206.552580069253
  endloop
endfacet
facet normal -7.56479628556173e-014 0.525812533399435 0.850600481848011
  outer loop
    vertex 2054.46726694873 -667.984094117768 206.552580069253
    vertex 2074.46726694872 -667.416860889576 206.201935616179
    vertex 2054.46726694872 -667.41686088958 206.201935616179
  endloop
endfacet
facet normal -4.69006520490867e-014 0.325996229655038 0.945371069078539
  outer loop
    vertex 2054.46726694872 -666.786446195885 205.984547100721
    vertex 2074.46726694872 -667.416860889576 206.201935616179
    vertex 2074.46726694872 -666.786446195882 205.984547100721
  endloop
endfacet
facet normal -4.69006520490867e-014 0.325996229655038 0.945371069078539
  outer loop
    vertex 2074.46726694872 -667.416860889576 206.201935616179
    vertex 2054.46726694872 -666.786446195885 205.984547100721
    vertex 2054.46726694872 -667.41686088958 206.201935616179
  endloop
endfacet
facet normal -1.58962493747832e-014 0.11049137134409 0.993877083375254
  outer loop
    vertex 2074.46726694872 -666.151387369691 205.913946297298
    vertex 2054.46726694872 -666.786446195885 205.984547100721
    vertex 2074.46726694872 -666.786446195882 205.984547100721
  endloop
endfacet
facet normal -1.58962493747832e-014 0.11049137134409 0.993877083375254
  outer loop
    vertex 2054.46726694872 -666.786446195885 205.984547100721
    vertex 2074.46726694872 -666.151387369691 205.913946297298
    vertex 2054.46726694872 -666.151387369695 205.913946297298
  endloop
endfacet
facet normal 1.58962493747927e-014 -0.110491371344156 0.993877083375247
  outer loop
    vertex 2054.46726694872 -648.280591206087 205.984547100721
    vertex 2074.46726694872 -648.915650032274 205.913946297298
    vertex 2074.46726694872 -648.280591206084 205.984547100721
  endloop
endfacet
facet normal 1.58962493747927e-014 -0.110491371344156 0.993877083375247
  outer loop
    vertex 2074.46726694872 -648.915650032274 205.913946297298
    vertex 2054.46726694872 -648.280591206087 205.984547100721
    vertex 2054.46726694872 -648.915650032277 205.913946297298
  endloop
endfacet
facet normal 4.69006520490823e-014 -0.325996229655008 0.945371069078549
  outer loop
    vertex 2054.46726694872 -647.650176512392 206.201935616179
    vertex 2074.46726694872 -648.280591206084 205.984547100721
    vertex 2074.46726694872 -647.650176512389 206.201935616179
  endloop
endfacet
facet normal 4.69006520490823e-014 -0.325996229655008 0.945371069078549
  outer loop
    vertex 2074.46726694872 -648.280591206084 205.984547100721
    vertex 2054.46726694872 -647.650176512392 206.201935616179
    vertex 2054.46726694872 -648.280591206087 205.984547100721
  endloop
endfacet
facet normal 7.56479628555999e-014 -0.525812533399313 0.850600481848086
  outer loop
    vertex 2074.46726694872 -647.082943284201 206.552580069253
    vertex 2054.46726694872 -647.650176512392 206.201935616179
    vertex 2074.46726694872 -647.650176512389 206.201935616179
  endloop
endfacet
facet normal 7.56479628555999e-014 -0.525812533399313 0.850600481848086
  outer loop
    vertex 2054.46726694872 -647.650176512392 206.201935616179
    vertex 2074.46726694872 -647.082943284201 206.552580069253
    vertex 2054.46726694872 -647.082943284204 206.552580069253
  endloop
endfacet
facet normal 1.00667350839026e-013 -0.699716856570283 0.714420268911375
  outer loop
    vertex 2054.46726694872 -646.606567762449 207.019151353879
    vertex 2074.46726694872 -647.082943284201 206.552580069253
    vertex 2074.46726694872 -646.606567762447 207.019151353879
  endloop
endfacet
facet normal 1.00667350839026e-013 -0.699716856570283 0.714420268911375
  outer loop
    vertex 2074.46726694872 -647.082943284201 206.552580069253
    vertex 2054.46726694872 -646.606567762449 207.019151353879
    vertex 2054.46726694872 -647.082943284204 206.552580069253
  endloop
endfacet
facet normal 1.20783833690872e-013 -0.839542152746516 0.543294555247654
  outer loop
    vertex 2074.46726694872 -646.259415738684 207.555598396362
    vertex 2054.46726694872 -646.606567762449 207.019151353879
    vertex 2074.46726694872 -646.606567762447 207.019151353879
  endloop
endfacet
facet normal 1.20783833690872e-013 -0.839542152746516 0.543294555247654
  outer loop
    vertex 2054.46726694872 -646.606567762449 207.019151353879
    vertex 2074.46726694872 -646.259415738684 207.555598396362
    vertex 2054.46726694872 -646.259415738687 207.555598396362
  endloop
endfacet
facet normal 1.28679902995375e-013 -0.894426012776193 0.447215951939643
  outer loop
    vertex 2074.46726694872 -643.830225788554 212.413946297298
    vertex 2054.46726694872 -646.259415738687 207.555598396362
    vertex 2074.46726694872 -646.259415738684 207.555598396362
  endloop
endfacet
facet normal 1.28679902995375e-013 -0.894426012776193 0.447215951939643
  outer loop
    vertex 2054.46726694872 -646.259415738687 207.555598396362
    vertex 2074.46726694872 -643.830225788554 212.413946297298
    vertex 2054.46726694872 -643.830225788557 212.413946297298
  endloop
endfacet
facet normal 0.0 0.0 1.0
  outer loop
    vertex 2054.46726694872 -639.683928700986 212.413946297298
    vertex 2074.46726694872 -643.830225788554 212.413946297298
    vertex 2074.46726694872 -639.683928700983 212.413946297298
  endloop
endfacet
facet normal 0.0 0.0 1.0
  outer loop
    vertex 2074.46726694872 -643.830225788554 212.413946297298
    vertex 2054.46726694872 -639.683928700986 212.413946297298
    vertex 2054.46726694872 -643.830225788557 212.413946297298
  endloop
endfacet
facet normal 1.43868694735261e-013 -1.0 0.0
  outer loop
    vertex 2074.46726694872 -639.683928700983 222.413946297298
    vertex 2054.46726694872 -639.683928700986 212.413946297298
    vertex 2074.46726694872 -639.683928700983 212.413946297298
  endloop
endfacet
facet normal 1.43868694735261e-013 -1.0 0.0
  outer loop
    vertex 2054.46726694872 -639.683928700986 212.413946297298
    vertex 2074.46726694872 -639.683928700983 222.413946297298
    vertex 2054.46726694872 -639.683928700986 222.413946297298
  endloop
endfacet
facet normal 0.0 0.0 -1.0
  outer loop
    vertex 2054.46726694872 -641.183928700986 222.413946297298
    vertex 2074.46726694872 -639.683928700983 222.413946297298
    vertex 2074.46726694872 -641.183928700983 222.413946297298
  endloop
endfacet
facet normal 0.0 0.0 -1.0
  outer loop
    vertex 2074.46726694872 -639.683928700983 222.413946297298
    vertex 2054.46726694872 -641.183928700986 222.413946297298
    vertex 2054.46726694872 -639.683928700986 222.413946297298
  endloop
endfacet
facet normal 1.43868694735261e-013 -1.0 0.0
  outer loop
    vertex 2074.46726694872 -641.183928700983 233.714286077509
    vertex 2054.46726694872 -641.183928700986 222.413946297298
    vertex 2074.46726694872 -641.183928700983 222.413946297298
  endloop
endfacet
facet normal 1.43868694735261e-013 -1.0 0.0
  outer loop
    vertex 2054.46726694872 -641.183928700986 222.413946297298
    vertex 2074.46726694872 -641.183928700983 233.714286077509
    vertex 2054.46726694872 -641.183928700986 233.714286077509
  endloop
endfacet
facet normal 1.39397205266637e-013 -0.968919649428583 -0.247375651492203
  outer loop
    vertex 2074.46726694872 -641.888109984668 237.890078954034
    vertex 2054.46726694872 -641.359909297257 235.821225282341
    vertex 2074.46726694872 -641.359909297254 235.821225282341
  endloop
endfacet
facet normal 1.39397205266637e-013 -0.968919649428583 -0.247375651492203
  outer loop
    vertex 2054.46726694872 -641.359909297257 235.821225282341
    vertex 2074.46726694872 -641.888109984668 237.890078954034
    vertex 2054.46726694872 -641.888109984671 237.890078954034
  endloop
endfacet
facet normal 1.31561558994093e-013 -0.914455776749665 -0.404685844043458
  outer loop
    vertex 2074.46726694872 -642.752199556584 239.842634775539
    vertex 2054.46726694872 -641.888109984671 237.890078954034
    vertex 2074.46726694872 -641.888109984668 237.890078954034
  endloop
endfacet
facet normal 1.31561558994093e-013 -0.914455776749665 -0.404685844043458
  outer loop
    vertex 2054.46726694872 -641.888109984671 237.890078954034
    vertex 2074.46726694872 -642.752199556584 239.842634775539
    vertex 2054.46726694872 -642.752199556587 239.842634775539
  endloop
endfacet
facet normal 1.2008159310299e-013 -0.83466103118512 -0.55076398123061
  outer loop
    vertex 2074.46726694872 -643.928178622049 241.624784540017
    vertex 2054.46726694872 -642.752199556587 239.842634775539
    vertex 2074.46726694872 -642.752199556584 239.842634775539
  endloop
endfacet
facet normal 1.2008159310299e-013 -0.83466103118512 -0.55076398123061
  outer loop
    vertex 2054.46726694872 -642.752199556587 239.842634775539
    vertex 2074.46726694872 -643.928178622049 241.624784540017
    vertex 2054.46726694872 -643.928178622052 241.624784540017
  endloop
endfacet
facet normal 1.05273365185241e-013 -0.731732260301375 -0.681592179557718
  outer loop
    vertex 2074.46726694872 -645.383499224637 243.187163138149
    vertex 2054.46726694872 -643.928178622052 241.624784540017
    vertex 2074.46726694872 -643.928178622049 241.624784540017
  endloop
endfacet
facet normal 1.05273365185241e-013 -0.731732260301375 -0.681592179557718
  outer loop
    vertex 2054.46726694872 -643.928178622052 241.624784540017
    vertex 2074.46726694872 -645.383499224637 243.187163138149
    vertex 2054.46726694872 -645.38349922464 243.187163138149
  endloop
endfacet
facet normal 8.7546175754855e-014 -0.608514422932332 -0.793542813642295
  outer loop
    vertex 2074.46726694872 -647.080221462925 244.488264900975
    vertex 2054.46726694872 -645.38349922464 243.187163138149
    vertex 2074.46726694872 -645.383499224637 243.187163138149
  endloop
endfacet
facet normal 8.7546175754855e-014 -0.608514422932332 -0.793542813642295
  outer loop
    vertex 2054.46726694872 -645.38349922464 243.187163138149
    vertex 2074.46726694872 -647.080221462925 244.488264900975
    vertex 2054.46726694872 -647.080221462928 244.488264900975
  endloop
endfacet
facet normal 6.59013426710062e-014 -0.458065896769789 -0.888918238206692
  outer loop
    vertex 2054.46726694872 -647.587136240318 244.749481694726
    vertex 2074.46726694872 -647.080221462925 244.488264900975
    vertex 2074.46726694872 -647.587136240315 244.749481694726
  endloop
endfacet
facet normal 6.59013426710062e-014 -0.458065896769789 -0.888918238206692
  outer loop
    vertex 2074.46726694872 -647.080221462925 244.488264900975
    vertex 2054.46726694872 -647.587136240318 244.749481694726
    vertex 2054.46726694872 -647.080221462928 244.488264900975
  endloop
endfacet
facet normal 4.0511989565313e-014 -0.281590026515921 -0.959534812795639
  outer loop
    vertex 2074.46726694872 -648.137165511716 244.910896116645
    vertex 2054.46726694872 -647.587136240318 244.749481694726
    vertex 2074.46726694872 -647.587136240315 244.749481694726
  endloop
endfacet
facet normal 4.0511989565313e-014 -0.281590026515921 -0.959534812795639
  outer loop
    vertex 2054.46726694872 -647.587136240318 244.749481694726
    vertex 2074.46726694872 -648.137165511716 244.910896116645
    vertex 2054.46726694872 -648.137165511719 244.910896116645
  endloop
endfacet
facet normal 1.36581062760949e-014 -0.0949345255493407 -0.995483518627366
  outer loop
    vertex 2074.46726694872 -648.684012352036 244.963046297298
    vertex 2054.46726694872 -648.137165511719 244.910896116645
    vertex 2074.46726694872 -648.137165511716 244.910896116645
  endloop
endfacet
facet normal 1.36581062760949e-014 -0.0949345255493407 -0.995483518627366
  outer loop
    vertex 2054.46726694872 -648.137165511719 244.910896116645
    vertex 2074.46726694872 -648.684012352036 244.963046297298
    vertex 2054.46726694872 -648.684012352039 244.963046297298
  endloop
endfacet
facet normal 0.0 0.0 -1.0
  outer loop
    vertex 2054.46726694872 -666.383025049932 244.963046297298
    vertex 2074.46726694872 -648.684012352036 244.963046297298
    vertex 2074.46726694872 -666.383025049929 244.963046297298
  endloop
endfacet
facet normal 0.0 0.0 -1.0
  outer loop
    vertex 2074.46726694872 -648.684012352036 244.963046297298
    vertex 2054.46726694872 -666.383025049932 244.963046297298
    vertex 2054.46726694872 -648.684012352039 244.963046297298
  endloop
endfacet
facet normal -1.36581062760904e-014 0.0949345255493097 -0.995483518627369
  outer loop
    vertex 2054.46726694873 -666.929871890253 244.910896116645
    vertex 2074.46726694872 -666.383025049929 244.963046297298
    vertex 2074.46726694872 -666.92987189025 244.910896116645
  endloop
endfacet
facet normal -1.36581062760904e-014 0.0949345255493097 -0.995483518627369
  outer loop
    vertex 2074.46726694872 -666.383025049929 244.963046297298
    vertex 2054.46726694873 -666.929871890253 244.910896116645
    vertex 2054.46726694872 -666.383025049932 244.963046297298
  endloop
endfacet
facet normal -4.05119895653252e-014 0.281590026516006 -0.959534812795615
  outer loop
    vertex 2074.46726694872 -667.47990116165 244.749481694726
    vertex 2054.46726694873 -666.929871890253 244.910896116645
    vertex 2074.46726694872 -666.92987189025 244.910896116645
  endloop
endfacet
facet normal -4.05119895653252e-014 0.281590026516006 -0.959534812795615
  outer loop
    vertex 2054.46726694873 -666.929871890253 244.910896116645
    vertex 2074.46726694872 -667.47990116165 244.749481694726
    vertex 2054.46726694872 -667.479901161653 244.749481694726
  endloop
endfacet
facet normal -6.59013426710062e-014 0.458065896769789 -0.888918238206692
  outer loop
    vertex 2054.46726694873 -667.986815939044 244.488264900975
    vertex 2074.46726694872 -667.47990116165 244.749481694726
    vertex 2074.46726694873 -667.986815939041 244.488264900975
  endloop
endfacet
facet normal -6.59013426710062e-014 0.458065896769789 -0.888918238206692
  outer loop
    vertex 2074.46726694872 -667.47990116165 244.749481694726
    vertex 2054.46726694873 -667.986815939044 244.488264900975
    vertex 2054.46726694872 -667.479901161653 244.749481694726
  endloop
endfacet
facet normal -8.75461757548511e-014 0.608514422932305 -0.793542813642317
  outer loop
    vertex 2074.46726694872 -669.683538177329 243.187163138148
    vertex 2054.46726694873 -667.986815939044 244.488264900975
    vertex 2074.46726694873 -667.986815939041 244.488264900975
  endloop
endfacet
facet normal -8.75461757548511e-014 0.608514422932305 -0.793542813642317
  outer loop
    vertex 2054.46726694873 -667.986815939044 244.488264900975
    vertex 2074.46726694872 -669.683538177329 243.187163138148
    vertex 2054.46726694873 -669.683538177332 243.187163138148
  endloop
endfacet
facet normal -1.05273365185241e-013 0.731732260301377 -0.681592179557717
  outer loop
    vertex 2054.46726694873 -669.683538177332 243.187163138148
    vertex 2074.46726694872 -671.138858779917 241.624784540017
    vertex 2054.46726694873 -671.138858779919 241.624784540017
  endloop
endfacet
facet normal -1.05273365185241e-013 0.731732260301377 -0.681592179557717
  outer loop
    vertex 2074.46726694872 -671.138858779917 241.624784540017
    vertex 2054.46726694873 -669.683538177332 243.187163138148
    vertex 2074.46726694872 -669.683538177329 243.187163138148
  endloop
endfacet
facet normal -1.20081593102991e-013 0.834661031185127 -0.5507639812306
  outer loop
    vertex 2054.46726694873 -671.138858779919 241.624784540017
    vertex 2074.46726694872 -672.314837845381 239.842634775539
    vertex 2054.46726694873 -672.314837845384 239.842634775539
  endloop
endfacet
facet normal -1.20081593102991e-013 0.834661031185127 -0.5507639812306
  outer loop
    vertex 2074.46726694872 -672.314837845381 239.842634775539
    vertex 2054.46726694873 -671.138858779919 241.624784540017
    vertex 2074.46726694872 -671.138858779917 241.624784540017
  endloop
endfacet
facet normal -1.3156155899409e-013 0.914455776749641 -0.404685844043513
  outer loop
    vertex 2054.46726694873 -672.314837845384 239.842634775539
    vertex 2074.46726694873 -673.178927417298 237.890078954034
    vertex 2054.46726694873 -673.178927417301 237.890078954034
  endloop
endfacet
facet normal -1.3156155899409e-013 0.914455776749641 -0.404685844043513
  outer loop
    vertex 2074.46726694873 -673.178927417298 237.890078954034
    vertex 2054.46726694873 -672.314837845384 239.842634775539
    vertex 2074.46726694872 -672.314837845381 239.842634775539
  endloop
endfacet
facet normal -1.39397205266636e-013 0.968919649428575 -0.247375651492233
  outer loop
    vertex 2054.46726694873 -673.178927417301 237.890078954034
    vertex 2074.46726694872 -673.707128104712 235.821225282341
    vertex 2054.46726694873 -673.707128104715 235.821225282341
  endloop
endfacet
facet normal -1.39397205266636e-013 0.968919649428575 -0.247375651492233
  outer loop
    vertex 2074.46726694872 -673.707128104712 235.821225282341
    vertex 2054.46726694873 -673.178927417301 237.890078954034
    vertex 2074.46726694873 -673.178927417298 237.890078954034
  endloop
endfacet
facet normal -1.43369469220037e-013 0.996529992044882 -0.0832344577385271
  outer loop
    vertex 2054.46726694873 -673.707128104715 235.821225282341
    vertex 2074.46726694873 -673.883108700983 233.714286077509
    vertex 2054.46726694873 -673.883108700986 233.714286077509
  endloop
endfacet
facet normal -1.43369469220037e-013 0.996529992044882 -0.0832344577385271
  outer loop
    vertex 2074.46726694873 -673.883108700983 233.714286077509
    vertex 2054.46726694873 -673.707128104715 235.821225282341
    vertex 2074.46726694872 -673.707128104712 235.821225282341
  endloop
endfacet
facet normal -1.43868694735261e-013 1.0 0.0
  outer loop
    vertex 2054.46726694873 -673.883108700986 233.714286077509
    vertex 2074.46726694873 -673.883108700983 222.413946297298
    vertex 2054.46726694873 -673.883108700986 222.413946297298
  endloop
endfacet
facet normal -1.43868694735261e-013 1.0 0.0
  outer loop
    vertex 2074.46726694873 -673.883108700983 222.413946297298
    vertex 2054.46726694873 -673.883108700986 233.714286077509
    vertex 2074.46726694873 -673.883108700983 233.714286077509
  endloop
endfacet
facet normal 0.0 0.0 -1.0
  outer loop
    vertex 2054.46726694873 -675.383108700986 222.413946297298
    vertex 2074.46726694873 -673.883108700983 222.413946297298
    vertex 2074.46726694873 -675.383108700983 222.413946297298
  endloop
endfacet
facet normal 0.0 0.0 -1.0
  outer loop
    vertex 2074.46726694873 -673.883108700983 222.413946297298
    vertex 2054.46726694873 -675.383108700986 222.413946297298
    vertex 2054.46726694873 -673.883108700986 222.413946297298
  endloop
endfacet
facet normal -1.43868694735261e-013 1.0 0.0
  outer loop
    vertex 2054.46726694873 -675.383108700986 222.413946297298
    vertex 2074.46726694873 -675.383108700983 212.413946297298
    vertex 2054.46726694873 -675.383108700986 212.413946297298
  endloop
endfacet
facet normal -1.43868694735261e-013 1.0 0.0
  outer loop
    vertex 2074.46726694873 -675.383108700983 212.413946297298
    vertex 2054.46726694873 -675.383108700986 222.413946297298
    vertex 2074.46726694873 -675.383108700983 222.413946297298
  endloop
endfacet
facet normal 0.0 0.0 1.0
  outer loop
    vertex 2074.46726694872 -671.236811613412 212.413946297298
    vertex 2054.46726694873 -675.383108700986 212.413946297298
    vertex 2074.46726694873 -675.383108700983 212.413946297298
  endloop
endfacet
facet normal 0.0 0.0 1.0
  outer loop
    vertex 2054.46726694873 -675.383108700986 212.413946297298
    vertex 2074.46726694872 -671.236811613412 212.413946297298
    vertex 2054.46726694873 -671.236811613415 212.413946297298
  endloop
endfacet
facet normal 1.0 1.42486406236185e-013 1.87002878613652e-015
  outer loop
    vertex 2074.46726694872 -638.391172874881 236.320599192599
    vertex 2074.46726694872 -638.183928700983 225.413946297298
    vertex 2074.46726694872 -638.183928700983 233.839354758777
  endloop
endfacet
facet normal 1.0 1.42486406236185e-013 1.87002878613652e-015
  outer loop
    vertex 2074.46726694872 -641.562198148448 243.486213996332
    vertex 2074.46726694872 -641.183928700983 233.714286077509
    vertex 2074.46726694872 -640.110224690193 241.285805644987
  endloop
endfacet
facet normal 1.0 1.42486406236185e-013 1.87002878613652e-015
  outer loop
    vertex 2074.46726694872 -641.183928700983 233.714286077509
    vertex 2074.46726694872 -641.562198148448 243.486213996332
    vertex 2074.46726694872 -641.359909297254 235.821225282341
  endloop
endfacet
facet normal 1.0 1.42486406236185e-013 1.87002878613652e-015
  outer loop
    vertex 2074.46726694872 -641.359909297254 235.821225282341
    vertex 2074.46726694872 -641.562198148448 243.486213996332
    vertex 2074.46726694872 -641.888109984668 237.890078954034
  endloop
endfacet
facet normal 1.0 1.42486406236185e-013 1.87002878613652e-015
  outer loop
    vertex 2074.46726694872 -641.888109984668 237.890078954034
    vertex 2074.46726694872 -641.562198148448 243.486213996332
    vertex 2074.46726694872 -643.35910236656 245.41530418325
  endloop
endfacet
facet normal 1.0 1.42486406236185e-013 1.87002878613652e-015
  outer loop
    vertex 2074.46726694872 -641.888109984668 237.890078954034
    vertex 2074.46726694872 -643.35910236656 245.41530418325
    vertex 2074.46726694872 -642.752199556584 239.842634775539
  endloop
endfacet
facet normal 1.0 1.42486406236185e-013 1.87002878613652e-015
  outer loop
    vertex 2074.46726694872 -642.752199556584 239.842634775539
    vertex 2074.46726694872 -643.35910236656 245.41530418325
    vertex 2074.46726694872 -643.928178622049 241.624784540017
  endloop
endfacet
facet normal 1.0 1.42486406236185e-013 1.87002878613652e-015
  outer loop
    vertex 2074.46726694872 -643.928178622049 241.624784540017
    vertex 2074.46726694872 -643.35910236656 245.41530418325
    vertex 2074.46726694872 -645.467558034576 247.032136523035
  endloop
endfacet
facet normal 1.0 1.42486406236185e-013 1.87002878613652e-015
  outer loop
    vertex 2074.46726694872 -643.928178622049 241.624784540017
    vertex 2074.46726694872 -645.467558034576 247.032136523035
    vertex 2074.46726694872 -645.383499224637 243.187163138149
  endloop
endfacet
facet normal 1.0 1.42486406236185e-013 1.87002878613652e-015
  outer loop
    vertex 2074.46726694872 -645.383499224637 243.187163138149
    vertex 2074.46726694872 -645.467558034576 247.032136523035
    vertex 2074.46726694872 -647.080221462925 244.488264900975
  endloop
endfacet
facet normal 1.0 1.42486406236185e-013 1.87002878613652e-015
  outer loop
    vertex 2074.46726694872 -647.080221462925 244.488264900975
    vertex 2074.46726694872 -645.467558034576 247.032136523035
    vertex 2074.46726694872 -646.467539476311 247.547434079293
  endloop
endfacet
facet normal 1.0 1.42486406236185e-013 1.87002878613652e-015
  outer loop
    vertex 2074.46726694872 -647.080221462925 244.488264900975
    vertex 2074.46726694872 -646.467539476311 247.547434079293
    vertex 2074.46726694872 -647.567230376115 247.870155032724
  endloop
endfacet
facet normal 1.0 1.42486406236185e-013 1.87002878613652e-015
  outer loop
    vertex 2074.46726694872 -647.080221462925 244.488264900975
    vertex 2074.46726694872 -647.567230376115 247.870155032724
    vertex 2074.46726694872 -647.587136240315 244.749481694726
  endloop
endfacet
facet normal 1.0 1.42486406236185e-013 1.87002878613652e-015
  outer loop
    vertex 2074.46726694872 -647.587136240315 244.749481694726
    vertex 2074.46726694872 -647.567230376115 247.870155032724
    vertex 2074.46726694872 -648.541288258357 247.963046297298
  endloop
endfacet
facet normal 1.0 1.42486406236185e-013 1.87002878613652e-015
  outer loop
    vertex 2074.46726694872 -647.587136240315 244.749481694726
    vertex 2074.46726694872 -648.541288258357 247.963046297298
    vertex 2074.46726694872 -648.137165511716 244.910896116645
  endloop
endfacet
facet normal 1.0 1.42486406236185e-013 1.87002878613652e-015
  outer loop
    vertex 2074.46726694872 -648.137165511716 244.910896116645
    vertex 2074.46726694872 -648.541288258357 247.963046297298
    vertex 2074.46726694872 -648.684012352036 244.963046297298
  endloop
endfacet
facet normal 1.0 1.42486406236185e-013 1.87002878613652e-015
  outer loop
    vertex 2074.46726694872 -648.684012352036 244.963046297298
    vertex 2074.46726694872 -648.541288258357 247.963046297298
    vertex 2074.46726694872 -666.525749143608 247.963046297298
  endloop
endfacet
facet normal 1.0 1.42486406236185e-013 1.87002878613652e-015
  outer loop
    vertex 2074.46726694872 -648.684012352036 244.963046297298
    vertex 2074.46726694872 -666.525749143608 247.963046297298
    vertex 2074.46726694872 -666.383025049929 244.963046297298
  endloop
endfacet
facet normal 1.0 1.42486406236185e-013 1.87002878613652e-015
  outer loop
    vertex 2074.46726694872 -666.383025049929 244.963046297298
    vertex 2074.46726694872 -666.525749143608 247.963046297298
    vertex 2074.46726694872 -666.92987189025 244.910896116645
  endloop
endfacet
facet normal 1.0 1.42486406236185e-013 1.87002878613652e-015
  outer loop
    vertex 2074.46726694872 -666.92987189025 244.910896116645
    vertex 2074.46726694872 -666.525749143608 247.963046297298
    vertex 2074.46726694872 -667.499807025851 247.870155032724
  endloop
endfacet
facet normal 1.0 1.42486406236185e-013 1.87002878613652e-015
  outer loop
    vertex 2074.46726694872 -666.92987189025 244.910896116645
    vertex 2074.46726694872 -667.499807025851 247.870155032724
    vertex 2074.46726694872 -667.47990116165 244.749481694726
  endloop
endfacet
facet normal 1.0 1.42486406236185e-013 1.87002878613652e-015
  outer loop
    vertex 2074.46726694872 -667.47990116165 244.749481694726
    vertex 2074.46726694872 -667.499807025851 247.870155032724
    vertex 2074.46726694873 -667.986815939041 244.488264900975
  endloop
endfacet
facet normal 1.0 1.42486406236185e-013 1.87002878613652e-015
  outer loop
    vertex 2074.46726694873 -667.986815939041 244.488264900975
    vertex 2074.46726694872 -667.499807025851 247.870155032724
    vertex 2074.46726694872 -668.599497925655 247.547434079293
  endloop
endfacet
facet normal 1.0 1.42486406236185e-013 1.87002878613652e-015
  outer loop
    vertex 2074.46726694873 -667.986815939041 244.488264900975
    vertex 2074.46726694872 -668.599497925655 247.547434079293
    vertex 2074.46726694872 -669.683538177329 243.187163138148
  endloop
endfacet
facet normal 1.0 1.42486406236185e-013 1.87002878613652e-015
  outer loop
    vertex 2074.46726694872 -669.683538177329 243.187163138148
    vertex 2074.46726694872 -668.599497925655 247.547434079293
    vertex 2074.46726694872 -669.599479367389 247.032136523035
  endloop
endfacet
facet normal 1.0 1.42486406236185e-013 1.87002878613652e-015
  outer loop
    vertex 2074.46726694872 -669.683538177329 243.187163138148
    vertex 2074.46726694872 -669.599479367389 247.032136523035
    vertex 2074.46726694872 -671.707935035406 245.41530418325
  endloop
endfacet
facet normal 1.0 1.42486406236185e-013 1.87002878613652e-015
  outer loop
    vertex 2074.46726694872 -669.683538177329 243.187163138148
    vertex 2074.46726694872 -671.707935035406 245.41530418325
    vertex 2074.46726694872 -671.138858779917 241.624784540017
  endloop
endfacet
facet normal 1.0 1.42486406236185e-013 1.87002878613652e-015
  outer loop
    vertex 2074.46726694872 -671.138858779917 241.624784540017
    vertex 2074.46726694872 -671.707935035406 245.41530418325
    vertex 2074.46726694872 -672.314837845381 239.842634775539
  endloop
endfacet
facet normal 1.0 1.42486406236185e-013 1.87002878613652e-015
  outer loop
    vertex 2074.46726694872 -672.314837845381 239.842634775539
    vertex 2074.46726694872 -671.707935035406 245.41530418325
    vertex 2074.46726694872 -673.504839253518 243.486213996333
  endloop
endfacet
facet normal 1.0 1.42486406236185e-013 1.87002878613652e-015
  outer loop
    vertex 2074.46726694872 -672.314837845381 239.842634775539
    vertex 2074.46726694872 -673.504839253518 243.486213996333
    vertex 2074.46726694873 -673.178927417298 237.890078954034
  endloop
endfacet
facet normal 1.0 1.42486406236185e-013 1.87002878613652e-015
  outer loop
    vertex 2074.46726694873 -673.178927417298 237.890078954034
    vertex 2074.46726694872 -673.504839253518 243.486213996333
    vertex 2074.46726694872 -673.707128104712 235.821225282341
  endloop
endfacet
facet normal 1.0 1.42486406236185e-013 1.87002878613652e-015
  outer loop
    vertex 2074.46726694872 -673.707128104712 235.821225282341
    vertex 2074.46726694872 -673.504839253518 243.486213996333
    vertex 2074.46726694872 -674.956812711773 241.285805644987
  endloop
endfacet
facet normal 1.0 1.42486406236185e-013 1.87002878613652e-015
  outer loop
    vertex 2074.46726694872 -673.707128104712 235.821225282341
    vertex 2074.46726694872 -674.956812711773 241.285805644987
    vertex 2074.46726694873 -673.883108700983 233.714286077509
  endloop
endfacet
facet normal 1.0 1.42486406236185e-013 1.87002878613652e-015
  outer loop
    vertex 2074.46726694873 -673.883108700983 233.714286077509
    vertex 2074.46726694872 -674.956812711773 241.285805644987
    vertex 2074.46726694873 -673.883108700983 222.413946297298
  endloop
endfacet
facet normal 1.0 1.42486406236185e-013 1.87002878613652e-015
  outer loop
    vertex 2074.46726694873 -673.883108700983 222.413946297298
    vertex 2074.46726694872 -674.956812711773 241.285805644987
    vertex 2074.46726694873 -675.383108700983 222.413946297298
  endloop
endfacet
facet normal 1.0 1.42486406236185e-013 1.87002878613652e-015
  outer loop
    vertex 2074.46726694873 -675.383108700983 222.413946297298
    vertex 2074.46726694872 -674.956812711773 241.285805644987
    vertex 2074.46726694873 -676.023699715188 238.874994894444
  endloop
endfacet
facet normal 1.0 1.42486406236185e-013 1.87002878613652e-015
  outer loop
    vertex 2074.46726694873 -675.383108700983 222.413946297298
    vertex 2074.46726694873 -676.023699715188 238.874994894444
    vertex 2074.46726694873 -675.383108700983 212.413946297298
  endloop
endfacet
facet normal 1.0 1.42486406236185e-013 1.87002878613652e-015
  outer loop
    vertex 2074.46726694872 -638.183928700983 225.413946297298
    vertex 2074.46726694872 -636.683928700983 206.413946297298
    vertex 2074.46726694872 -636.683928700983 225.413946297298
  endloop
endfacet
facet normal 1.0 1.42486406236185e-013 1.87002878613652e-015
  outer loop
    vertex 2074.46726694872 -636.683928700983 206.413946297298
    vertex 2074.46726694872 -638.183928700983 225.413946297298
    vertex 2074.46726694872 -639.683928700983 212.413946297298
  endloop
endfacet
facet normal 1.0 1.42486406236185e-013 1.87002878613652e-015
  outer loop
    vertex 2074.46726694872 -636.683928700983 206.413946297298
    vertex 2074.46726694872 -639.683928700983 212.413946297298
    vertex 2074.46726694872 -641.976129283652 206.413946297298
  endloop
endfacet
facet normal 1.0 1.42486406236185e-013 1.87002878613652e-015
  outer loop
    vertex 2074.46726694872 -639.683928700983 212.413946297298
    vertex 2074.46726694872 -638.183928700983 225.413946297298
    vertex 2074.46726694872 -638.391172874881 236.320599192599
  endloop
endfacet
facet normal 1.0 1.42486406236185e-013 1.87002878613652e-015
  outer loop
    vertex 2074.46726694872 -639.683928700983 212.413946297298
    vertex 2074.46726694872 -638.391172874881 236.320599192599
    vertex 2074.46726694872 -639.043337686778 238.874994894444
  endloop
endfacet
facet normal 1.0 1.42486406236185e-013 1.87002878613652e-015
  outer loop
    vertex 2074.46726694872 -639.683928700983 212.413946297298
    vertex 2074.46726694872 -639.043337686778 238.874994894444
    vertex 2074.46726694872 -639.683928700983 222.413946297298
  endloop
endfacet
facet normal 1.0 1.42486406236185e-013 1.87002878613652e-015
  outer loop
    vertex 2074.46726694872 -641.976129283652 206.413946297298
    vertex 2074.46726694872 -639.683928700983 212.413946297298
    vertex 2074.46726694872 -643.830225788554 212.413946297298
  endloop
endfacet
facet normal 1.0 1.42486406236185e-013 1.87002878613652e-015
  outer loop
    vertex 2074.46726694872 -641.976129283652 206.413946297298
    vertex 2074.46726694872 -643.830225788554 212.413946297298
    vertex 2074.46726694872 -643.650477964889 203.065270990748
  endloop
endfacet
facet normal 1.0 1.42486406236185e-013 1.87002878613652e-015
  outer loop
    vertex 2074.46726694872 -643.650477964889 203.065270990748
    vertex 2074.46726694872 -643.830225788554 212.413946297298
    vertex 2074.46726694872 -644.269142131229 202.109261693362
  endloop
endfacet
facet normal 1.0 1.42486406236185e-013 1.87002878613652e-015
  outer loop
    vertex 2074.46726694872 -644.269142131229 202.109261693362
    vertex 2074.46726694872 -643.830225788554 212.413946297298
    vertex 2074.46726694872 -646.259415738684 207.555598396362
  endloop
endfacet
facet normal 1.0 1.42486406236185e-013 1.87002878613652e-015
  outer loop
    vertex 2074.46726694872 -644.269142131229 202.109261693362
    vertex 2074.46726694872 -646.259415738684 207.555598396362
    vertex 2074.46726694872 -645.221950783508 201.176062700979
  endloop
endfacet
facet normal 1.0 1.42486406236185e-013 1.87002878613652e-015
  outer loop
    vertex 2074.46726694872 -645.221950783508 201.176062700979
    vertex 2074.46726694872 -646.259415738684 207.555598396362
    vertex 2074.46726694872 -646.356647380827 200.474631529462
  endloop
endfacet
facet normal 1.0 1.42486406236185e-013 1.87002878613652e-015
  outer loop
    vertex 2074.46726694872 -646.356647380827 200.474631529462
    vertex 2074.46726694872 -646.259415738684 207.555598396362
    vertex 2074.46726694872 -646.606567762447 207.019151353879
  endloop
endfacet
facet normal 1.0 1.42486406236185e-013 1.87002878613652e-015
  outer loop
    vertex 2074.46726694872 -646.356647380827 200.474631529462
    vertex 2074.46726694872 -646.606567762447 207.019151353879
    vertex 2074.46726694872 -647.617774236687 200.039751921259
  endloop
endfacet
facet normal 1.0 1.42486406236185e-013 1.87002878613652e-015
  outer loop
    vertex 2074.46726694872 -647.617774236687 200.039751921259
    vertex 2074.46726694872 -646.606567762447 207.019151353879
    vertex 2074.46726694872 -647.082943284201 206.552580069253
  endloop
endfacet
facet normal 1.0 1.42486406236185e-013 1.87002878613652e-015
  outer loop
    vertex 2074.46726694872 -647.617774236687 200.039751921259
    vertex 2074.46726694872 -647.082943284201 206.552580069253
    vertex 2074.46726694872 -647.650176512389 206.201935616179
  endloop
endfacet
facet normal 1.0 1.42486406236185e-013 1.87002878613652e-015
  outer loop
    vertex 2074.46726694872 -647.617774236687 200.039751921259
    vertex 2074.46726694872 -647.650176512389 206.201935616179
    vertex 2074.46726694872 -648.749404020022 199.913946297298
  endloop
endfacet
facet normal 1.0 1.42486406236185e-013 1.87002878613652e-015
  outer loop
    vertex 2074.46726694872 -648.749404020022 199.913946297298
    vertex 2074.46726694872 -647.650176512389 206.201935616179
    vertex 2074.46726694872 -648.280591206084 205.984547100721
  endloop
endfacet
facet normal 1.0 1.42486406236185e-013 1.87002878613652e-015
  outer loop
    vertex 2074.46726694872 -648.749404020022 199.913946297298
    vertex 2074.46726694872 -648.280591206084 205.984547100721
    vertex 2074.46726694872 -648.915650032274 205.913946297298
  endloop
endfacet
facet normal 1.0 1.42486406236185e-013 1.87002878613652e-015
  outer loop
    vertex 2074.46726694872 -648.749404020022 199.913946297298
    vertex 2074.46726694872 -648.915650032274 205.913946297298
    vertex 2074.46726694872 -666.317633381944 199.913946297298
  endloop
endfacet
facet normal 1.0 1.42486406236185e-013 1.87002878613652e-015
  outer loop
    vertex 2074.46726694872 -666.317633381944 199.913946297298
    vertex 2074.46726694872 -648.915650032274 205.913946297298
    vertex 2074.46726694872 -666.151387369691 205.913946297298
  endloop
endfacet
facet normal 1.0 1.42486406236185e-013 1.87002878613652e-015
  outer loop
    vertex 2074.46726694872 -666.317633381944 199.913946297298
    vertex 2074.46726694872 -666.151387369691 205.913946297298
    vertex 2074.46726694872 -666.786446195882 205.984547100721
  endloop
endfacet
facet normal 1.0 1.42486406236185e-013 1.87002878613652e-015
  outer loop
    vertex 2074.46726694872 -666.317633381944 199.913946297298
    vertex 2074.46726694872 -666.786446195882 205.984547100721
    vertex 2074.46726694872 -667.449263165279 200.039751921259
  endloop
endfacet
facet normal 1.0 1.42486406236185e-013 1.87002878613652e-015
  outer loop
    vertex 2074.46726694872 -667.449263165279 200.039751921259
    vertex 2074.46726694872 -666.786446195882 205.984547100721
    vertex 2074.46726694872 -667.416860889576 206.201935616179
  endloop
endfacet
facet normal 1.0 1.42486406236185e-013 1.87002878613652e-015
  outer loop
    vertex 2074.46726694872 -667.449263165279 200.039751921259
    vertex 2074.46726694872 -667.416860889576 206.201935616179
    vertex 2074.46726694873 -667.984094117765 206.552580069253
  endloop
endfacet
facet normal 1.0 1.42486406236185e-013 1.87002878613652e-015
  outer loop
    vertex 2074.46726694872 -667.449263165279 200.039751921259
    vertex 2074.46726694873 -667.984094117765 206.552580069253
    vertex 2074.46726694872 -668.710390021138 200.474631529462
  endloop
endfacet
facet normal 1.0 1.42486406236185e-013 1.87002878613652e-015
  outer loop
    vertex 2074.46726694872 -668.710390021138 200.474631529462
    vertex 2074.46726694873 -667.984094117765 206.552580069253
    vertex 2074.46726694872 -668.460469639519 207.019151353879
  endloop
endfacet
facet normal 1.0 1.42486406236185e-013 1.87002878613652e-015
  outer loop
    vertex 2074.46726694872 -668.710390021138 200.474631529462
    vertex 2074.46726694872 -668.460469639519 207.019151353879
    vertex 2074.46726694872 -668.807621663282 207.555598396362
  endloop
endfacet
facet normal 1.0 1.42486406236185e-013 1.87002878613652e-015
  outer loop
    vertex 2074.46726694872 -668.710390021138 200.474631529462
    vertex 2074.46726694872 -668.807621663282 207.555598396362
    vertex 2074.46726694872 -669.845086618458 201.176062700979
  endloop
endfacet
facet normal 1.0 1.42486406236185e-013 1.87002878613652e-015
  outer loop
    vertex 2074.46726694872 -669.845086618458 201.176062700979
    vertex 2074.46726694872 -668.807621663282 207.555598396362
    vertex 2074.46726694872 -671.236811613412 212.413946297298
  endloop
endfacet
facet normal 1.0 1.42486406236185e-013 1.87002878613652e-015
  outer loop
    vertex 2074.46726694872 -669.845086618458 201.176062700979
    vertex 2074.46726694872 -671.236811613412 212.413946297298
    vertex 2074.46726694872 -670.797895270737 202.109261693362
  endloop
endfacet
facet normal 1.0 1.42486406236185e-013 1.87002878613652e-015
  outer loop
    vertex 2074.46726694872 -670.797895270737 202.109261693362
    vertex 2074.46726694872 -671.236811613412 212.413946297298
    vertex 2074.46726694872 -671.416559437077 203.065270990748
  endloop
endfacet
facet normal 1.0 1.42486406236185e-013 1.87002878613652e-015
  outer loop
    vertex 2074.46726694872 -671.416559437077 203.065270990748
    vertex 2074.46726694872 -671.236811613412 212.413946297298
    vertex 2074.46726694873 -675.383108700983 212.413946297298
  endloop
endfacet
facet normal 1.0 1.42486406236185e-013 1.87002878613652e-015
  outer loop
    vertex 2074.46726694872 -671.416559437077 203.065270990748
    vertex 2074.46726694873 -675.383108700983 212.413946297298
    vertex 2074.46726694873 -673.090908118314 206.413946297298
  endloop
endfacet
facet normal 1.0 1.42486406236185e-013 1.87002878613652e-015
  outer loop
    vertex 2074.46726694873 -673.090908118314 206.413946297298
    vertex 2074.46726694873 -675.383108700983 212.413946297298
    vertex 2074.46726694873 -678.383108700983 206.413946297298
  endloop
endfacet
facet normal 1.0 1.42486406236185e-013 1.87002878613652e-015
  outer loop
    vertex 2074.46726694873 -678.383108700983 206.413946297298
    vertex 2074.46726694873 -675.383108700983 212.413946297298
    vertex 2074.46726694873 -676.883108700983 225.413946297298
  endloop
endfacet
facet normal 1.0 1.42486406236185e-013 1.87002878613652e-015
  outer loop
    vertex 2074.46726694873 -676.883108700983 225.413946297298
    vertex 2074.46726694873 -675.383108700983 212.413946297298
    vertex 2074.46726694873 -676.023699715188 238.874994894444
  endloop
endfacet
facet normal 1.0 1.42486406236185e-013 1.87002878613652e-015
  outer loop
    vertex 2074.46726694873 -676.883108700983 225.413946297298
    vertex 2074.46726694873 -676.023699715188 238.874994894444
    vertex 2074.46726694873 -676.675864527085 236.320599192599
  endloop
endfacet
facet normal 1.0 1.42486406236185e-013 1.87002878613652e-015
  outer loop
    vertex 2074.46726694873 -676.883108700983 225.413946297298
    vertex 2074.46726694873 -676.675864527085 236.320599192599
    vertex 2074.46726694873 -676.883108700983 233.839354758776
  endloop
endfacet
facet normal 1.0 1.42486406236185e-013 1.87002878613652e-015
  outer loop
    vertex 2074.46726694873 -678.383108700983 206.413946297298
    vertex 2074.46726694873 -676.883108700983 225.413946297298
    vertex 2074.46726694873 -678.383108700983 225.413946297298
  endloop
endfacet
facet normal 1.0 1.42486406236185e-013 1.87002878613652e-015
  outer loop
    vertex 2074.46726694872 -640.110224690193 241.285805644987
    vertex 2074.46726694872 -639.683928700983 222.413946297298
    vertex 2074.46726694872 -639.043337686778 238.874994894444
  endloop
endfacet
facet normal 1.0 1.42486406236185e-013 1.87002878613652e-015
  outer loop
    vertex 2074.46726694872 -639.683928700983 222.413946297298
    vertex 2074.46726694872 -640.110224690193 241.285805644987
    vertex 2074.46726694872 -641.183928700983 222.413946297298
  endloop
endfacet
facet normal 1.0 1.42486406236185e-013 1.87002878613652e-015
  outer loop
    vertex 2074.46726694872 -641.183928700983 222.413946297298
    vertex 2074.46726694872 -640.110224690193 241.285805644987
    vertex 2074.46726694872 -641.183928700983 233.714286077509
  endloop
endfacet
facet normal 1.58032840662201e-014 -0.110491371344075 -0.993877083375256
  outer loop
    vertex 2074.46726694872 -667.449263165279 200.039751921259
    vertex 2054.46726694873 -666.317633381947 199.913946297298
    vertex 2074.46726694872 -666.317633381944 199.913946297298
  endloop
endfacet
facet normal 1.58032840662201e-014 -0.110491371344075 -0.993877083375256
  outer loop
    vertex 2054.46726694873 -666.317633381947 199.913946297298
    vertex 2074.46726694872 -667.449263165279 200.039751921259
    vertex 2054.46726694872 -667.449263165282 200.039751921259
  endloop
endfacet
facet normal 4.66260991218284e-014 -0.325996229655039 -0.945371069078538
  outer loop
    vertex 2054.46726694873 -668.710390021141 200.474631529462
    vertex 2074.46726694872 -667.449263165279 200.039751921259
    vertex 2074.46726694872 -668.710390021138 200.474631529462
  endloop
endfacet
facet normal 4.66260991218284e-014 -0.325996229655039 -0.945371069078538
  outer loop
    vertex 2074.46726694872 -667.449263165279 200.039751921259
    vertex 2054.46726694873 -668.710390021141 200.474631529462
    vertex 2054.46726694872 -667.449263165282 200.039751921259
  endloop
endfacet
facet normal 7.64218282299363e-014 -0.525812533399455 -0.850600481847999
  outer loop
    vertex 2054.46726694873 -669.845086618461 201.176062700979
    vertex 2074.46726694872 -668.710390021138 200.474631529462
    vertex 2074.46726694872 -669.845086618458 201.176062700979
  endloop
endfacet
facet normal 7.64218282299363e-014 -0.525812533399455 -0.850600481847999
  outer loop
    vertex 2074.46726694872 -668.710390021138 200.474631529462
    vertex 2054.46726694873 -669.845086618461 201.176062700979
    vertex 2054.46726694873 -668.710390021141 200.474631529462
  endloop
endfacet
facet normal 1.01696864267312e-013 -0.699716856570141 -0.714420268911514
  outer loop
    vertex 2054.46726694873 -670.79789527074 202.109261693362
    vertex 2074.46726694872 -669.845086618458 201.176062700979
    vertex 2074.46726694872 -670.797895270737 202.109261693362
  endloop
endfacet
facet normal 1.01696864267312e-013 -0.699716856570141 -0.714420268911514
  outer loop
    vertex 2074.46726694872 -669.845086618458 201.176062700979
    vertex 2054.46726694873 -670.79789527074 202.109261693362
    vertex 2054.46726694873 -669.845086618461 201.176062700979
  endloop
endfacet
facet normal 1.20078516907075e-013 -0.839542152746487 -0.543294555247698
  outer loop
    vertex 2074.46726694872 -671.416559437077 203.065270990748
    vertex 2054.46726694873 -670.79789527074 202.109261693362
    vertex 2074.46726694872 -670.797895270737 202.109261693362
  endloop
endfacet
facet normal 1.20078516907075e-013 -0.839542152746487 -0.543294555247698
  outer loop
    vertex 2054.46726694873 -670.79789527074 202.109261693362
    vertex 2074.46726694872 -671.416559437077 203.065270990748
    vertex 2054.46726694873 -671.41655943708 203.065270990748
  endloop
endfacet
facet normal 1.27923233467511e-013 -0.894426012776192 -0.447215951939645
  outer loop
    vertex 2074.46726694873 -673.090908118314 206.413946297298
    vertex 2054.46726694873 -671.41655943708 203.065270990748
    vertex 2074.46726694872 -671.416559437077 203.065270990748
  endloop
endfacet
facet normal 1.27923233467511e-013 -0.894426012776192 -0.447215951939645
  outer loop
    vertex 2054.46726694873 -671.41655943708 203.065270990748
    vertex 2074.46726694873 -673.090908118314 206.413946297298
    vertex 2054.46726694873 -673.090908118316 206.413946297298
  endloop
endfacet
facet normal 0.0 0.0 -1.0
  outer loop
    vertex 2074.46726694873 -678.383108700983 206.413946297298
    vertex 2054.46726694873 -673.090908118316 206.413946297298
    vertex 2074.46726694873 -673.090908118314 206.413946297298
  endloop
endfacet
facet normal 0.0 0.0 -1.0
  outer loop
    vertex 2054.46726694873 -673.090908118316 206.413946297298
    vertex 2074.46726694873 -678.383108700983 206.413946297298
    vertex 2054.46726694873 -678.383108700986 206.413946297298
  endloop
endfacet
facet normal 1.43028273669187e-013 -1.0 6.77541866346182e-042
  outer loop
    vertex 2074.46726694873 -678.383108700983 225.413946297298
    vertex 2054.46726694873 -678.383108700986 206.413946297298
    vertex 2074.46726694873 -678.383108700983 206.413946297298
  endloop
endfacet
facet normal 1.43028273669187e-013 -1.0 6.77541866346182e-042
  outer loop
    vertex 2054.46726694873 -678.383108700986 206.413946297298
    vertex 2074.46726694873 -678.383108700983 225.413946297298
    vertex 2054.46726694873 -678.383108700986 225.413946297298
  endloop
endfacet
facet normal 0.0 0.0 1.0
  outer loop
    vertex 2054.46726694873 -676.883108700986 225.413946297298
    vertex 2074.46726694873 -678.383108700983 225.413946297298
    vertex 2074.46726694873 -676.883108700983 225.413946297298
  endloop
endfacet
facet normal 0.0 0.0 1.0
  outer loop
    vertex 2074.46726694873 -678.383108700983 225.413946297298
    vertex 2054.46726694873 -676.883108700986 225.413946297298
    vertex 2054.46726694873 -678.383108700986 225.413946297298
  endloop
endfacet
facet normal 1.43868694735261e-013 -1.0 0.0
  outer loop
    vertex 2074.46726694873 -676.883108700983 233.839354758776
    vertex 2054.46726694873 -676.883108700986 225.413946297298
    vertex 2074.46726694873 -676.883108700983 225.413946297298
  endloop
endfacet
facet normal 1.43868694735261e-013 -1.0 0.0
  outer loop
    vertex 2054.46726694873 -676.883108700986 225.413946297298
    vertex 2074.46726694873 -676.883108700983 233.839354758776
    vertex 2054.46726694873 -676.883108700986 233.839354758776
  endloop
endfacet
facet normal 1.43369469220037e-013 -0.996529992044881 0.083234457738541
  outer loop
    vertex 2074.46726694873 -676.675864527085 236.320599192599
    vertex 2054.46726694873 -676.883108700986 233.839354758776
    vertex 2074.46726694873 -676.883108700983 233.839354758776
  endloop
endfacet
facet normal 1.43369469220037e-013 -0.996529992044881 0.083234457738541
  outer loop
    vertex 2054.46726694873 -676.883108700986 233.839354758776
    vertex 2074.46726694873 -676.675864527085 236.320599192599
    vertex 2054.46726694873 -676.675864527088 236.320599192599
  endloop
endfacet
facet normal 1.39397205266636e-013 -0.968919649428575 0.247375651492233
  outer loop
    vertex 2074.46726694873 -676.023699715188 238.874994894444
    vertex 2054.46726694873 -676.675864527088 236.320599192599
    vertex 2074.46726694873 -676.675864527085 236.320599192599
  endloop
endfacet
facet normal 1.39397205266636e-013 -0.968919649428575 0.247375651492233
  outer loop
    vertex 2054.46726694873 -676.675864527088 236.320599192599
    vertex 2074.46726694873 -676.023699715188 238.874994894444
    vertex 2054.46726694873 -676.023699715191 238.874994894444
  endloop
endfacet
facet normal 1.31561558994092e-013 -0.914455776749653 0.404685844043485
  outer loop
    vertex 2074.46726694872 -674.956812711773 241.285805644987
    vertex 2054.46726694873 -676.023699715191 238.874994894444
    vertex 2074.46726694873 -676.023699715188 238.874994894444
  endloop
endfacet
facet normal 1.31561558994092e-013 -0.914455776749653 0.404685844043485
  outer loop
    vertex 2054.46726694873 -676.023699715191 238.874994894444
    vertex 2074.46726694872 -674.956812711773 241.285805644987
    vertex 2054.46726694873 -674.956812711776 241.285805644987
  endloop
endfacet
facet normal 1.2008159310299e-013 -0.834661031185117 0.550763981230614
  outer loop
    vertex 2074.46726694872 -673.504839253518 243.486213996333
    vertex 2054.46726694873 -674.956812711776 241.285805644987
    vertex 2074.46726694872 -674.956812711773 241.285805644987
  endloop
endfacet
facet normal 1.2008159310299e-013 -0.834661031185117 0.550763981230614
  outer loop
    vertex 2054.46726694873 -674.956812711776 241.285805644987
    vertex 2074.46726694872 -673.504839253518 243.486213996333
    vertex 2054.46726694873 -673.504839253521 243.486213996333
  endloop
endfacet
facet normal 1.0527336518524e-013 -0.731732260301371 0.681592179557723
  outer loop
    vertex 2074.46726694872 -671.707935035406 245.41530418325
    vertex 2054.46726694873 -673.504839253521 243.486213996333
    vertex 2074.46726694872 -673.504839253518 243.486213996333
  endloop
endfacet
facet normal 1.0527336518524e-013 -0.731732260301371 0.681592179557723
  outer loop
    vertex 2054.46726694873 -673.504839253521 243.486213996333
    vertex 2074.46726694872 -671.707935035406 245.41530418325
    vertex 2054.46726694873 -671.707935035409 245.41530418325
  endloop
endfacet
facet normal 8.75461757548531e-014 -0.608514422932319 0.793542813642306
  outer loop
    vertex 2054.46726694873 -669.599479367392 247.032136523035
    vertex 2074.46726694872 -671.707935035406 245.41530418325
    vertex 2074.46726694872 -669.599479367389 247.032136523035
  endloop
endfacet
facet normal 8.75461757548531e-014 -0.608514422932319 0.793542813642306
  outer loop
    vertex 2074.46726694872 -671.707935035406 245.41530418325
    vertex 2054.46726694873 -669.599479367392 247.032136523035
    vertex 2054.46726694873 -671.707935035409 245.41530418325
  endloop
endfacet
facet normal 6.59013426710037e-014 -0.458065896769771 0.888918238206701
  outer loop
    vertex 2074.46726694872 -668.599497925655 247.547434079293
    vertex 2054.46726694873 -669.599479367392 247.032136523035
    vertex 2074.46726694872 -669.599479367389 247.032136523035
  endloop
endfacet
facet normal 6.59013426710037e-014 -0.458065896769771 0.888918238206701
  outer loop
    vertex 2054.46726694873 -669.599479367392 247.032136523035
    vertex 2074.46726694872 -668.599497925655 247.547434079293
    vertex 2054.46726694873 -668.599497925658 247.547434079293
  endloop
endfacet
facet normal 4.05119895653269e-014 -0.281590026516018 0.959534812795611
  outer loop
    vertex 2054.46726694873 -667.499807025854 247.870155032724
    vertex 2074.46726694872 -668.599497925655 247.547434079293
    vertex 2074.46726694872 -667.499807025851 247.870155032724
  endloop
endfacet
facet normal 4.05119895653269e-014 -0.281590026516018 0.959534812795611
  outer loop
    vertex 2074.46726694872 -668.599497925655 247.547434079293
    vertex 2054.46726694873 -667.499807025854 247.870155032724
    vertex 2054.46726694873 -668.599497925658 247.547434079293
  endloop
endfacet
facet normal 1.36581062760896e-014 -0.0949345255493039 0.99548351862737
  outer loop
    vertex 2054.46726694873 -666.525749143611 247.963046297298
    vertex 2074.46726694872 -667.499807025851 247.870155032724
    vertex 2074.46726694872 -666.525749143608 247.963046297298
  endloop
endfacet
facet normal 1.36581062760896e-014 -0.0949345255493039 0.99548351862737
  outer loop
    vertex 2074.46726694872 -667.499807025851 247.870155032724
    vertex 2054.46726694873 -666.525749143611 247.963046297298
    vertex 2054.46726694873 -667.499807025854 247.870155032724
  endloop
endfacet
facet normal -4.06055438266328e-028 2.8224030183462e-015 1.0
  outer loop
    vertex 2074.46726694872 -648.541288258357 247.963046297298
    vertex 2054.46726694873 -666.525749143611 247.963046297298
    vertex 2074.46726694872 -666.525749143608 247.963046297298
  endloop
endfacet
facet normal -4.06055438266328e-028 2.8224030183462e-015 1.0
  outer loop
    vertex 2054.46726694873 -666.525749143611 247.963046297298
    vertex 2074.46726694872 -648.541288258357 247.963046297298
    vertex 2054.46726694872 -648.54128825836 247.963046297298
  endloop
endfacet
facet normal -1.36581062760952e-014 0.0949345255493427 0.995483518627366
  outer loop
    vertex 2054.46726694872 -647.567230376118 247.870155032724
    vertex 2074.46726694872 -648.541288258357 247.963046297298
    vertex 2074.46726694872 -647.567230376115 247.870155032724
  endloop
endfacet
facet normal -1.36581062760952e-014 0.0949345255493427 0.995483518627366
  outer loop
    vertex 2074.46726694872 -648.541288258357 247.963046297298
    vertex 2054.46726694872 -647.567230376118 247.870155032724
    vertex 2054.46726694872 -648.54128825836 247.963046297298
  endloop
endfacet
facet normal -4.05119895653125e-014 0.281590026515917 0.959534812795641
  outer loop
    vertex 2074.46726694872 -646.467539476311 247.547434079293
    vertex 2054.46726694872 -647.567230376118 247.870155032724
    vertex 2074.46726694872 -647.567230376115 247.870155032724
  endloop
endfacet
facet normal -4.05119895653125e-014 0.281590026515917 0.959534812795641
  outer loop
    vertex 2054.46726694872 -647.567230376118 247.870155032724
    vertex 2074.46726694872 -646.467539476311 247.547434079293
    vertex 2054.46726694872 -646.467539476314 247.547434079293
  endloop
endfacet
facet normal -6.59013426710081e-014 0.458065896769802 0.888918238206685
  outer loop
    vertex 2054.46726694872 -645.467558034579 247.032136523035
    vertex 2074.46726694872 -646.467539476311 247.547434079293
    vertex 2074.46726694872 -645.467558034576 247.032136523035
  endloop
endfacet
facet normal -6.59013426710081e-014 0.458065896769802 0.888918238206685
  outer loop
    vertex 2074.46726694872 -646.467539476311 247.547434079293
    vertex 2054.46726694872 -645.467558034579 247.032136523035
    vertex 2054.46726694872 -646.467539476314 247.547434079293
  endloop
endfacet
facet normal -8.75461757548547e-014 0.60851442293233 0.793542813642297
  outer loop
    vertex 2074.46726694872 -643.35910236656 245.41530418325
    vertex 2054.46726694872 -645.467558034579 247.032136523035
    vertex 2074.46726694872 -645.467558034576 247.032136523035
  endloop
endfacet
facet normal -8.75461757548547e-014 0.60851442293233 0.793542813642297
  outer loop
    vertex 2054.46726694872 -645.467558034579 247.032136523035
    vertex 2074.46726694872 -643.35910236656 245.41530418325
    vertex 2054.46726694872 -643.359102366563 245.41530418325
  endloop
endfacet
facet normal -1.0527336518524e-013 0.731732260301367 0.681592179557727
  outer loop
    vertex 2054.46726694872 -643.359102366563 245.41530418325
    vertex 2074.46726694872 -641.562198148448 243.486213996332
    vertex 2054.46726694872 -641.562198148451 243.486213996332
  endloop
endfacet
facet normal -1.0527336518524e-013 0.731732260301367 0.681592179557727
  outer loop
    vertex 2074.46726694872 -641.562198148448 243.486213996332
    vertex 2054.46726694872 -643.359102366563 245.41530418325
    vertex 2074.46726694872 -643.35910236656 245.41530418325
  endloop
endfacet
facet normal -1.20081593102991e-013 0.834661031185129 0.550763981230597
  outer loop
    vertex 2054.46726694872 -641.562198148451 243.486213996332
    vertex 2074.46726694872 -640.110224690193 241.285805644987
    vertex 2054.46726694872 -640.110224690196 241.285805644987
  endloop
endfacet
facet normal -1.20081593102991e-013 0.834661031185129 0.550763981230597
  outer loop
    vertex 2074.46726694872 -640.110224690193 241.285805644987
    vertex 2054.46726694872 -641.562198148451 243.486213996332
    vertex 2074.46726694872 -641.562198148448 243.486213996332
  endloop
endfacet
facet normal -1.31561558994093e-013 0.914455776749662 0.404685844043467
  outer loop
    vertex 2054.46726694872 -640.110224690196 241.285805644987
    vertex 2074.46726694872 -639.043337686778 238.874994894444
    vertex 2054.46726694872 -639.043337686781 238.874994894444
  endloop
endfacet
facet normal -1.31561558994093e-013 0.914455776749662 0.404685844043467
  outer loop
    vertex 2074.46726694872 -639.043337686778 238.874994894444
    vertex 2054.46726694872 -640.110224690196 241.285805644987
    vertex 2074.46726694872 -640.110224690193 241.285805644987
  endloop
endfacet
facet normal -1.39397205266636e-013 0.968919649428579 0.247375651492217
  outer loop
    vertex 2054.46726694872 -639.043337686781 238.874994894444
    vertex 2074.46726694872 -638.391172874881 236.320599192599
    vertex 2054.46726694872 -638.391172874884 236.320599192599
  endloop
endfacet
facet normal -1.39397205266636e-013 0.968919649428579 0.247375651492217
  outer loop
    vertex 2074.46726694872 -638.391172874881 236.320599192599
    vertex 2054.46726694872 -639.043337686781 238.874994894444
    vertex 2074.46726694872 -639.043337686778 238.874994894444
  endloop
endfacet
facet normal -1.43369469220037e-013 0.99652999204488 0.0832344577385539
  outer loop
    vertex 2054.46726694872 -638.391172874884 236.320599192599
    vertex 2074.46726694872 -638.183928700983 233.839354758777
    vertex 2054.46726694872 -638.183928700986 233.839354758777
  endloop
endfacet
facet normal -1.43369469220037e-013 0.99652999204488 0.0832344577385539
  outer loop
    vertex 2074.46726694872 -638.183928700983 233.839354758777
    vertex 2054.46726694872 -638.391172874884 236.320599192599
    vertex 2074.46726694872 -638.391172874881 236.320599192599
  endloop
endfacet
facet normal -1.43868694735261e-013 1.0 0.0
  outer loop
    vertex 2054.46726694872 -638.183928700986 233.839354758777
    vertex 2074.46726694872 -638.183928700983 225.413946297298
    vertex 2054.46726694872 -638.183928700986 225.413946297298
  endloop
endfacet
facet normal -1.43868694735261e-013 1.0 0.0
  outer loop
    vertex 2074.46726694872 -638.183928700983 225.413946297298
    vertex 2054.46726694872 -638.183928700986 233.839354758777
    vertex 2074.46726694872 -638.183928700983 233.839354758777
  endloop
endfacet
facet normal 0.0 0.0 1.0
  outer loop
    vertex 2054.46726694872 -636.683928700986 225.413946297298
    vertex 2074.46726694872 -638.183928700983 225.413946297298
    vertex 2074.46726694872 -636.683928700983 225.413946297298
  endloop
endfacet
facet normal 0.0 0.0 1.0
  outer loop
    vertex 2074.46726694872 -638.183928700983 225.413946297298
    vertex 2054.46726694872 -636.683928700986 225.413946297298
    vertex 2054.46726694872 -638.183928700986 225.413946297298
  endloop
endfacet
facet normal -1.47648506754197e-013 1.0 0.0
  outer loop
    vertex 2054.46726694872 -636.683928700986 225.413946297298
    vertex 2074.46726694872 -636.683928700983 206.413946297298
    vertex 2054.46726694872 -636.683928700986 206.413946297298
  endloop
endfacet
facet normal -1.47648506754197e-013 1.0 0.0
  outer loop
    vertex 2074.46726694872 -636.683928700983 206.413946297298
    vertex 2054.46726694872 -636.683928700986 225.413946297298
    vertex 2074.46726694872 -636.683928700983 225.413946297298
  endloop
endfacet
facet normal 0.0 0.0 -1.0
  outer loop
    vertex 2054.46726694872 -641.976129283655 206.413946297298
    vertex 2074.46726694872 -636.683928700983 206.413946297298
    vertex 2074.46726694872 -641.976129283652 206.413946297298
  endloop
endfacet
facet normal 0.0 0.0 -1.0
  outer loop
    vertex 2074.46726694872 -636.683928700983 206.413946297298
    vertex 2054.46726694872 -641.976129283655 206.413946297298
    vertex 2054.46726694872 -636.683928700986 206.413946297298
  endloop
endfacet
facet normal -1.29993647148002e-013 0.894426012776188 -0.447215951939653
  outer loop
    vertex 2054.46726694872 -641.976129283655 206.413946297298
    vertex 2074.46726694872 -643.650477964889 203.065270990748
    vertex 2054.46726694872 -643.650477964892 203.065270990748
  endloop
endfacet
facet normal -1.29993647148002e-013 0.894426012776188 -0.447215951939653
  outer loop
    vertex 2074.46726694872 -643.650477964889 203.065270990748
    vertex 2054.46726694872 -641.976129283655 206.413946297298
    vertex 2074.46726694872 -641.976129283652 206.413946297298
  endloop
endfacet
facet normal -1.20079223120737e-013 0.839542152746533 -0.543294555247627
  outer loop
    vertex 2054.46726694872 -643.650477964892 203.065270990748
    vertex 2074.46726694872 -644.269142131229 202.109261693362
    vertex 2054.46726694872 -644.269142131232 202.109261693362
  endloop
endfacet
facet normal -1.20079223120737e-013 0.839542152746533 -0.543294555247627
  outer loop
    vertex 2074.46726694872 -644.269142131229 202.109261693362
    vertex 2054.46726694872 -643.650477964892 203.065270990748
    vertex 2074.46726694872 -643.650477964889 203.065270990748
  endloop
endfacet
facet normal -1.01695450996885e-013 0.699716856570283 -0.714420268911375
  outer loop
    vertex 2054.46726694872 -645.221950783511 201.176062700979
    vertex 2074.46726694872 -644.269142131229 202.109261693362
    vertex 2074.46726694872 -645.221950783508 201.176062700979
  endloop
endfacet
facet normal -1.01695450996885e-013 0.699716856570283 -0.714420268911375
  outer loop
    vertex 2074.46726694872 -644.269142131229 202.109261693362
    vertex 2054.46726694872 -645.221950783511 201.176062700979
    vertex 2054.46726694872 -644.269142131232 202.109261693362
  endloop
endfacet
facet normal -7.76358969705792e-014 0.525812533399315 -0.850600481848085
  outer loop
    vertex 2074.46726694872 -646.356647380827 200.474631529462
    vertex 2054.46726694872 -645.221950783511 201.176062700979
    vertex 2074.46726694872 -645.221950783508 201.176062700979
  endloop
endfacet
facet normal -7.76358969705792e-014 0.525812533399315 -0.850600481848085
  outer loop
    vertex 2054.46726694872 -645.221950783511 201.176062700979
    vertex 2074.46726694872 -646.356647380827 200.474631529462
    vertex 2054.46726694872 -646.356647380831 200.474631529462
  endloop
endfacet
facet normal -4.81328043249834e-014 0.325996229654995 -0.945371069078554
  outer loop
    vertex 2054.46726694872 -647.61777423669 200.039751921259
    vertex 2074.46726694872 -646.356647380827 200.474631529462
    vertex 2074.46726694872 -647.617774236687 200.039751921259
  endloop
endfacet
facet normal -4.81328043249834e-014 0.325996229654995 -0.945371069078554
  outer loop
    vertex 2074.46726694872 -646.356647380827 200.474631529462
    vertex 2054.46726694872 -647.61777423669 200.039751921259
    vertex 2054.46726694872 -646.356647380831 200.474631529462
  endloop
endfacet
facet normal -1.63141221971049e-014 0.110491371344162 -0.993877083375247
  outer loop
    vertex 2074.46726694872 -648.749404020022 199.913946297298
    vertex 2054.46726694872 -647.61777423669 200.039751921259
    vertex 2074.46726694872 -647.617774236687 200.039751921259
  endloop
endfacet
facet normal -1.63141221971049e-014 0.110491371344162 -0.993877083375247
  outer loop
    vertex 2054.46726694872 -647.61777423669 200.039751921259
    vertex 2074.46726694872 -648.749404020022 199.913946297298
    vertex 2054.46726694872 -648.749404020025 199.913946297298
  endloop
endfacet
facet normal 0.0 0.0 -1.0
  outer loop
    vertex 2074.46726694872 -666.317633381944 199.913946297298
    vertex 2054.46726694872 -648.749404020025 199.913946297298
    vertex 2074.46726694872 -648.749404020022 199.913946297298
  endloop
endfacet
facet normal 0.0 0.0 -1.0
  outer loop
    vertex 2054.46726694872 -648.749404020025 199.913946297298
    vertex 2074.46726694872 -666.317633381944 199.913946297298
    vertex 2054.46726694873 -666.317633381947 199.913946297298
  endloop
endfacet
facet normal 0.0 0.0 1.0
  outer loop
    vertex 2074.46726694872 -648.915650032274 205.913946297298
    vertex 2068.27726694872 -649.913518700984 205.913946297298
    vertex 2074.46726694872 -666.151387369691 205.913946297298
  endloop
endfacet
facet normal 0.0 0.0 1.0
  outer loop
    vertex 2068.27726694872 -649.913518700984 205.913946297298
    vertex 2074.46726694872 -648.915650032274 205.913946297298
    vertex 2054.46726694872 -648.915650032277 205.913946297298
  endloop
endfacet
facet normal 0.0 0.0 1.0
  outer loop
    vertex 2074.46726694872 -666.151387369691 205.913946297298
    vertex 2068.27726694872 -649.913518700984 205.913946297298
    vertex 2068.27726694872 -654.993518700984 205.913946297298
  endloop
endfacet
facet normal 0.0 0.0 1.0
  outer loop
    vertex 2068.27726694872 -649.913518700984 205.913946297298
    vertex 2054.46726694872 -648.915650032277 205.913946297298
    vertex 2060.65726694872 -649.913518700985 205.913946297298
  endloop
endfacet
facet normal 0.0 0.0 1.0
  outer loop
    vertex 2060.65726694872 -649.913518700985 205.913946297298
    vertex 2054.46726694872 -648.915650032277 205.913946297298
    vertex 2060.65726694872 -665.153518700985 205.913946297298
  endloop
endfacet
facet normal 0.0 0.0 1.0
  outer loop
    vertex 2074.46726694872 -666.151387369691 205.913946297298
    vertex 2068.27726694873 -665.153518700984 205.913946297298
    vertex 2054.46726694872 -666.151387369695 205.913946297298
  endloop
endfacet
facet normal 0.0 0.0 1.0
  outer loop
    vertex 2068.27726694873 -665.153518700984 205.913946297298
    vertex 2074.46726694872 -666.151387369691 205.913946297298
    vertex 2068.27726694872 -654.993518700984 205.913946297298
  endloop
endfacet
facet normal 0.0 0.0 1.0
  outer loop
    vertex 2068.27726694873 -665.153518700984 205.913946297298
    vertex 2068.27726694872 -654.993518700984 205.913946297298
    vertex 2068.27726694872 -660.073518700984 205.913946297298
  endloop
endfacet
facet normal 0.0 0.0 1.0
  outer loop
    vertex 2054.46726694872 -666.151387369695 205.913946297298
    vertex 2068.27726694873 -665.153518700984 205.913946297298
    vertex 2060.65726694872 -665.153518700985 205.913946297298
  endloop
endfacet
facet normal 0.0 0.0 1.0
  outer loop
    vertex 2054.46726694872 -666.151387369695 205.913946297298
    vertex 2060.65726694872 -665.153518700985 205.913946297298
    vertex 2054.46726694872 -648.915650032277 205.913946297298
  endloop
endfacet
facet normal 0.0 0.0 1.0
  outer loop
    vertex 2060.65726694872 -654.993518700985 205.913946297298
    vertex 2068.27726694872 -660.073518700984 205.913946297298
    vertex 2068.27726694872 -654.993518700984 205.913946297298
  endloop
endfacet
facet normal 0.0 0.0 1.0
  outer loop
    vertex 2068.27726694872 -660.073518700984 205.913946297298
    vertex 2060.65726694872 -654.993518700985 205.913946297298
    vertex 2060.65726694872 -660.073518700985 205.913946297298
  endloop
endfacet
facet normal 0.0 0.0 1.0
  outer loop
    vertex 2060.65726694872 -660.073518700985 205.913946297298
    vertex 2060.65726694872 -654.993518700985 205.913946297298
    vertex 2060.65726694872 -649.913518700985 205.913946297298
  endloop
endfacet
facet normal 0.0 0.0 1.0
  outer loop
    vertex 2060.65726694872 -660.073518700985 205.913946297298
    vertex 2060.65726694872 -649.913518700985 205.913946297298
    vertex 2060.65726694872 -665.153518700985 205.913946297298
  endloop
endfacet
facet normal -1.0 -1.42363117403004e-013 6.9851958403606e-016
  outer loop
    vertex 2054.46726694873 -675.383108700986 222.413946297298
    vertex 2054.46726694873 -673.883108700986 233.714286077509
    vertex 2054.46726694873 -673.883108700986 222.413946297298
  endloop
endfacet
facet normal -1.0 -1.42363117403004e-013 6.9851958403606e-016
  outer loop
    vertex 2054.46726694873 -673.883108700986 233.714286077509
    vertex 2054.46726694873 -675.383108700986 222.413946297298
    vertex 2054.46726694873 -674.956812711776 241.285805644987
  endloop
endfacet
facet normal -1.0 -1.42363117403004e-013 6.9851958403606e-016
  outer loop
    vertex 2054.46726694873 -674.956812711776 241.285805644987
    vertex 2054.46726694873 -675.383108700986 222.413946297298
    vertex 2054.46726694873 -676.023699715191 238.874994894444
  endloop
endfacet
facet normal -1.0 -1.42363117403004e-013 6.9851958403606e-016
  outer loop
    vertex 2054.46726694872 -639.043337686781 238.874994894444
    vertex 2054.46726694872 -639.683928700986 222.413946297298
    vertex 2054.46726694872 -640.110224690196 241.285805644987
  endloop
endfacet
facet normal -1.0 -1.42363117403004e-013 6.9851958403606e-016
  outer loop
    vertex 2054.46726694872 -639.683928700986 222.413946297298
    vertex 2054.46726694872 -639.043337686781 238.874994894444
    vertex 2054.46726694872 -639.683928700986 212.413946297298
  endloop
endfacet
facet normal -1.0 -1.42363117403004e-013 6.9851958403606e-016
  outer loop
    vertex 2054.46726694872 -640.110224690196 241.285805644987
    vertex 2054.46726694872 -639.683928700986 222.413946297298
    vertex 2054.46726694872 -641.183928700986 222.413946297298
  endloop
endfacet
facet normal -1.0 -1.42363117403004e-013 6.9851958403606e-016
  outer loop
    vertex 2054.46726694872 -640.110224690196 241.285805644987
    vertex 2054.46726694872 -641.183928700986 222.413946297298
    vertex 2054.46726694872 -641.183928700986 233.714286077509
  endloop
endfacet
facet normal -1.0 -1.42363117403004e-013 6.9851958403606e-016
  outer loop
    vertex 2054.46726694872 -640.110224690196 241.285805644987
    vertex 2054.46726694872 -641.183928700986 233.714286077509
    vertex 2054.46726694872 -641.562198148451 243.486213996332
  endloop
endfacet
facet normal -1.0 -1.42363117403004e-013 6.9851958403606e-016
  outer loop
    vertex 2054.46726694872 -641.562198148451 243.486213996332
    vertex 2054.46726694872 -641.183928700986 233.714286077509
    vertex 2054.46726694872 -641.359909297257 235.821225282341
  endloop
endfacet
facet normal -1.0 -1.42363117403004e-013 6.9851958403606e-016
  outer loop
    vertex 2054.46726694872 -641.562198148451 243.486213996332
    vertex 2054.46726694872 -641.359909297257 235.821225282341
    vertex 2054.46726694872 -641.888109984671 237.890078954034
  endloop
endfacet
facet normal -1.0 -1.42363117403004e-013 6.9851958403606e-016
  outer loop
    vertex 2054.46726694872 -641.562198148451 243.486213996332
    vertex 2054.46726694872 -641.888109984671 237.890078954034
    vertex 2054.46726694872 -643.359102366563 245.41530418325
  endloop
endfacet
facet normal -1.0 -1.42363117403004e-013 6.9851958403606e-016
  outer loop
    vertex 2054.46726694872 -643.359102366563 245.41530418325
    vertex 2054.46726694872 -641.888109984671 237.890078954034
    vertex 2054.46726694872 -642.752199556587 239.842634775539
  endloop
endfacet
facet normal -1.0 -1.42363117403004e-013 6.9851958403606e-016
  outer loop
    vertex 2054.46726694872 -643.359102366563 245.41530418325
    vertex 2054.46726694872 -642.752199556587 239.842634775539
    vertex 2054.46726694872 -643.928178622052 241.624784540017
  endloop
endfacet
facet normal -1.0 -1.42363117403004e-013 6.9851958403606e-016
  outer loop
    vertex 2054.46726694872 -643.359102366563 245.41530418325
    vertex 2054.46726694872 -643.928178622052 241.624784540017
    vertex 2054.46726694872 -645.467558034579 247.032136523035
  endloop
endfacet
facet normal -1.0 -1.42363117403004e-013 6.9851958403606e-016
  outer loop
    vertex 2054.46726694872 -645.467558034579 247.032136523035
    vertex 2054.46726694872 -643.928178622052 241.624784540017
    vertex 2054.46726694872 -645.38349922464 243.187163138149
  endloop
endfacet
facet normal -1.0 -1.42363117403004e-013 6.9851958403606e-016
  outer loop
    vertex 2054.46726694872 -645.467558034579 247.032136523035
    vertex 2054.46726694872 -645.38349922464 243.187163138149
    vertex 2054.46726694872 -647.080221462928 244.488264900975
  endloop
endfacet
facet normal -1.0 -1.42363117403004e-013 6.9851958403606e-016
  outer loop
    vertex 2054.46726694872 -645.467558034579 247.032136523035
    vertex 2054.46726694872 -647.080221462928 244.488264900975
    vertex 2054.46726694872 -646.467539476314 247.547434079293
  endloop
endfacet
facet normal -1.0 -1.42363117403004e-013 6.9851958403606e-016
  outer loop
    vertex 2054.46726694872 -646.467539476314 247.547434079293
    vertex 2054.46726694872 -647.080221462928 244.488264900975
    vertex 2054.46726694872 -647.567230376118 247.870155032724
  endloop
endfacet
facet normal -1.0 -1.42363117403004e-013 6.9851958403606e-016
  outer loop
    vertex 2054.46726694872 -647.567230376118 247.870155032724
    vertex 2054.46726694872 -647.080221462928 244.488264900975
    vertex 2054.46726694872 -647.587136240318 244.749481694726
  endloop
endfacet
facet normal -1.0 -1.42363117403004e-013 6.9851958403606e-016
  outer loop
    vertex 2054.46726694872 -647.567230376118 247.870155032724
    vertex 2054.46726694872 -647.587136240318 244.749481694726
    vertex 2054.46726694872 -648.54128825836 247.963046297298
  endloop
endfacet
facet normal -1.0 -1.42363117403004e-013 6.9851958403606e-016
  outer loop
    vertex 2054.46726694872 -648.54128825836 247.963046297298
    vertex 2054.46726694872 -647.587136240318 244.749481694726
    vertex 2054.46726694872 -648.137165511719 244.910896116645
  endloop
endfacet
facet normal -1.0 -1.42363117403004e-013 6.9851958403606e-016
  outer loop
    vertex 2054.46726694872 -648.54128825836 247.963046297298
    vertex 2054.46726694872 -648.137165511719 244.910896116645
    vertex 2054.46726694872 -648.684012352039 244.963046297298
  endloop
endfacet
facet normal -1.0 -1.42363117403004e-013 6.9851958403606e-016
  outer loop
    vertex 2054.46726694872 -648.54128825836 247.963046297298
    vertex 2054.46726694872 -648.684012352039 244.963046297298
    vertex 2054.46726694873 -666.525749143611 247.963046297298
  endloop
endfacet
facet normal -1.0 -1.42363117403004e-013 6.9851958403606e-016
  outer loop
    vertex 2054.46726694873 -666.525749143611 247.963046297298
    vertex 2054.46726694872 -648.684012352039 244.963046297298
    vertex 2054.46726694872 -666.383025049932 244.963046297298
  endloop
endfacet
facet normal -1.0 -1.42363117403004e-013 6.9851958403606e-016
  outer loop
    vertex 2054.46726694873 -666.525749143611 247.963046297298
    vertex 2054.46726694872 -666.383025049932 244.963046297298
    vertex 2054.46726694873 -666.929871890253 244.910896116645
  endloop
endfacet
facet normal -1.0 -1.42363117403004e-013 6.9851958403606e-016
  outer loop
    vertex 2054.46726694873 -666.525749143611 247.963046297298
    vertex 2054.46726694873 -666.929871890253 244.910896116645
    vertex 2054.46726694873 -667.499807025854 247.870155032724
  endloop
endfacet
facet normal -1.0 -1.42363117403004e-013 6.9851958403606e-016
  outer loop
    vertex 2054.46726694873 -667.499807025854 247.870155032724
    vertex 2054.46726694873 -666.929871890253 244.910896116645
    vertex 2054.46726694872 -667.479901161653 244.749481694726
  endloop
endfacet
facet normal -1.0 -1.42363117403004e-013 6.9851958403606e-016
  outer loop
    vertex 2054.46726694873 -667.499807025854 247.870155032724
    vertex 2054.46726694872 -667.479901161653 244.749481694726
    vertex 2054.46726694873 -667.986815939044 244.488264900975
  endloop
endfacet
facet normal -1.0 -1.42363117403004e-013 6.9851958403606e-016
  outer loop
    vertex 2054.46726694873 -667.499807025854 247.870155032724
    vertex 2054.46726694873 -667.986815939044 244.488264900975
    vertex 2054.46726694873 -668.599497925658 247.547434079293
  endloop
endfacet
facet normal -1.0 -1.42363117403004e-013 6.9851958403606e-016
  outer loop
    vertex 2054.46726694873 -668.599497925658 247.547434079293
    vertex 2054.46726694873 -667.986815939044 244.488264900975
    vertex 2054.46726694873 -669.683538177332 243.187163138148
  endloop
endfacet
facet normal -1.0 -1.42363117403004e-013 6.9851958403606e-016
  outer loop
    vertex 2054.46726694873 -668.599497925658 247.547434079293
    vertex 2054.46726694873 -669.683538177332 243.187163138148
    vertex 2054.46726694873 -669.599479367392 247.032136523035
  endloop
endfacet
facet normal -1.0 -1.42363117403004e-013 6.9851958403606e-016
  outer loop
    vertex 2054.46726694873 -669.599479367392 247.032136523035
    vertex 2054.46726694873 -669.683538177332 243.187163138148
    vertex 2054.46726694873 -671.707935035409 245.41530418325
  endloop
endfacet
facet normal -1.0 -1.42363117403004e-013 6.9851958403606e-016
  outer loop
    vertex 2054.46726694873 -671.707935035409 245.41530418325
    vertex 2054.46726694873 -669.683538177332 243.187163138148
    vertex 2054.46726694873 -671.138858779919 241.624784540017
  endloop
endfacet
facet normal -1.0 -1.42363117403004e-013 6.9851958403606e-016
  outer loop
    vertex 2054.46726694873 -671.707935035409 245.41530418325
    vertex 2054.46726694873 -671.138858779919 241.624784540017
    vertex 2054.46726694873 -672.314837845384 239.842634775539
  endloop
endfacet
facet normal -1.0 -1.42363117403004e-013 6.9851958403606e-016
  outer loop
    vertex 2054.46726694873 -671.707935035409 245.41530418325
    vertex 2054.46726694873 -672.314837845384 239.842634775539
    vertex 2054.46726694873 -673.504839253521 243.486213996333
  endloop
endfacet
facet normal -1.0 -1.42363117403004e-013 6.9851958403606e-016
  outer loop
    vertex 2054.46726694873 -673.504839253521 243.486213996333
    vertex 2054.46726694873 -672.314837845384 239.842634775539
    vertex 2054.46726694873 -673.178927417301 237.890078954034
  endloop
endfacet
facet normal -1.0 -1.42363117403004e-013 6.9851958403606e-016
  outer loop
    vertex 2054.46726694873 -673.504839253521 243.486213996333
    vertex 2054.46726694873 -673.178927417301 237.890078954034
    vertex 2054.46726694873 -673.707128104715 235.821225282341
  endloop
endfacet
facet normal -1.0 -1.42363117403004e-013 6.9851958403606e-016
  outer loop
    vertex 2054.46726694873 -673.504839253521 243.486213996333
    vertex 2054.46726694873 -673.707128104715 235.821225282341
    vertex 2054.46726694873 -674.956812711776 241.285805644987
  endloop
endfacet
facet normal -1.0 -1.42363117403004e-013 6.9851958403606e-016
  outer loop
    vertex 2054.46726694873 -674.956812711776 241.285805644987
    vertex 2054.46726694873 -673.707128104715 235.821225282341
    vertex 2054.46726694873 -673.883108700986 233.714286077509
  endloop
endfacet
facet normal -1.0 -1.42363117403004e-013 6.9851958403606e-016
  outer loop
    vertex 2054.46726694872 -636.683928700986 206.413946297298
    vertex 2054.46726694872 -639.683928700986 212.413946297298
    vertex 2054.46726694872 -636.683928700986 225.413946297298
  endloop
endfacet
facet normal -1.0 -1.42363117403004e-013 6.9851958403606e-016
  outer loop
    vertex 2054.46726694872 -639.683928700986 212.413946297298
    vertex 2054.46726694872 -636.683928700986 206.413946297298
    vertex 2054.46726694872 -641.976129283655 206.413946297298
  endloop
endfacet
facet normal -1.0 -1.42363117403004e-013 6.9851958403606e-016
  outer loop
    vertex 2054.46726694872 -636.683928700986 225.413946297298
    vertex 2054.46726694872 -639.683928700986 212.413946297298
    vertex 2054.46726694872 -638.183928700986 225.413946297298
  endloop
endfacet
facet normal -1.0 -1.42363117403004e-013 6.9851958403606e-016
  outer loop
    vertex 2054.46726694872 -638.183928700986 225.413946297298
    vertex 2054.46726694872 -639.683928700986 212.413946297298
    vertex 2054.46726694872 -638.183928700986 233.839354758777
  endloop
endfacet
facet normal -1.0 -1.42363117403004e-013 6.9851958403606e-016
  outer loop
    vertex 2054.46726694872 -638.183928700986 233.839354758777
    vertex 2054.46726694872 -639.683928700986 212.413946297298
    vertex 2054.46726694872 -638.391172874884 236.320599192599
  endloop
endfacet
facet normal -1.0 -1.42363117403004e-013 6.9851958403606e-016
  outer loop
    vertex 2054.46726694872 -638.391172874884 236.320599192599
    vertex 2054.46726694872 -639.683928700986 212.413946297298
    vertex 2054.46726694872 -639.043337686781 238.874994894444
  endloop
endfacet
facet normal -1.0 -1.42363117403004e-013 6.9851958403606e-016
  outer loop
    vertex 2054.46726694872 -639.683928700986 212.413946297298
    vertex 2054.46726694872 -641.976129283655 206.413946297298
    vertex 2054.46726694872 -643.830225788557 212.413946297298
  endloop
endfacet
facet normal -1.0 -1.42363117403004e-013 6.9851958403606e-016
  outer loop
    vertex 2054.46726694872 -643.830225788557 212.413946297298
    vertex 2054.46726694872 -641.976129283655 206.413946297298
    vertex 2054.46726694872 -643.650477964892 203.065270990748
  endloop
endfacet
facet normal -1.0 -1.42363117403004e-013 6.9851958403606e-016
  outer loop
    vertex 2054.46726694872 -643.830225788557 212.413946297298
    vertex 2054.46726694872 -643.650477964892 203.065270990748
    vertex 2054.46726694872 -644.269142131232 202.109261693362
  endloop
endfacet
facet normal -1.0 -1.42363117403004e-013 6.9851958403606e-016
  outer loop
    vertex 2054.46726694872 -643.830225788557 212.413946297298
    vertex 2054.46726694872 -644.269142131232 202.109261693362
    vertex 2054.46726694872 -646.259415738687 207.555598396362
  endloop
endfacet
facet normal -1.0 -1.42363117403004e-013 6.9851958403606e-016
  outer loop
    vertex 2054.46726694872 -646.259415738687 207.555598396362
    vertex 2054.46726694872 -644.269142131232 202.109261693362
    vertex 2054.46726694872 -645.221950783511 201.176062700979
  endloop
endfacet
facet normal -1.0 -1.42363117403004e-013 6.9851958403606e-016
  outer loop
    vertex 2054.46726694872 -646.259415738687 207.555598396362
    vertex 2054.46726694872 -645.221950783511 201.176062700979
    vertex 2054.46726694872 -646.356647380831 200.474631529462
  endloop
endfacet
facet normal -1.0 -1.42363117403004e-013 6.9851958403606e-016
  outer loop
    vertex 2054.46726694872 -646.259415738687 207.555598396362
    vertex 2054.46726694872 -646.356647380831 200.474631529462
    vertex 2054.46726694872 -646.606567762449 207.019151353879
  endloop
endfacet
facet normal -1.0 -1.42363117403004e-013 6.9851958403606e-016
  outer loop
    vertex 2054.46726694872 -646.606567762449 207.019151353879
    vertex 2054.46726694872 -646.356647380831 200.474631529462
    vertex 2054.46726694872 -647.61777423669 200.039751921259
  endloop
endfacet
facet normal -1.0 -1.42363117403004e-013 6.9851958403606e-016
  outer loop
    vertex 2054.46726694872 -646.606567762449 207.019151353879
    vertex 2054.46726694872 -647.61777423669 200.039751921259
    vertex 2054.46726694872 -647.082943284204 206.552580069253
  endloop
endfacet
facet normal -1.0 -1.42363117403004e-013 6.9851958403606e-016
  outer loop
    vertex 2054.46726694872 -647.082943284204 206.552580069253
    vertex 2054.46726694872 -647.61777423669 200.039751921259
    vertex 2054.46726694872 -647.650176512392 206.201935616179
  endloop
endfacet
facet normal -1.0 -1.42363117403004e-013 6.9851958403606e-016
  outer loop
    vertex 2054.46726694872 -647.650176512392 206.201935616179
    vertex 2054.46726694872 -647.61777423669 200.039751921259
    vertex 2054.46726694872 -648.749404020025 199.913946297298
  endloop
endfacet
facet normal -1.0 -1.42363117403004e-013 6.9851958403606e-016
  outer loop
    vertex 2054.46726694872 -647.650176512392 206.201935616179
    vertex 2054.46726694872 -648.749404020025 199.913946297298
    vertex 2054.46726694872 -648.280591206087 205.984547100721
  endloop
endfacet
facet normal -1.0 -1.42363117403004e-013 6.9851958403606e-016
  outer loop
    vertex 2054.46726694872 -648.280591206087 205.984547100721
    vertex 2054.46726694872 -648.749404020025 199.913946297298
    vertex 2054.46726694872 -648.915650032277 205.913946297298
  endloop
endfacet
facet normal -1.0 -1.42363117403004e-013 6.9851958403606e-016
  outer loop
    vertex 2054.46726694872 -648.915650032277 205.913946297298
    vertex 2054.46726694872 -648.749404020025 199.913946297298
    vertex 2054.46726694873 -666.317633381947 199.913946297298
  endloop
endfacet
facet normal -1.0 -1.42363117403004e-013 6.9851958403606e-016
  outer loop
    vertex 2054.46726694872 -648.915650032277 205.913946297298
    vertex 2054.46726694873 -666.317633381947 199.913946297298
    vertex 2054.46726694872 -666.151387369695 205.913946297298
  endloop
endfacet
facet normal -1.0 -1.42363117403004e-013 6.9851958403606e-016
  outer loop
    vertex 2054.46726694872 -666.151387369695 205.913946297298
    vertex 2054.46726694873 -666.317633381947 199.913946297298
    vertex 2054.46726694872 -666.786446195885 205.984547100721
  endloop
endfacet
facet normal -1.0 -1.42363117403004e-013 6.9851958403606e-016
  outer loop
    vertex 2054.46726694872 -666.786446195885 205.984547100721
    vertex 2054.46726694873 -666.317633381947 199.913946297298
    vertex 2054.46726694872 -667.449263165282 200.039751921259
  endloop
endfacet
facet normal -1.0 -1.42363117403004e-013 6.9851958403606e-016
  outer loop
    vertex 2054.46726694872 -666.786446195885 205.984547100721
    vertex 2054.46726694872 -667.449263165282 200.039751921259
    vertex 2054.46726694872 -667.41686088958 206.201935616179
  endloop
endfacet
facet normal -1.0 -1.42363117403004e-013 6.9851958403606e-016
  outer loop
    vertex 2054.46726694872 -667.41686088958 206.201935616179
    vertex 2054.46726694872 -667.449263165282 200.039751921259
    vertex 2054.46726694873 -667.984094117768 206.552580069253
  endloop
endfacet
facet normal -1.0 -1.42363117403004e-013 6.9851958403606e-016
  outer loop
    vertex 2054.46726694873 -667.984094117768 206.552580069253
    vertex 2054.46726694872 -667.449263165282 200.039751921259
    vertex 2054.46726694873 -668.710390021141 200.474631529462
  endloop
endfacet
facet normal -1.0 -1.42363117403004e-013 6.9851958403606e-016
  outer loop
    vertex 2054.46726694873 -667.984094117768 206.552580069253
    vertex 2054.46726694873 -668.710390021141 200.474631529462
    vertex 2054.46726694873 -668.460469639522 207.019151353879
  endloop
endfacet
facet normal -1.0 -1.42363117403004e-013 6.9851958403606e-016
  outer loop
    vertex 2054.46726694873 -668.460469639522 207.019151353879
    vertex 2054.46726694873 -668.710390021141 200.474631529462
    vertex 2054.46726694873 -668.807621663285 207.555598396362
  endloop
endfacet
facet normal -1.0 -1.42363117403004e-013 6.9851958403606e-016
  outer loop
    vertex 2054.46726694873 -668.807621663285 207.555598396362
    vertex 2054.46726694873 -668.710390021141 200.474631529462
    vertex 2054.46726694873 -669.845086618461 201.176062700979
  endloop
endfacet
facet normal -1.0 -1.42363117403004e-013 6.9851958403606e-016
  outer loop
    vertex 2054.46726694873 -668.807621663285 207.555598396362
    vertex 2054.46726694873 -669.845086618461 201.176062700979
    vertex 2054.46726694873 -671.236811613415 212.413946297298
  endloop
endfacet
facet normal -1.0 -1.42363117403004e-013 6.9851958403606e-016
  outer loop
    vertex 2054.46726694873 -671.236811613415 212.413946297298
    vertex 2054.46726694873 -669.845086618461 201.176062700979
    vertex 2054.46726694873 -670.79789527074 202.109261693362
  endloop
endfacet
facet normal -1.0 -1.42363117403004e-013 6.9851958403606e-016
  outer loop
    vertex 2054.46726694873 -671.236811613415 212.413946297298
    vertex 2054.46726694873 -670.79789527074 202.109261693362
    vertex 2054.46726694873 -671.41655943708 203.065270990748
  endloop
endfacet
facet normal -1.0 -1.42363117403004e-013 6.9851958403606e-016
  outer loop
    vertex 2054.46726694873 -671.236811613415 212.413946297298
    vertex 2054.46726694873 -671.41655943708 203.065270990748
    vertex 2054.46726694873 -675.383108700986 212.413946297298
  endloop
endfacet
facet normal -1.0 -1.42363117403004e-013 6.9851958403606e-016
  outer loop
    vertex 2054.46726694873 -675.383108700986 212.413946297298
    vertex 2054.46726694873 -671.41655943708 203.065270990748
    vertex 2054.46726694873 -673.090908118316 206.413946297298
  endloop
endfacet
facet normal -1.0 -1.42363117403004e-013 6.9851958403606e-016
  outer loop
    vertex 2054.46726694873 -675.383108700986 212.413946297298
    vertex 2054.46726694873 -673.090908118316 206.413946297298
    vertex 2054.46726694873 -678.383108700986 206.413946297298
  endloop
endfacet
facet normal -1.0 -1.42363117403004e-013 6.9851958403606e-016
  outer loop
    vertex 2054.46726694873 -675.383108700986 212.413946297298
    vertex 2054.46726694873 -678.383108700986 206.413946297298
    vertex 2054.46726694873 -675.383108700986 222.413946297298
  endloop
endfacet
facet normal -1.0 -1.42363117403004e-013 6.9851958403606e-016
  outer loop
    vertex 2054.46726694873 -675.383108700986 222.413946297298
    vertex 2054.46726694873 -678.383108700986 206.413946297298
    vertex 2054.46726694873 -676.883108700986 225.413946297298
  endloop
endfacet
facet normal -1.0 -1.42363117403004e-013 6.9851958403606e-016
  outer loop
    vertex 2054.46726694873 -675.383108700986 222.413946297298
    vertex 2054.46726694873 -676.883108700986 225.413946297298
    vertex 2054.46726694873 -676.023699715191 238.874994894444
  endloop
endfacet
facet normal -1.0 -1.42363117403004e-013 6.9851958403606e-016
  outer loop
    vertex 2054.46726694873 -676.023699715191 238.874994894444
    vertex 2054.46726694873 -676.883108700986 225.413946297298
    vertex 2054.46726694873 -676.675864527088 236.320599192599
  endloop
endfacet
facet normal -1.0 -1.42363117403004e-013 6.9851958403606e-016
  outer loop
    vertex 2054.46726694873 -676.883108700986 225.413946297298
    vertex 2054.46726694873 -678.383108700986 206.413946297298
    vertex 2054.46726694873 -678.383108700986 225.413946297298
  endloop
endfacet
facet normal -1.0 -1.42363117403004e-013 6.9851958403606e-016
  outer loop
    vertex 2054.46726694873 -676.883108700986 233.839354758776
    vertex 2054.46726694873 -676.675864527088 236.320599192599
    vertex 2054.46726694873 -676.883108700986 225.413946297298
  endloop
endfacet
facet normal -1.01728899660708e-013 0.707106781186533 0.707106781186562
  outer loop
    vertex 2060.65726694872 -649.913518700985 205.913946297298
    vertex 2065.27726694872 -650.913518700984 206.913946297298
    vertex 2068.27726694872 -649.913518700984 205.913946297298
  endloop
endfacet
facet normal -1.01728899660708e-013 0.707106781186533 0.707106781186562
  outer loop
    vertex 2065.27726694872 -650.913518700984 206.913946297298
    vertex 2060.65726694872 -649.913518700985 205.913946297298
    vertex 2063.65726694872 -650.913518700984 206.913946297298
  endloop
endfacet
facet normal -1.01735419608908e-013 0.707106781186535 0.70710678118656
  outer loop
    vertex 2060.65726694872 -660.073518700985 205.913946297298
    vertex 2065.27726694872 -661.073518700984 206.913946297298
    vertex 2068.27726694872 -660.073518700984 205.913946297298
  endloop
endfacet
facet normal -1.01735419608908e-013 0.707106781186535 0.70710678118656
  outer loop
    vertex 2065.27726694872 -661.073518700984 206.913946297298
    vertex 2060.65726694872 -660.073518700985 205.913946297298
    vertex 2063.65726694872 -661.073518700984 206.913946297298
  endloop
endfacet
facet normal -0.316227766016818 -3.60918180414694e-014 0.94868329805052
  outer loop
    vertex 2060.65726694872 -660.073518700985 205.913946297298
    vertex 2063.65726694872 -664.153518700984 206.913946297298
    vertex 2063.65726694872 -661.073518700984 206.913946297298
  endloop
endfacet
facet normal -0.316227766016818 -3.60918180414694e-014 0.94868329805052
  outer loop
    vertex 2063.65726694872 -664.153518700984 206.913946297298
    vertex 2060.65726694872 -660.073518700985 205.913946297298
    vertex 2060.65726694872 -665.153518700985 205.913946297298
  endloop
endfacet
facet normal 0.316227766016835 4.55581900716463e-014 0.948683298050515
  outer loop
    vertex 2068.27726694872 -649.913518700984 205.913946297298
    vertex 2065.27726694872 -653.993518700984 206.913946297298
    vertex 2068.27726694872 -654.993518700984 205.913946297298
  endloop
endfacet
facet normal 0.316227766016835 4.55581900716463e-014 0.948683298050515
  outer loop
    vertex 2065.27726694872 -653.993518700984 206.913946297298
    vertex 2068.27726694872 -649.913518700984 205.913946297298
    vertex 2065.27726694872 -650.913518700984 206.913946297298
  endloop
endfacet
facet normal 0.0 0.0 1.0
  outer loop
    vertex 2065.27726694872 -650.913518700984 206.913946297298
    vertex 2063.65726694872 -653.993518700984 206.913946297298
    vertex 2065.27726694872 -653.993518700984 206.913946297298
  endloop
endfacet
facet normal 0.0 0.0 1.0
  outer loop
    vertex 2063.65726694872 -653.993518700984 206.913946297298
    vertex 2065.27726694872 -650.913518700984 206.913946297298
    vertex 2063.65726694872 -650.913518700984 206.913946297298
  endloop
endfacet
facet normal -0.316227766016835 -4.55581900716463e-014 0.948683298050515
  outer loop
    vertex 2063.65726694872 -650.913518700984 206.913946297298
    vertex 2060.65726694872 -654.993518700985 205.913946297298
    vertex 2063.65726694872 -653.993518700984 206.913946297298
  endloop
endfacet
facet normal -0.316227766016835 -4.55581900716463e-014 0.948683298050515
  outer loop
    vertex 2060.65726694872 -654.993518700985 205.913946297298
    vertex 2063.65726694872 -650.913518700984 206.913946297298
    vertex 2060.65726694872 -649.913518700985 205.913946297298
  endloop
endfacet
facet normal -1.0879500318434e-016 -1.94559375825141e-015 1.0
  outer loop
    vertex 2065.27726694872 -661.073518700984 206.913946297298
    vertex 2063.65726694872 -664.153518700984 206.913946297298
    vertex 2065.27726694872 -664.153518700984 206.913946297298
  endloop
endfacet
facet normal -1.0879500318434e-016 -1.94559375825141e-015 1.0
  outer loop
    vertex 2063.65726694872 -664.153518700984 206.913946297298
    vertex 2065.27726694872 -661.073518700984 206.913946297298
    vertex 2063.65726694872 -661.073518700984 206.913946297298
  endloop
endfacet
facet normal 1.01730529647758e-013 -0.707106781186533 0.707106781186562
  outer loop
    vertex 2065.27726694872 -664.153518700984 206.913946297298
    vertex 2060.65726694872 -665.153518700985 205.913946297298
    vertex 2068.27726694873 -665.153518700984 205.913946297298
  endloop
endfacet
facet normal 1.01730529647758e-013 -0.707106781186533 0.707106781186562
  outer loop
    vertex 2060.65726694872 -665.153518700985 205.913946297298
    vertex 2065.27726694872 -664.153518700984 206.913946297298
    vertex 2063.65726694872 -664.153518700984 206.913946297298
  endloop
endfacet
facet normal 1.01730529647759e-013 -0.707106781186533 0.707106781186562
  outer loop
    vertex 2065.27726694872 -653.993518700984 206.913946297298
    vertex 2060.65726694872 -654.993518700985 205.913946297298
    vertex 2068.27726694872 -654.993518700984 205.913946297298
  endloop
endfacet
facet normal 1.01730529647759e-013 -0.707106781186533 0.707106781186562
  outer loop
    vertex 2060.65726694872 -654.993518700985 205.913946297298
    vertex 2065.27726694872 -653.993518700984 206.913946297298
    vertex 2063.65726694872 -653.993518700984 206.913946297298
  endloop
endfacet
facet normal 0.316227766016836 4.50618072162506e-014 0.948683298050515
  outer loop
    vertex 2065.27726694872 -661.073518700984 206.913946297298
    vertex 2068.27726694873 -665.153518700984 205.913946297298
    vertex 2068.27726694872 -660.073518700984 205.913946297298
  endloop
endfacet
facet normal 0.316227766016836 4.50618072162506e-014 0.948683298050515
  outer loop
    vertex 2068.27726694873 -665.153518700984 205.913946297298
    vertex 2065.27726694872 -661.073518700984 206.913946297298
    vertex 2065.27726694872 -664.153518700984 206.913946297298
  endloop
endfacet
endsolid Triwheel Rival upscale
