solid triwheel rival
facet normal 0.0 0.0 -1.0
  outer loop
    vertex 228.685082593402 66.3542100472346 0.0
    vertex 232.726717813752 62.6292100472346 0.0
    vertex 228.685082593402 56.3542100472346 0.0
  endloop
endfacet
facet normal 0.0 0.0 -1.0
  outer loop
    vertex 232.726717813752 62.6292100472346 0.0
    vertex 228.685082593402 66.3542100472346 0.0
    vertex 233.131960301376 63.1573323392603 0.0
  endloop
endfacet
facet normal 0.0 0.0 -1.0
  outer loop
    vertex 233.131960301376 63.1573323392603 0.0
    vertex 228.685082593402 66.3542100472346 0.0
    vertex 233.660082593402 63.5625748268849 0.0
  endloop
endfacet
facet normal 0.0 0.0 -1.0
  outer loop
    vertex 233.660082593402 63.5625748268849 0.0
    vertex 228.685082593402 66.3542100472346 0.0
    vertex 234.275094028391 63.8173209042717 0.0
  endloop
endfacet
facet normal 0.0 0.0 -1.0
  outer loop
    vertex 234.275094028391 63.8173209042717 0.0
    vertex 228.685082593402 66.3542100472346 0.0
    vertex 234.935082593402 63.9042100472346 0.0
  endloop
endfacet
facet normal 0.0 0.0 -1.0
  outer loop
    vertex 234.935082593402 63.9042100472346 0.0
    vertex 228.685082593402 66.3542100472346 0.0
    vertex 278.685082593402 66.3542100472346 0.0
  endloop
endfacet
facet normal 0.0 0.0 -1.0
  outer loop
    vertex 228.685082593402 56.3542100472346 0.0
    vertex 232.726717813752 62.6292100472346 0.0
    vertex 232.471971736365 62.014198612246 0.0
  endloop
endfacet
facet normal 0.0 0.0 -1.0
  outer loop
    vertex 228.685082593402 56.3542100472346 0.0
    vertex 232.471971736365 62.014198612246 0.0
    vertex 232.385082593402 61.3542100472346 0.0
  endloop
endfacet
facet normal 0.0 0.0 -1.0
  outer loop
    vertex 234.935082593402 63.9042100472346 0.0
    vertex 278.685082593402 66.3542100472346 0.0
    vertex 235.595071158414 63.8173209042717 0.0
  endloop
endfacet
facet normal 0.0 0.0 -1.0
  outer loop
    vertex 235.595071158414 63.8173209042717 0.0
    vertex 278.685082593402 66.3542100472346 0.0
    vertex 236.210082593402 63.5625748268849 0.0
  endloop
endfacet
facet normal 0.0 0.0 -1.0
  outer loop
    vertex 236.210082593402 63.5625748268849 0.0
    vertex 278.685082593402 66.3542100472346 0.0
    vertex 236.738204885428 63.1573323392603 0.0
  endloop
endfacet
facet normal 0.0 0.0 -1.0
  outer loop
    vertex 236.738204885428 63.1573323392603 0.0
    vertex 278.685082593402 66.3542100472346 0.0
    vertex 247.435082593402 63.9542100472346 2.50463337407671e-030
  endloop
endfacet
facet normal 0.0 0.0 -1.0
  outer loop
    vertex 236.738204885428 63.1573323392603 0.0
    vertex 247.435082593402 63.9542100472346 2.50463337407671e-030
    vertex 237.143447373052 62.6292100472346 0.0
  endloop
endfacet
facet normal 0.0 0.0 -1.0
  outer loop
    vertex 237.143447373052 62.6292100472346 0.0
    vertex 247.435082593402 63.9542100472346 2.50463337407671e-030
    vertex 246.762153076136 63.8656171955862 2.50463337407671e-030
  endloop
endfacet
facet normal 0.0 0.0 -1.0
  outer loop
    vertex 237.143447373052 62.6292100472346 0.0
    vertex 246.762153076136 63.8656171955862 2.50463337407671e-030
    vertex 237.398193450439 62.014198612246 0.0
  endloop
endfacet
facet normal 0.0 0.0 -1.0
  outer loop
    vertex 237.398193450439 62.014198612246 0.0
    vertex 246.762153076136 63.8656171955862 2.50463337407671e-030
    vertex 237.485082593402 61.3542100472346 0.0
  endloop
endfacet
facet normal 0.0 0.0 -1.0
  outer loop
    vertex 237.485082593402 61.3542100472346 0.0
    vertex 246.762153076136 63.8656171955862 2.50463337407671e-030
    vertex 246.135082593402 63.6058760970742 2.50463337407671e-030
  endloop
endfacet
facet normal 0.0 0.0 -1.0
  outer loop
    vertex 237.485082593402 61.3542100472346 0.0
    vertex 246.135082593402 63.6058760970742 2.50463337407671e-030
    vertex 245.596604962317 63.1926876783197 2.50463337407671e-030
  endloop
endfacet
facet normal 0.0 0.0 -1.0
  outer loop
    vertex 237.485082593402 61.3542100472346 0.0
    vertex 245.596604962317 63.1926876783197 2.50463337407671e-030
    vertex 245.183416543563 62.6542100472346 2.50463337407671e-030
  endloop
endfacet
facet normal 0.0 0.0 -1.0
  outer loop
    vertex 237.485082593402 61.3542100472346 0.0
    vertex 245.183416543563 62.6542100472346 2.50463337407671e-030
    vertex 244.92367544505 62.0271395645012 2.50463337407671e-030
  endloop
endfacet
facet normal 0.0 0.0 -1.0
  outer loop
    vertex 237.485082593402 61.3542100472346 0.0
    vertex 244.92367544505 62.0271395645012 2.50463337407671e-030
    vertex 244.835082593402 61.3542100472346 2.50463337407671e-030
  endloop
endfacet
facet normal 0.0 0.0 -1.0
  outer loop
    vertex 247.435082593402 63.9542100472346 2.50463337407671e-030
    vertex 278.685082593402 66.3542100472346 0.0
    vertex 248.108012110669 63.8656171955862 2.50463337407671e-030
  endloop
endfacet
facet normal 0.0 0.0 -1.0
  outer loop
    vertex 248.108012110669 63.8656171955862 2.50463337407671e-030
    vertex 278.685082593402 66.3542100472346 0.0
    vertex 248.735082593402 63.6058760970742 2.50463337407671e-030
  endloop
endfacet
facet normal 0.0 0.0 -1.0
  outer loop
    vertex 248.735082593402 63.6058760970742 2.50463337407671e-030
    vertex 278.685082593402 66.3542100472346 0.0
    vertex 249.273560224487 63.1926876783197 2.50463337407671e-030
  endloop
endfacet
facet normal 0.0 0.0 -1.0
  outer loop
    vertex 249.273560224487 63.1926876783197 2.50463337407671e-030
    vertex 278.685082593402 66.3542100472346 0.0
    vertex 259.935082593402 64.0042100472346 0.0
  endloop
endfacet
facet normal 0.0 0.0 -1.0
  outer loop
    vertex 249.273560224487 63.1926876783197 2.50463337407671e-030
    vertex 259.935082593402 64.0042100472346 0.0
    vertex 259.24921212388 63.9139134869006 0.0
  endloop
endfacet
facet normal 0.0 0.0 -1.0
  outer loop
    vertex 249.273560224487 63.1926876783197 2.50463337407671e-030
    vertex 259.24921212388 63.9139134869006 0.0
    vertex 249.686748643242 62.6542100472346 2.50463337407671e-030
  endloop
endfacet
facet normal 0.0 0.0 -1.0
  outer loop
    vertex 249.686748643242 62.6542100472346 2.50463337407671e-030
    vertex 259.24921212388 63.9139134869006 0.0
    vertex 249.946489741754 62.0271395645012 2.50463337407671e-030
  endloop
endfacet
facet normal 0.0 0.0 -1.0
  outer loop
    vertex 249.946489741754 62.0271395645012 2.50463337407671e-030
    vertex 259.24921212388 63.9139134869006 0.0
    vertex 250.035082593402 61.3542100472346 2.50463337407671e-030
  endloop
endfacet
facet normal 0.0 0.0 -1.0
  outer loop
    vertex 250.035082593402 61.3542100472346 2.50463337407671e-030
    vertex 259.24921212388 63.9139134869006 0.0
    vertex 258.610082593402 63.6491773672634 0.0
  endloop
endfacet
facet normal 0.0 0.0 -1.0
  outer loop
    vertex 250.035082593402 61.3542100472346 2.50463337407671e-030
    vertex 258.610082593402 63.6491773672634 0.0
    vertex 258.061249623258 63.228043017379 0.0
  endloop
endfacet
facet normal 0.0 0.0 -1.0
  outer loop
    vertex 250.035082593402 61.3542100472346 2.50463337407671e-030
    vertex 258.061249623258 63.228043017379 0.0
    vertex 257.640115273373 62.6792100472346 0.0
  endloop
endfacet
facet normal 0.0 0.0 -1.0
  outer loop
    vertex 250.035082593402 61.3542100472346 2.50463337407671e-030
    vertex 257.640115273373 62.6792100472346 0.0
    vertex 257.375379153736 62.0400805167563 0.0
  endloop
endfacet
facet normal 0.0 0.0 -1.0
  outer loop
    vertex 250.035082593402 61.3542100472346 2.50463337407671e-030
    vertex 257.375379153736 62.0400805167563 0.0
    vertex 257.285082593402 61.3542100472346 0.0
  endloop
endfacet
facet normal 0.0 0.0 -1.0
  outer loop
    vertex 259.935082593402 64.0042100472346 0.0
    vertex 278.685082593402 66.3542100472346 0.0
    vertex 260.620953062924 63.9139134869006 0.0
  endloop
endfacet
facet normal 0.0 0.0 -1.0
  outer loop
    vertex 260.620953062924 63.9139134869006 0.0
    vertex 278.685082593402 66.3542100472346 0.0
    vertex 261.260082593402 63.6491773672634 0.0
  endloop
endfacet
facet normal 0.0 0.0 -1.0
  outer loop
    vertex 261.260082593402 63.6491773672634 0.0
    vertex 278.685082593402 66.3542100472346 0.0
    vertex 261.808915563546 63.228043017379 0.0
  endloop
endfacet
facet normal 0.0 0.0 -1.0
  outer loop
    vertex 261.808915563546 63.228043017379 0.0
    vertex 278.685082593402 66.3542100472346 0.0
    vertex 262.230049913431 62.6792100472346 0.0
  endloop
endfacet
facet normal 0.0 0.0 -1.0
  outer loop
    vertex 262.230049913431 62.6792100472346 0.0
    vertex 278.685082593402 66.3542100472346 0.0
    vertex 262.494786033068 62.0400805167563 0.0
  endloop
endfacet
facet normal 0.0 0.0 -1.0
  outer loop
    vertex 262.494786033068 62.0400805167563 0.0
    vertex 278.685082593402 66.3542100472346 0.0
    vertex 262.585082593402 61.3542100472346 0.0
  endloop
endfacet
facet normal 0.0 0.0 -1.0
  outer loop
    vertex 262.585082593402 61.3542100472346 0.0
    vertex 278.685082593402 66.3542100472346 0.0
    vertex 271.736271171625 63.9622097782151 0.0
  endloop
endfacet
facet normal 0.0 0.0 -1.0
  outer loop
    vertex 262.585082593402 61.3542100472346 0.0
    vertex 271.736271171625 63.9622097782151 0.0
    vertex 271.085082593402 63.6924786374526 0.0
  endloop
endfacet
facet normal 0.0 0.0 -1.0
  outer loop
    vertex 262.585082593402 61.3542100472346 0.0
    vertex 271.085082593402 63.6924786374526 0.0
    vertex 270.525894284198 63.2633983564383 0.0
  endloop
endfacet
facet normal 0.0 0.0 -1.0
  outer loop
    vertex 262.585082593402 61.3542100472346 0.0
    vertex 270.525894284198 63.2633983564383 0.0
    vertex 270.096814003184 62.7042100472346 0.0
  endloop
endfacet
facet normal 0.0 0.0 -1.0
  outer loop
    vertex 262.585082593402 61.3542100472346 0.0
    vertex 270.096814003184 62.7042100472346 0.0
    vertex 269.827082862422 62.0530214690114 0.0
  endloop
endfacet
facet normal 0.0 0.0 -1.0
  outer loop
    vertex 262.585082593402 61.3542100472346 0.0
    vertex 269.827082862422 62.0530214690114 0.0
    vertex 269.735082593402 61.3542100472346 0.0
  endloop
endfacet
facet normal 0.0 0.0 -1.0
  outer loop
    vertex 271.736271171625 63.9622097782151 0.0
    vertex 278.685082593402 66.3542100472346 0.0
    vertex 272.435082593402 64.0542100472346 0.0
  endloop
endfacet
facet normal 0.0 0.0 -1.0
  outer loop
    vertex 272.435082593402 64.0542100472346 0.0
    vertex 278.685082593402 66.3542100472346 0.0
    vertex 273.133894015179 63.9622097782151 0.0
  endloop
endfacet
facet normal 0.0 0.0 -1.0
  outer loop
    vertex 273.133894015179 63.9622097782151 0.0
    vertex 278.685082593402 66.3542100472346 0.0
    vertex 273.785082593402 63.6924786374526 0.0
  endloop
endfacet
facet normal 0.0 0.0 -1.0
  outer loop
    vertex 273.785082593402 63.6924786374526 0.0
    vertex 278.685082593402 66.3542100472346 0.0
    vertex 274.344270902606 63.2633983564383 0.0
  endloop
endfacet
facet normal 0.0 0.0 -1.0
  outer loop
    vertex 274.344270902606 63.2633983564383 0.0
    vertex 278.685082593402 66.3542100472346 0.0
    vertex 274.77335118362 62.7042100472346 0.0
  endloop
endfacet
facet normal 0.0 0.0 -1.0
  outer loop
    vertex 274.77335118362 62.7042100472346 0.0
    vertex 278.685082593402 66.3542100472346 0.0
    vertex 275.043082324383 62.0530214690114 0.0
  endloop
endfacet
facet normal 0.0 0.0 -1.0
  outer loop
    vertex 275.043082324383 62.0530214690114 0.0
    vertex 278.685082593402 66.3542100472346 0.0
    vertex 275.135082593402 61.3542100472346 0.0
  endloop
endfacet
facet normal 0.0 0.0 -1.0
  outer loop
    vertex 228.685082593402 56.3542100472346 0.0
    vertex 234.935082593402 58.8042100472346 0.0
    vertex 278.685082593402 56.3542100472346 0.0
  endloop
endfacet
facet normal 0.0 0.0 -1.0
  outer loop
    vertex 234.935082593402 58.8042100472346 0.0
    vertex 228.685082593402 56.3542100472346 0.0
    vertex 234.275094028391 58.8910991901975 0.0
  endloop
endfacet
facet normal 0.0 0.0 -1.0
  outer loop
    vertex 234.275094028391 58.8910991901975 0.0
    vertex 228.685082593402 56.3542100472346 0.0
    vertex 233.660082593402 59.1458452675843 0.0
  endloop
endfacet
facet normal 0.0 0.0 -1.0
  outer loop
    vertex 233.660082593402 59.1458452675843 0.0
    vertex 228.685082593402 56.3542100472346 0.0
    vertex 233.131960301376 59.5510877552089 0.0
  endloop
endfacet
facet normal 0.0 0.0 -1.0
  outer loop
    vertex 233.131960301376 59.5510877552089 0.0
    vertex 228.685082593402 56.3542100472346 0.0
    vertex 232.726717813752 60.0792100472346 0.0
  endloop
endfacet
facet normal 0.0 0.0 -1.0
  outer loop
    vertex 232.726717813752 60.0792100472346 0.0
    vertex 228.685082593402 56.3542100472346 0.0
    vertex 232.471971736365 60.6942214822232 0.0
  endloop
endfacet
facet normal 0.0 0.0 -1.0
  outer loop
    vertex 232.471971736365 60.6942214822232 0.0
    vertex 228.685082593402 56.3542100472346 0.0
    vertex 232.385082593402 61.3542100472346 0.0
  endloop
endfacet
facet normal 0.0 0.0 -1.0
  outer loop
    vertex 278.685082593402 56.3542100472346 0.0
    vertex 234.935082593402 58.8042100472346 0.0
    vertex 235.595071158414 58.8910991901975 0.0
  endloop
endfacet
facet normal 0.0 0.0 -1.0
  outer loop
    vertex 278.685082593402 56.3542100472346 0.0
    vertex 235.595071158414 58.8910991901975 0.0
    vertex 236.210082593402 59.1458452675843 0.0
  endloop
endfacet
facet normal 0.0 0.0 -1.0
  outer loop
    vertex 278.685082593402 56.3542100472346 0.0
    vertex 236.210082593402 59.1458452675843 0.0
    vertex 236.738204885428 59.5510877552089 0.0
  endloop
endfacet
facet normal 0.0 0.0 -1.0
  outer loop
    vertex 278.685082593402 56.3542100472346 0.0
    vertex 236.738204885428 59.5510877552089 0.0
    vertex 247.435082593402 58.7542100472346 2.50463337407671e-030
  endloop
endfacet
facet normal 0.0 0.0 -1.0
  outer loop
    vertex 247.435082593402 58.7542100472346 2.50463337407671e-030
    vertex 236.738204885428 59.5510877552089 0.0
    vertex 237.143447373052 60.0792100472346 0.0
  endloop
endfacet
facet normal 0.0 0.0 -1.0
  outer loop
    vertex 247.435082593402 58.7542100472346 2.50463337407671e-030
    vertex 237.143447373052 60.0792100472346 0.0
    vertex 246.762153076136 58.8428028988831 2.50463337407671e-030
  endloop
endfacet
facet normal 0.0 0.0 -1.0
  outer loop
    vertex 246.762153076136 58.8428028988831 2.50463337407671e-030
    vertex 237.143447373052 60.0792100472346 0.0
    vertex 237.398193450439 60.6942214822232 0.0
  endloop
endfacet
facet normal 0.0 0.0 -1.0
  outer loop
    vertex 246.762153076136 58.8428028988831 2.50463337407671e-030
    vertex 237.398193450439 60.6942214822232 0.0
    vertex 237.485082593402 61.3542100472346 0.0
  endloop
endfacet
facet normal 0.0 0.0 -1.0
  outer loop
    vertex 246.762153076136 58.8428028988831 2.50463337407671e-030
    vertex 237.485082593402 61.3542100472346 0.0
    vertex 246.135082593402 59.1025439973951 2.50463337407671e-030
  endloop
endfacet
facet normal 0.0 0.0 -1.0
  outer loop
    vertex 246.135082593402 59.1025439973951 2.50463337407671e-030
    vertex 237.485082593402 61.3542100472346 0.0
    vertex 245.596604962317 59.5157324161496 2.50463337407671e-030
  endloop
endfacet
facet normal 0.0 0.0 -1.0
  outer loop
    vertex 245.596604962317 59.5157324161496 2.50463337407671e-030
    vertex 237.485082593402 61.3542100472346 0.0
    vertex 245.183416543563 60.0542100472346 2.50463337407671e-030
  endloop
endfacet
facet normal 0.0 0.0 -1.0
  outer loop
    vertex 245.183416543563 60.0542100472346 2.50463337407671e-030
    vertex 237.485082593402 61.3542100472346 0.0
    vertex 244.92367544505 60.6812805299681 2.50463337407671e-030
  endloop
endfacet
facet normal 0.0 0.0 -1.0
  outer loop
    vertex 244.92367544505 60.6812805299681 2.50463337407671e-030
    vertex 237.485082593402 61.3542100472346 0.0
    vertex 244.835082593402 61.3542100472346 2.50463337407671e-030
  endloop
endfacet
facet normal 0.0 0.0 -1.0
  outer loop
    vertex 278.685082593402 56.3542100472346 0.0
    vertex 247.435082593402 58.7542100472346 2.50463337407671e-030
    vertex 248.108012110669 58.8428028988831 2.50463337407671e-030
  endloop
endfacet
facet normal 0.0 0.0 -1.0
  outer loop
    vertex 278.685082593402 56.3542100472346 0.0
    vertex 248.108012110669 58.8428028988831 2.50463337407671e-030
    vertex 248.735082593402 59.1025439973951 2.50463337407671e-030
  endloop
endfacet
facet normal 0.0 0.0 -1.0
  outer loop
    vertex 278.685082593402 56.3542100472346 0.0
    vertex 248.735082593402 59.1025439973951 2.50463337407671e-030
    vertex 249.273560224487 59.5157324161496 2.50463337407671e-030
  endloop
endfacet
facet normal 0.0 0.0 -1.0
  outer loop
    vertex 278.685082593402 56.3542100472346 0.0
    vertex 249.273560224487 59.5157324161496 2.50463337407671e-030
    vertex 259.935082593402 58.7042100472346 0.0
  endloop
endfacet
facet normal 0.0 0.0 -1.0
  outer loop
    vertex 259.935082593402 58.7042100472346 0.0
    vertex 249.273560224487 59.5157324161496 2.50463337407671e-030
    vertex 259.24921212388 58.7945066075686 0.0
  endloop
endfacet
facet normal 0.0 0.0 -1.0
  outer loop
    vertex 259.24921212388 58.7945066075686 0.0
    vertex 249.273560224487 59.5157324161496 2.50463337407671e-030
    vertex 249.686748643242 60.0542100472346 2.50463337407671e-030
  endloop
endfacet
facet normal 0.0 0.0 -1.0
  outer loop
    vertex 259.24921212388 58.7945066075686 0.0
    vertex 249.686748643242 60.0542100472346 2.50463337407671e-030
    vertex 249.946489741754 60.6812805299681 2.50463337407671e-030
  endloop
endfacet
facet normal 0.0 0.0 -1.0
  outer loop
    vertex 259.24921212388 58.7945066075686 0.0
    vertex 249.946489741754 60.6812805299681 2.50463337407671e-030
    vertex 250.035082593402 61.3542100472346 2.50463337407671e-030
  endloop
endfacet
facet normal 0.0 0.0 -1.0
  outer loop
    vertex 259.24921212388 58.7945066075686 0.0
    vertex 250.035082593402 61.3542100472346 2.50463337407671e-030
    vertex 258.610082593402 59.0592427272059 0.0
  endloop
endfacet
facet normal 0.0 0.0 -1.0
  outer loop
    vertex 258.610082593402 59.0592427272059 0.0
    vertex 250.035082593402 61.3542100472346 2.50463337407671e-030
    vertex 258.061249623258 59.4803770770903 0.0
  endloop
endfacet
facet normal 0.0 0.0 -1.0
  outer loop
    vertex 258.061249623258 59.4803770770903 0.0
    vertex 250.035082593402 61.3542100472346 2.50463337407671e-030
    vertex 257.640115273373 60.0292100472346 0.0
  endloop
endfacet
facet normal 0.0 0.0 -1.0
  outer loop
    vertex 257.640115273373 60.0292100472346 0.0
    vertex 250.035082593402 61.3542100472346 2.50463337407671e-030
    vertex 257.375379153736 60.6683395777129 0.0
  endloop
endfacet
facet normal 0.0 0.0 -1.0
  outer loop
    vertex 257.375379153736 60.6683395777129 0.0
    vertex 250.035082593402 61.3542100472346 2.50463337407671e-030
    vertex 257.285082593402 61.3542100472346 0.0
  endloop
endfacet
facet normal 0.0 0.0 -1.0
  outer loop
    vertex 278.685082593402 56.3542100472346 0.0
    vertex 259.935082593402 58.7042100472346 0.0
    vertex 260.620953062924 58.7945066075686 0.0
  endloop
endfacet
facet normal 0.0 0.0 -1.0
  outer loop
    vertex 278.685082593402 56.3542100472346 0.0
    vertex 260.620953062924 58.7945066075686 0.0
    vertex 261.260082593402 59.0592427272059 0.0
  endloop
endfacet
facet normal 0.0 0.0 -1.0
  outer loop
    vertex 278.685082593402 56.3542100472346 0.0
    vertex 261.260082593402 59.0592427272059 0.0
    vertex 261.808915563546 59.4803770770903 0.0
  endloop
endfacet
facet normal 0.0 0.0 -1.0
  outer loop
    vertex 278.685082593402 56.3542100472346 0.0
    vertex 261.808915563546 59.4803770770903 0.0
    vertex 262.230049913431 60.0292100472346 0.0
  endloop
endfacet
facet normal 0.0 0.0 -1.0
  outer loop
    vertex 278.685082593402 56.3542100472346 0.0
    vertex 262.230049913431 60.0292100472346 0.0
    vertex 262.494786033068 60.6683395777129 0.0
  endloop
endfacet
facet normal 0.0 0.0 -1.0
  outer loop
    vertex 278.685082593402 56.3542100472346 0.0
    vertex 262.494786033068 60.6683395777129 0.0
    vertex 262.585082593402 61.3542100472346 0.0
  endloop
endfacet
facet normal 0.0 0.0 -1.0
  outer loop
    vertex 278.685082593402 56.3542100472346 0.0
    vertex 262.585082593402 61.3542100472346 0.0
    vertex 271.736271171625 58.7462103162541 0.0
  endloop
endfacet
facet normal 0.0 0.0 -1.0
  outer loop
    vertex 271.736271171625 58.7462103162541 0.0
    vertex 262.585082593402 61.3542100472346 0.0
    vertex 271.085082593402 59.0159414570166 0.0
  endloop
endfacet
facet normal 0.0 0.0 -1.0
  outer loop
    vertex 271.085082593402 59.0159414570166 0.0
    vertex 262.585082593402 61.3542100472346 0.0
    vertex 270.525894284198 59.4450217380309 0.0
  endloop
endfacet
facet normal 0.0 0.0 -1.0
  outer loop
    vertex 270.525894284198 59.4450217380309 0.0
    vertex 262.585082593402 61.3542100472346 0.0
    vertex 270.096814003184 60.0042100472346 0.0
  endloop
endfacet
facet normal 0.0 0.0 -1.0
  outer loop
    vertex 270.096814003184 60.0042100472346 0.0
    vertex 262.585082593402 61.3542100472346 0.0
    vertex 269.827082862422 60.6553986254578 0.0
  endloop
endfacet
facet normal 0.0 0.0 -1.0
  outer loop
    vertex 269.827082862422 60.6553986254578 0.0
    vertex 262.585082593402 61.3542100472346 0.0
    vertex 269.735082593402 61.3542100472346 0.0
  endloop
endfacet
facet normal 0.0 0.0 -1.0
  outer loop
    vertex 278.685082593402 56.3542100472346 0.0
    vertex 271.736271171625 58.7462103162541 0.0
    vertex 272.435082593402 58.6542100472346 0.0
  endloop
endfacet
facet normal 0.0 0.0 -1.0
  outer loop
    vertex 278.685082593402 56.3542100472346 0.0
    vertex 272.435082593402 58.6542100472346 0.0
    vertex 273.133894015179 58.7462103162541 0.0
  endloop
endfacet
facet normal 0.0 0.0 -1.0
  outer loop
    vertex 278.685082593402 56.3542100472346 0.0
    vertex 273.133894015179 58.7462103162541 0.0
    vertex 273.785082593402 59.0159414570166 0.0
  endloop
endfacet
facet normal 0.0 0.0 -1.0
  outer loop
    vertex 278.685082593402 56.3542100472346 0.0
    vertex 273.785082593402 59.0159414570166 0.0
    vertex 274.344270902606 59.4450217380309 0.0
  endloop
endfacet
facet normal 0.0 0.0 -1.0
  outer loop
    vertex 278.685082593402 56.3542100472346 0.0
    vertex 274.344270902606 59.4450217380309 0.0
    vertex 274.77335118362 60.0042100472346 0.0
  endloop
endfacet
facet normal 0.0 0.0 -1.0
  outer loop
    vertex 278.685082593402 56.3542100472346 0.0
    vertex 274.77335118362 60.0042100472346 0.0
    vertex 275.043082324383 60.6553986254578 0.0
  endloop
endfacet
facet normal 0.0 0.0 -1.0
  outer loop
    vertex 278.685082593402 56.3542100472346 0.0
    vertex 275.043082324383 60.6553986254578 0.0
    vertex 275.135082593402 61.3542100472346 0.0
  endloop
endfacet
facet normal 0.0 0.0 -1.0
  outer loop
    vertex 278.685082593402 56.3542100472346 0.0
    vertex 275.135082593402 61.3542100472346 0.0
    vertex 278.685082593402 66.3542100472346 0.0
  endloop
endfacet
facet normal -0.577350269189626 0.577350269189626 0.577350269189625
  outer loop
    vertex 228.685082593402 66.3542100472346 3.0
    vertex 228.685082593402 64.3542100472346 5.0
    vertex 230.685082593402 66.3542100472346 5.0
  endloop
endfacet
facet normal 0.923879532511282 0.382683432365101 0.0
  outer loop
    vertex 244.92367544505 60.6812805299681 2.50463337407671e-030
    vertex 245.183416543563 60.0542100472346 5.0
    vertex 245.183416543563 60.0542100472346 2.50463337407671e-030
  endloop
endfacet
facet normal 0.923879532511282 0.382683432365101 0.0
  outer loop
    vertex 245.183416543563 60.0542100472346 5.0
    vertex 244.92367544505 60.6812805299681 2.50463337407671e-030
    vertex 244.92367544505 60.6812805299681 5.0
  endloop
endfacet
facet normal 0.793353340291247 0.608761429008706 0.0
  outer loop
    vertex 245.183416543563 60.0542100472346 2.50463337407671e-030
    vertex 245.596604962317 59.5157324161496 5.0
    vertex 245.596604962317 59.5157324161496 2.50463337407671e-030
  endloop
endfacet
facet normal 0.793353340291247 0.608761429008706 0.0
  outer loop
    vertex 245.596604962317 59.5157324161496 5.0
    vertex 245.183416543563 60.0542100472346 2.50463337407671e-030
    vertex 245.183416543563 60.0542100472346 5.0
  endloop
endfacet
facet normal 0.608761429008743 0.793353340291219 0.0
  outer loop
    vertex 245.596604962317 59.5157324161496 5.0
    vertex 246.135082593402 59.1025439973951 2.50463337407671e-030
    vertex 245.596604962317 59.5157324161496 2.50463337407671e-030
  endloop
endfacet
facet normal 0.608761429008743 0.793353340291219 0.0
  outer loop
    vertex 246.135082593402 59.1025439973951 2.50463337407671e-030
    vertex 245.596604962317 59.5157324161496 5.0
    vertex 246.135082593402 59.1025439973951 5.0
  endloop
endfacet
facet normal 0.382683432365069 0.923879532511296 0.0
  outer loop
    vertex 246.135082593402 59.1025439973951 5.0
    vertex 246.762153076136 58.8428028988831 2.50463337407671e-030
    vertex 246.135082593402 59.1025439973951 2.50463337407671e-030
  endloop
endfacet
facet normal 0.382683432365069 0.923879532511296 0.0
  outer loop
    vertex 246.762153076136 58.8428028988831 2.50463337407671e-030
    vertex 246.135082593402 59.1025439973951 5.0
    vertex 246.762153076136 58.8428028988831 5.0
  endloop
endfacet
facet normal 0.130526192220068 0.991444861373808 0.0
  outer loop
    vertex 246.762153076136 58.8428028988831 5.0
    vertex 247.435082593402 58.7542100472346 2.50463337407671e-030
    vertex 246.762153076136 58.8428028988831 2.50463337407671e-030
  endloop
endfacet
facet normal 0.130526192220068 0.991444861373808 0.0
  outer loop
    vertex 247.435082593402 58.7542100472346 2.50463337407671e-030
    vertex 246.762153076136 58.8428028988831 5.0
    vertex 247.435082593402 58.7542100472346 5.0
  endloop
endfacet
facet normal -0.130526192220068 0.991444861373808 0.0
  outer loop
    vertex 247.435082593402 58.7542100472346 5.0
    vertex 248.108012110669 58.8428028988831 2.50463337407671e-030
    vertex 247.435082593402 58.7542100472346 2.50463337407671e-030
  endloop
endfacet
facet normal -0.130526192220068 0.991444861373808 0.0
  outer loop
    vertex 248.108012110669 58.8428028988831 2.50463337407671e-030
    vertex 247.435082593402 58.7542100472346 5.0
    vertex 248.108012110669 58.8428028988831 5.0
  endloop
endfacet
facet normal -0.382683432365092 0.923879532511286 0.0
  outer loop
    vertex 248.108012110669 58.8428028988831 5.0
    vertex 248.735082593402 59.1025439973951 2.50463337407671e-030
    vertex 248.108012110669 58.8428028988831 2.50463337407671e-030
  endloop
endfacet
facet normal -0.382683432365092 0.923879532511286 0.0
  outer loop
    vertex 248.735082593402 59.1025439973951 2.50463337407671e-030
    vertex 248.108012110669 58.8428028988831 5.0
    vertex 248.735082593402 59.1025439973951 5.0
  endloop
endfacet
facet normal -0.60876142900871 0.793353340291243 0.0
  outer loop
    vertex 248.735082593402 59.1025439973951 5.0
    vertex 249.273560224487 59.5157324161496 2.50463337407671e-030
    vertex 248.735082593402 59.1025439973951 2.50463337407671e-030
  endloop
endfacet
facet normal -0.60876142900871 0.793353340291243 0.0
  outer loop
    vertex 249.273560224487 59.5157324161496 2.50463337407671e-030
    vertex 248.735082593402 59.1025439973951 5.0
    vertex 249.273560224487 59.5157324161496 5.0
  endloop
endfacet
facet normal -0.793353340291247 0.608761429008706 0.0
  outer loop
    vertex 249.686748643242 60.0542100472346 5.0
    vertex 249.273560224487 59.5157324161496 2.50463337407671e-030
    vertex 249.273560224487 59.5157324161496 5.0
  endloop
endfacet
facet normal -0.793353340291247 0.608761429008706 0.0
  outer loop
    vertex 249.273560224487 59.5157324161496 2.50463337407671e-030
    vertex 249.686748643242 60.0542100472346 5.0
    vertex 249.686748643242 60.0542100472346 2.50463337407671e-030
  endloop
endfacet
facet normal -0.923879532511282 0.382683432365101 0.0
  outer loop
    vertex 249.946489741754 60.6812805299681 5.0
    vertex 249.686748643242 60.0542100472346 2.50463337407671e-030
    vertex 249.686748643242 60.0542100472346 5.0
  endloop
endfacet
facet normal -0.923879532511282 0.382683432365101 0.0
  outer loop
    vertex 249.686748643242 60.0542100472346 2.50463337407671e-030
    vertex 249.946489741754 60.6812805299681 5.0
    vertex 249.946489741754 60.6812805299681 2.50463337407671e-030
  endloop
endfacet
facet normal -0.991444861373808 0.130526192220066 0.0
  outer loop
    vertex 250.035082593402 61.3542100472346 5.0
    vertex 249.946489741754 60.6812805299681 2.50463337407671e-030
    vertex 249.946489741754 60.6812805299681 5.0
  endloop
endfacet
facet normal -0.991444861373808 0.130526192220066 0.0
  outer loop
    vertex 249.946489741754 60.6812805299681 2.50463337407671e-030
    vertex 250.035082593402 61.3542100472346 5.0
    vertex 250.035082593402 61.3542100472346 2.50463337407671e-030
  endloop
endfacet
facet normal -0.991444861373808 -0.130526192220066 -0.0
  outer loop
    vertex 249.946489741754 62.0271395645012 5.0
    vertex 250.035082593402 61.3542100472346 2.50463337407671e-030
    vertex 250.035082593402 61.3542100472346 5.0
  endloop
endfacet
facet normal -0.991444861373808 -0.130526192220066 -0.0
  outer loop
    vertex 250.035082593402 61.3542100472346 2.50463337407671e-030
    vertex 249.946489741754 62.0271395645012 5.0
    vertex 249.946489741754 62.0271395645012 2.50463337407671e-030
  endloop
endfacet
facet normal -0.923879532511282 -0.382683432365101 -0.0
  outer loop
    vertex 249.686748643242 62.6542100472346 5.0
    vertex 249.946489741754 62.0271395645012 2.50463337407671e-030
    vertex 249.946489741754 62.0271395645012 5.0
  endloop
endfacet
facet normal -0.923879532511282 -0.382683432365101 -0.0
  outer loop
    vertex 249.946489741754 62.0271395645012 2.50463337407671e-030
    vertex 249.686748643242 62.6542100472346 5.0
    vertex 249.686748643242 62.6542100472346 2.50463337407671e-030
  endloop
endfacet
facet normal -0.793353340291247 -0.608761429008706 -0.0
  outer loop
    vertex 249.273560224487 63.1926876783197 5.0
    vertex 249.686748643242 62.6542100472346 2.50463337407671e-030
    vertex 249.686748643242 62.6542100472346 5.0
  endloop
endfacet
facet normal -0.793353340291247 -0.608761429008706 -0.0
  outer loop
    vertex 249.686748643242 62.6542100472346 2.50463337407671e-030
    vertex 249.273560224487 63.1926876783197 5.0
    vertex 249.273560224487 63.1926876783197 2.50463337407671e-030
  endloop
endfacet
facet normal -0.608761429008743 -0.793353340291219 -0.0
  outer loop
    vertex 249.273560224487 63.1926876783197 5.0
    vertex 248.735082593402 63.6058760970742 2.50463337407671e-030
    vertex 249.273560224487 63.1926876783197 2.50463337407671e-030
  endloop
endfacet
facet normal -0.608761429008743 -0.793353340291219 -0.0
  outer loop
    vertex 248.735082593402 63.6058760970742 2.50463337407671e-030
    vertex 249.273560224487 63.1926876783197 5.0
    vertex 248.735082593402 63.6058760970742 5.0
  endloop
endfacet
facet normal -0.382683432365069 -0.923879532511296 -0.0
  outer loop
    vertex 248.735082593402 63.6058760970742 5.0
    vertex 248.108012110669 63.8656171955862 2.50463337407671e-030
    vertex 248.735082593402 63.6058760970742 2.50463337407671e-030
  endloop
endfacet
facet normal -0.382683432365069 -0.923879532511296 -0.0
  outer loop
    vertex 248.108012110669 63.8656171955862 2.50463337407671e-030
    vertex 248.735082593402 63.6058760970742 5.0
    vertex 248.108012110669 63.8656171955862 5.0
  endloop
endfacet
facet normal 0.130526192220057 0.99144486137381 0.0
  outer loop
    vertex 259.24921212388 58.7945066075686 5.0
    vertex 259.935082593402 58.7042100472346 0.0
    vertex 259.24921212388 58.7945066075686 0.0
  endloop
endfacet
facet normal 0.130526192220057 0.99144486137381 0.0
  outer loop
    vertex 259.935082593402 58.7042100472346 0.0
    vertex 259.24921212388 58.7945066075686 5.0
    vertex 259.935082593402 58.7042100472346 5.0
  endloop
endfacet
facet normal -0.130526192220057 0.99144486137381 0.0
  outer loop
    vertex 259.935082593402 58.7042100472346 5.0
    vertex 260.620953062924 58.7945066075686 0.0
    vertex 259.935082593402 58.7042100472346 0.0
  endloop
endfacet
facet normal -0.130526192220057 0.99144486137381 0.0
  outer loop
    vertex 260.620953062924 58.7945066075686 0.0
    vertex 259.935082593402 58.7042100472346 5.0
    vertex 260.620953062924 58.7945066075686 5.0
  endloop
endfacet
facet normal -0.382683432365074 0.923879532511294 0.0
  outer loop
    vertex 260.620953062924 58.7945066075686 5.0
    vertex 261.260082593402 59.0592427272059 0.0
    vertex 260.620953062924 58.7945066075686 0.0
  endloop
endfacet
facet normal -0.382683432365074 0.923879532511294 0.0
  outer loop
    vertex 261.260082593402 59.0592427272059 0.0
    vertex 260.620953062924 58.7945066075686 5.0
    vertex 261.260082593402 59.0592427272059 5.0
  endloop
endfacet
facet normal -0.608761429008739 0.793353340291222 0.0
  outer loop
    vertex 261.260082593402 59.0592427272059 5.0
    vertex 261.808915563546 59.4803770770903 0.0
    vertex 261.260082593402 59.0592427272059 0.0
  endloop
endfacet
facet normal -0.608761429008739 0.793353340291222 0.0
  outer loop
    vertex 261.808915563546 59.4803770770903 0.0
    vertex 261.260082593402 59.0592427272059 5.0
    vertex 261.808915563546 59.4803770770903 5.0
  endloop
endfacet
facet normal -0.793353340291232 0.608761429008725 0.0
  outer loop
    vertex 262.230049913431 60.0292100472346 5.0
    vertex 261.808915563546 59.4803770770903 0.0
    vertex 261.808915563546 59.4803770770903 5.0
  endloop
endfacet
facet normal -0.793353340291232 0.608761429008725 0.0
  outer loop
    vertex 261.808915563546 59.4803770770903 0.0
    vertex 262.230049913431 60.0292100472346 5.0
    vertex 262.230049913431 60.0292100472346 0.0
  endloop
endfacet
facet normal -0.923879532511271 0.382683432365127 0.0
  outer loop
    vertex 262.494786033068 60.6683395777129 5.0
    vertex 262.230049913431 60.0292100472346 0.0
    vertex 262.230049913431 60.0292100472346 5.0
  endloop
endfacet
facet normal -0.923879532511271 0.382683432365127 0.0
  outer loop
    vertex 262.230049913431 60.0292100472346 0.0
    vertex 262.494786033068 60.6683395777129 5.0
    vertex 262.494786033068 60.6683395777129 0.0
  endloop
endfacet
facet normal -0.0 -0.0 1.0
  outer loop
    vertex 228.685082593402 56.3542100472346 5.0
    vertex 233.131960301376 59.5510877552089 5.0
    vertex 228.685082593402 64.3542100472346 5.0
  endloop
endfacet
facet normal -0.0 -0.0 1.0
  outer loop
    vertex 233.131960301376 59.5510877552089 5.0
    vertex 228.685082593402 56.3542100472346 5.0
    vertex 233.660082593402 59.1458452675843 5.0
  endloop
endfacet
facet normal -0.0 -0.0 1.0
  outer loop
    vertex 233.660082593402 59.1458452675843 5.0
    vertex 228.685082593402 56.3542100472346 5.0
    vertex 234.275094028391 58.8910991901975 5.0
  endloop
endfacet
facet normal -0.0 -0.0 1.0
  outer loop
    vertex 234.275094028391 58.8910991901975 5.0
    vertex 228.685082593402 56.3542100472346 5.0
    vertex 234.935082593402 58.8042100472346 5.0
  endloop
endfacet
facet normal -0.0 -0.0 1.0
  outer loop
    vertex 234.935082593402 58.8042100472346 5.0
    vertex 228.685082593402 56.3542100472346 5.0
    vertex 278.685082593402 56.3542100472346 5.0
  endloop
endfacet
facet normal -0.0 -0.0 1.0
  outer loop
    vertex 228.685082593402 64.3542100472346 5.0
    vertex 233.131960301376 59.5510877552089 5.0
    vertex 232.726717813752 60.0792100472346 5.0
  endloop
endfacet
facet normal -0.0 -0.0 1.0
  outer loop
    vertex 228.685082593402 64.3542100472346 5.0
    vertex 232.726717813752 60.0792100472346 5.0
    vertex 232.471971736365 60.6942214822232 5.0
  endloop
endfacet
facet normal -0.0 -0.0 1.0
  outer loop
    vertex 228.685082593402 64.3542100472346 5.0
    vertex 232.471971736365 60.6942214822232 5.0
    vertex 230.685082593402 66.3542100472346 5.0
  endloop
endfacet
facet normal -0.0 -0.0 1.0
  outer loop
    vertex 230.685082593402 66.3542100472346 5.0
    vertex 232.471971736365 60.6942214822232 5.0
    vertex 232.385082593402 61.3542100472346 5.0
  endloop
endfacet
facet normal -0.0 -0.0 1.0
  outer loop
    vertex 234.935082593402 58.8042100472346 5.0
    vertex 278.685082593402 56.3542100472346 5.0
    vertex 235.595071158414 58.8910991901975 5.0
  endloop
endfacet
facet normal -0.0 -0.0 1.0
  outer loop
    vertex 235.595071158414 58.8910991901975 5.0
    vertex 278.685082593402 56.3542100472346 5.0
    vertex 236.210082593402 59.1458452675843 5.0
  endloop
endfacet
facet normal -0.0 -0.0 1.0
  outer loop
    vertex 236.210082593402 59.1458452675843 5.0
    vertex 278.685082593402 56.3542100472346 5.0
    vertex 236.738204885428 59.5510877552089 5.0
  endloop
endfacet
facet normal -0.0 -0.0 1.0
  outer loop
    vertex 236.738204885428 59.5510877552089 5.0
    vertex 278.685082593402 56.3542100472346 5.0
    vertex 247.435082593402 58.7542100472346 5.0
  endloop
endfacet
facet normal -0.0 -0.0 1.0
  outer loop
    vertex 236.738204885428 59.5510877552089 5.0
    vertex 247.435082593402 58.7542100472346 5.0
    vertex 237.143447373052 60.0792100472346 5.0
  endloop
endfacet
facet normal -0.0 -0.0 1.0
  outer loop
    vertex 237.143447373052 60.0792100472346 5.0
    vertex 247.435082593402 58.7542100472346 5.0
    vertex 246.762153076136 58.8428028988831 5.0
  endloop
endfacet
facet normal -0.0 -0.0 1.0
  outer loop
    vertex 237.143447373052 60.0792100472346 5.0
    vertex 246.762153076136 58.8428028988831 5.0
    vertex 237.398193450439 60.6942214822232 5.0
  endloop
endfacet
facet normal -0.0 -0.0 1.0
  outer loop
    vertex 237.398193450439 60.6942214822232 5.0
    vertex 246.762153076136 58.8428028988831 5.0
    vertex 237.485082593402 61.3542100472346 5.0
  endloop
endfacet
facet normal -0.0 -0.0 1.0
  outer loop
    vertex 237.485082593402 61.3542100472346 5.0
    vertex 246.762153076136 58.8428028988831 5.0
    vertex 246.135082593402 59.1025439973951 5.0
  endloop
endfacet
facet normal -0.0 -0.0 1.0
  outer loop
    vertex 237.485082593402 61.3542100472346 5.0
    vertex 246.135082593402 59.1025439973951 5.0
    vertex 245.596604962317 59.5157324161496 5.0
  endloop
endfacet
facet normal -0.0 -0.0 1.0
  outer loop
    vertex 237.485082593402 61.3542100472346 5.0
    vertex 245.596604962317 59.5157324161496 5.0
    vertex 245.183416543563 60.0542100472346 5.0
  endloop
endfacet
facet normal -0.0 -0.0 1.0
  outer loop
    vertex 237.485082593402 61.3542100472346 5.0
    vertex 245.183416543563 60.0542100472346 5.0
    vertex 244.92367544505 60.6812805299681 5.0
  endloop
endfacet
facet normal -0.0 -0.0 1.0
  outer loop
    vertex 237.485082593402 61.3542100472346 5.0
    vertex 244.92367544505 60.6812805299681 5.0
    vertex 244.835082593402 61.3542100472346 5.0
  endloop
endfacet
facet normal -0.0 -0.0 1.0
  outer loop
    vertex 247.435082593402 58.7542100472346 5.0
    vertex 278.685082593402 56.3542100472346 5.0
    vertex 248.108012110669 58.8428028988831 5.0
  endloop
endfacet
facet normal -0.0 -0.0 1.0
  outer loop
    vertex 248.108012110669 58.8428028988831 5.0
    vertex 278.685082593402 56.3542100472346 5.0
    vertex 248.735082593402 59.1025439973951 5.0
  endloop
endfacet
facet normal -0.0 -0.0 1.0
  outer loop
    vertex 248.735082593402 59.1025439973951 5.0
    vertex 278.685082593402 56.3542100472346 5.0
    vertex 249.273560224487 59.5157324161496 5.0
  endloop
endfacet
facet normal -0.0 -0.0 1.0
  outer loop
    vertex 249.273560224487 59.5157324161496 5.0
    vertex 278.685082593402 56.3542100472346 5.0
    vertex 259.935082593402 58.7042100472346 5.0
  endloop
endfacet
facet normal -0.0 -0.0 1.0
  outer loop
    vertex 249.273560224487 59.5157324161496 5.0
    vertex 259.935082593402 58.7042100472346 5.0
    vertex 259.24921212388 58.7945066075686 5.0
  endloop
endfacet
facet normal -0.0 -0.0 1.0
  outer loop
    vertex 249.273560224487 59.5157324161496 5.0
    vertex 259.24921212388 58.7945066075686 5.0
    vertex 249.686748643242 60.0542100472346 5.0
  endloop
endfacet
facet normal -0.0 -0.0 1.0
  outer loop
    vertex 249.686748643242 60.0542100472346 5.0
    vertex 259.24921212388 58.7945066075686 5.0
    vertex 249.946489741754 60.6812805299681 5.0
  endloop
endfacet
facet normal -0.0 -0.0 1.0
  outer loop
    vertex 249.946489741754 60.6812805299681 5.0
    vertex 259.24921212388 58.7945066075686 5.0
    vertex 250.035082593402 61.3542100472346 5.0
  endloop
endfacet
facet normal -0.0 -0.0 1.0
  outer loop
    vertex 250.035082593402 61.3542100472346 5.0
    vertex 259.24921212388 58.7945066075686 5.0
    vertex 258.610082593402 59.0592427272059 5.0
  endloop
endfacet
facet normal -0.0 -0.0 1.0
  outer loop
    vertex 250.035082593402 61.3542100472346 5.0
    vertex 258.610082593402 59.0592427272059 5.0
    vertex 258.061249623258 59.4803770770903 5.0
  endloop
endfacet
facet normal -0.0 -0.0 1.0
  outer loop
    vertex 250.035082593402 61.3542100472346 5.0
    vertex 258.061249623258 59.4803770770903 5.0
    vertex 257.640115273373 60.0292100472346 5.0
  endloop
endfacet
facet normal -0.0 -0.0 1.0
  outer loop
    vertex 250.035082593402 61.3542100472346 5.0
    vertex 257.640115273373 60.0292100472346 5.0
    vertex 257.375379153736 60.6683395777129 5.0
  endloop
endfacet
facet normal -0.0 -0.0 1.0
  outer loop
    vertex 250.035082593402 61.3542100472346 5.0
    vertex 257.375379153736 60.6683395777129 5.0
    vertex 257.285082593402 61.3542100472346 5.0
  endloop
endfacet
facet normal -0.0 -0.0 1.0
  outer loop
    vertex 259.935082593402 58.7042100472346 5.0
    vertex 278.685082593402 56.3542100472346 5.0
    vertex 260.620953062924 58.7945066075686 5.0
  endloop
endfacet
facet normal -0.0 -0.0 1.0
  outer loop
    vertex 260.620953062924 58.7945066075686 5.0
    vertex 278.685082593402 56.3542100472346 5.0
    vertex 261.260082593402 59.0592427272059 5.0
  endloop
endfacet
facet normal -0.0 -0.0 1.0
  outer loop
    vertex 261.260082593402 59.0592427272059 5.0
    vertex 278.685082593402 56.3542100472346 5.0
    vertex 261.808915563546 59.4803770770903 5.0
  endloop
endfacet
facet normal -0.0 -0.0 1.0
  outer loop
    vertex 261.808915563546 59.4803770770903 5.0
    vertex 278.685082593402 56.3542100472346 5.0
    vertex 262.230049913431 60.0292100472346 5.0
  endloop
endfacet
facet normal -0.0 -0.0 1.0
  outer loop
    vertex 262.230049913431 60.0292100472346 5.0
    vertex 278.685082593402 56.3542100472346 5.0
    vertex 262.494786033068 60.6683395777129 5.0
  endloop
endfacet
facet normal -0.0 -0.0 1.0
  outer loop
    vertex 262.494786033068 60.6683395777129 5.0
    vertex 278.685082593402 56.3542100472346 5.0
    vertex 262.585082593402 61.3542100472346 5.0
  endloop
endfacet
facet normal -0.0 -0.0 1.0
  outer loop
    vertex 262.585082593402 61.3542100472346 5.0
    vertex 278.685082593402 56.3542100472346 5.0
    vertex 271.736271171625 58.7462103162541 5.0
  endloop
endfacet
facet normal -0.0 -0.0 1.0
  outer loop
    vertex 262.585082593402 61.3542100472346 5.0
    vertex 271.736271171625 58.7462103162541 5.0
    vertex 271.085082593402 59.0159414570166 5.0
  endloop
endfacet
facet normal -0.0 -0.0 1.0
  outer loop
    vertex 262.585082593402 61.3542100472346 5.0
    vertex 271.085082593402 59.0159414570166 5.0
    vertex 270.525894284198 59.4450217380309 5.0
  endloop
endfacet
facet normal -0.0 -0.0 1.0
  outer loop
    vertex 262.585082593402 61.3542100472346 5.0
    vertex 270.525894284198 59.4450217380309 5.0
    vertex 270.096814003184 60.0042100472346 5.0
  endloop
endfacet
facet normal -0.0 -0.0 1.0
  outer loop
    vertex 262.585082593402 61.3542100472346 5.0
    vertex 270.096814003184 60.0042100472346 5.0
    vertex 269.827082862422 60.6553986254578 5.0
  endloop
endfacet
facet normal -0.0 -0.0 1.0
  outer loop
    vertex 262.585082593402 61.3542100472346 5.0
    vertex 269.827082862422 60.6553986254578 5.0
    vertex 269.735082593402 61.3542100472346 5.0
  endloop
endfacet
facet normal -0.0 -0.0 1.0
  outer loop
    vertex 271.736271171625 58.7462103162541 5.0
    vertex 278.685082593402 56.3542100472346 5.0
    vertex 272.435082593402 58.6542100472346 5.0
  endloop
endfacet
facet normal -0.0 -0.0 1.0
  outer loop
    vertex 272.435082593402 58.6542100472346 5.0
    vertex 278.685082593402 56.3542100472346 5.0
    vertex 273.133894015179 58.7462103162541 5.0
  endloop
endfacet
facet normal -0.0 -0.0 1.0
  outer loop
    vertex 273.133894015179 58.7462103162541 5.0
    vertex 278.685082593402 56.3542100472346 5.0
    vertex 273.785082593402 59.0159414570166 5.0
  endloop
endfacet
facet normal -0.0 -0.0 1.0
  outer loop
    vertex 273.785082593402 59.0159414570166 5.0
    vertex 278.685082593402 56.3542100472346 5.0
    vertex 274.344270902606 59.4450217380309 5.0
  endloop
endfacet
facet normal -0.0 -0.0 1.0
  outer loop
    vertex 274.344270902606 59.4450217380309 5.0
    vertex 278.685082593402 56.3542100472346 5.0
    vertex 274.77335118362 60.0042100472346 5.0
  endloop
endfacet
facet normal -0.0 -0.0 1.0
  outer loop
    vertex 274.77335118362 60.0042100472346 5.0
    vertex 278.685082593402 56.3542100472346 5.0
    vertex 275.043082324383 60.6553986254578 5.0
  endloop
endfacet
facet normal -0.0 -0.0 1.0
  outer loop
    vertex 275.043082324383 60.6553986254578 5.0
    vertex 278.685082593402 56.3542100472346 5.0
    vertex 275.135082593402 61.3542100472346 5.0
  endloop
endfacet
facet normal -0.0 -0.0 1.0
  outer loop
    vertex 230.685082593402 66.3542100472346 5.0
    vertex 234.935082593402 63.9042100472346 5.0
    vertex 278.685082593402 66.3542100472346 5.0
  endloop
endfacet
facet normal -0.0 -0.0 1.0
  outer loop
    vertex 234.935082593402 63.9042100472346 5.0
    vertex 230.685082593402 66.3542100472346 5.0
    vertex 234.275094028391 63.8173209042717 5.0
  endloop
endfacet
facet normal -0.0 -0.0 1.0
  outer loop
    vertex 234.275094028391 63.8173209042717 5.0
    vertex 230.685082593402 66.3542100472346 5.0
    vertex 233.660082593402 63.5625748268849 5.0
  endloop
endfacet
facet normal -0.0 -0.0 1.0
  outer loop
    vertex 233.660082593402 63.5625748268849 5.0
    vertex 230.685082593402 66.3542100472346 5.0
    vertex 233.131960301376 63.1573323392603 5.0
  endloop
endfacet
facet normal -0.0 -0.0 1.0
  outer loop
    vertex 233.131960301376 63.1573323392603 5.0
    vertex 230.685082593402 66.3542100472346 5.0
    vertex 232.726717813752 62.6292100472346 5.0
  endloop
endfacet
facet normal -0.0 -0.0 1.0
  outer loop
    vertex 232.726717813752 62.6292100472346 5.0
    vertex 230.685082593402 66.3542100472346 5.0
    vertex 232.471971736365 62.014198612246 5.0
  endloop
endfacet
facet normal -0.0 -0.0 1.0
  outer loop
    vertex 232.471971736365 62.014198612246 5.0
    vertex 230.685082593402 66.3542100472346 5.0
    vertex 232.385082593402 61.3542100472346 5.0
  endloop
endfacet
facet normal -0.0 -0.0 1.0
  outer loop
    vertex 278.685082593402 66.3542100472346 5.0
    vertex 234.935082593402 63.9042100472346 5.0
    vertex 235.595071158414 63.8173209042717 5.0
  endloop
endfacet
facet normal -0.0 -0.0 1.0
  outer loop
    vertex 278.685082593402 66.3542100472346 5.0
    vertex 235.595071158414 63.8173209042717 5.0
    vertex 236.210082593402 63.5625748268849 5.0
  endloop
endfacet
facet normal -0.0 -0.0 1.0
  outer loop
    vertex 278.685082593402 66.3542100472346 5.0
    vertex 236.210082593402 63.5625748268849 5.0
    vertex 236.738204885428 63.1573323392603 5.0
  endloop
endfacet
facet normal -0.0 -0.0 1.0
  outer loop
    vertex 278.685082593402 66.3542100472346 5.0
    vertex 236.738204885428 63.1573323392603 5.0
    vertex 247.435082593402 63.9542100472346 5.0
  endloop
endfacet
facet normal -0.0 -0.0 1.0
  outer loop
    vertex 247.435082593402 63.9542100472346 5.0
    vertex 236.738204885428 63.1573323392603 5.0
    vertex 237.143447373052 62.6292100472346 5.0
  endloop
endfacet
facet normal -0.0 -0.0 1.0
  outer loop
    vertex 247.435082593402 63.9542100472346 5.0
    vertex 237.143447373052 62.6292100472346 5.0
    vertex 246.762153076136 63.8656171955862 5.0
  endloop
endfacet
facet normal -0.0 -0.0 1.0
  outer loop
    vertex 246.762153076136 63.8656171955862 5.0
    vertex 237.143447373052 62.6292100472346 5.0
    vertex 237.398193450439 62.014198612246 5.0
  endloop
endfacet
facet normal -0.0 -0.0 1.0
  outer loop
    vertex 246.762153076136 63.8656171955862 5.0
    vertex 237.398193450439 62.014198612246 5.0
    vertex 237.485082593402 61.3542100472346 5.0
  endloop
endfacet
facet normal -0.0 -0.0 1.0
  outer loop
    vertex 246.762153076136 63.8656171955862 5.0
    vertex 237.485082593402 61.3542100472346 5.0
    vertex 246.135082593402 63.6058760970742 5.0
  endloop
endfacet
facet normal -0.0 -0.0 1.0
  outer loop
    vertex 246.135082593402 63.6058760970742 5.0
    vertex 237.485082593402 61.3542100472346 5.0
    vertex 245.596604962317 63.1926876783197 5.0
  endloop
endfacet
facet normal -0.0 -0.0 1.0
  outer loop
    vertex 245.596604962317 63.1926876783197 5.0
    vertex 237.485082593402 61.3542100472346 5.0
    vertex 245.183416543563 62.6542100472346 5.0
  endloop
endfacet
facet normal -0.0 -0.0 1.0
  outer loop
    vertex 245.183416543563 62.6542100472346 5.0
    vertex 237.485082593402 61.3542100472346 5.0
    vertex 244.92367544505 62.0271395645012 5.0
  endloop
endfacet
facet normal -0.0 -0.0 1.0
  outer loop
    vertex 244.92367544505 62.0271395645012 5.0
    vertex 237.485082593402 61.3542100472346 5.0
    vertex 244.835082593402 61.3542100472346 5.0
  endloop
endfacet
facet normal -0.0 -0.0 1.0
  outer loop
    vertex 278.685082593402 66.3542100472346 5.0
    vertex 247.435082593402 63.9542100472346 5.0
    vertex 248.108012110669 63.8656171955862 5.0
  endloop
endfacet
facet normal -0.0 -0.0 1.0
  outer loop
    vertex 278.685082593402 66.3542100472346 5.0
    vertex 248.108012110669 63.8656171955862 5.0
    vertex 248.735082593402 63.6058760970742 5.0
  endloop
endfacet
facet normal -0.0 -0.0 1.0
  outer loop
    vertex 278.685082593402 66.3542100472346 5.0
    vertex 248.735082593402 63.6058760970742 5.0
    vertex 249.273560224487 63.1926876783197 5.0
  endloop
endfacet
facet normal -0.0 -0.0 1.0
  outer loop
    vertex 278.685082593402 66.3542100472346 5.0
    vertex 249.273560224487 63.1926876783197 5.0
    vertex 259.935082593402 64.0042100472346 5.0
  endloop
endfacet
facet normal -0.0 -0.0 1.0
  outer loop
    vertex 259.935082593402 64.0042100472346 5.0
    vertex 249.273560224487 63.1926876783197 5.0
    vertex 259.24921212388 63.9139134869006 5.0
  endloop
endfacet
facet normal -0.0 -0.0 1.0
  outer loop
    vertex 259.24921212388 63.9139134869006 5.0
    vertex 249.273560224487 63.1926876783197 5.0
    vertex 249.686748643242 62.6542100472346 5.0
  endloop
endfacet
facet normal -0.0 -0.0 1.0
  outer loop
    vertex 259.24921212388 63.9139134869006 5.0
    vertex 249.686748643242 62.6542100472346 5.0
    vertex 249.946489741754 62.0271395645012 5.0
  endloop
endfacet
facet normal -0.0 -0.0 1.0
  outer loop
    vertex 259.24921212388 63.9139134869006 5.0
    vertex 249.946489741754 62.0271395645012 5.0
    vertex 250.035082593402 61.3542100472346 5.0
  endloop
endfacet
facet normal -0.0 -0.0 1.0
  outer loop
    vertex 259.24921212388 63.9139134869006 5.0
    vertex 250.035082593402 61.3542100472346 5.0
    vertex 258.610082593402 63.6491773672634 5.0
  endloop
endfacet
facet normal -0.0 -0.0 1.0
  outer loop
    vertex 258.610082593402 63.6491773672634 5.0
    vertex 250.035082593402 61.3542100472346 5.0
    vertex 258.061249623258 63.228043017379 5.0
  endloop
endfacet
facet normal -0.0 -0.0 1.0
  outer loop
    vertex 258.061249623258 63.228043017379 5.0
    vertex 250.035082593402 61.3542100472346 5.0
    vertex 257.640115273373 62.6792100472346 5.0
  endloop
endfacet
facet normal -0.0 -0.0 1.0
  outer loop
    vertex 257.640115273373 62.6792100472346 5.0
    vertex 250.035082593402 61.3542100472346 5.0
    vertex 257.375379153736 62.0400805167563 5.0
  endloop
endfacet
facet normal -0.0 -0.0 1.0
  outer loop
    vertex 257.375379153736 62.0400805167563 5.0
    vertex 250.035082593402 61.3542100472346 5.0
    vertex 257.285082593402 61.3542100472346 5.0
  endloop
endfacet
facet normal -0.0 -0.0 1.0
  outer loop
    vertex 278.685082593402 66.3542100472346 5.0
    vertex 259.935082593402 64.0042100472346 5.0
    vertex 260.620953062924 63.9139134869006 5.0
  endloop
endfacet
facet normal -0.0 -0.0 1.0
  outer loop
    vertex 278.685082593402 66.3542100472346 5.0
    vertex 260.620953062924 63.9139134869006 5.0
    vertex 261.260082593402 63.6491773672634 5.0
  endloop
endfacet
facet normal -0.0 -0.0 1.0
  outer loop
    vertex 278.685082593402 66.3542100472346 5.0
    vertex 261.260082593402 63.6491773672634 5.0
    vertex 261.808915563546 63.228043017379 5.0
  endloop
endfacet
facet normal -0.0 -0.0 1.0
  outer loop
    vertex 278.685082593402 66.3542100472346 5.0
    vertex 261.808915563546 63.228043017379 5.0
    vertex 262.230049913431 62.6792100472346 5.0
  endloop
endfacet
facet normal -0.0 -0.0 1.0
  outer loop
    vertex 278.685082593402 66.3542100472346 5.0
    vertex 262.230049913431 62.6792100472346 5.0
    vertex 262.494786033068 62.0400805167563 5.0
  endloop
endfacet
facet normal -0.0 -0.0 1.0
  outer loop
    vertex 278.685082593402 66.3542100472346 5.0
    vertex 262.494786033068 62.0400805167563 5.0
    vertex 262.585082593402 61.3542100472346 5.0
  endloop
endfacet
facet normal -0.0 -0.0 1.0
  outer loop
    vertex 278.685082593402 66.3542100472346 5.0
    vertex 262.585082593402 61.3542100472346 5.0
    vertex 271.736271171625 63.9622097782151 5.0
  endloop
endfacet
facet normal -0.0 -0.0 1.0
  outer loop
    vertex 271.736271171625 63.9622097782151 5.0
    vertex 262.585082593402 61.3542100472346 5.0
    vertex 271.085082593402 63.6924786374526 5.0
  endloop
endfacet
facet normal -0.0 -0.0 1.0
  outer loop
    vertex 271.085082593402 63.6924786374526 5.0
    vertex 262.585082593402 61.3542100472346 5.0
    vertex 270.525894284198 63.2633983564383 5.0
  endloop
endfacet
facet normal -0.0 -0.0 1.0
  outer loop
    vertex 270.525894284198 63.2633983564383 5.0
    vertex 262.585082593402 61.3542100472346 5.0
    vertex 270.096814003184 62.7042100472346 5.0
  endloop
endfacet
facet normal -0.0 -0.0 1.0
  outer loop
    vertex 270.096814003184 62.7042100472346 5.0
    vertex 262.585082593402 61.3542100472346 5.0
    vertex 269.827082862422 62.0530214690114 5.0
  endloop
endfacet
facet normal -0.0 -0.0 1.0
  outer loop
    vertex 269.827082862422 62.0530214690114 5.0
    vertex 262.585082593402 61.3542100472346 5.0
    vertex 269.735082593402 61.3542100472346 5.0
  endloop
endfacet
facet normal -0.0 -0.0 1.0
  outer loop
    vertex 278.685082593402 66.3542100472346 5.0
    vertex 271.736271171625 63.9622097782151 5.0
    vertex 272.435082593402 64.0542100472346 5.0
  endloop
endfacet
facet normal -0.0 -0.0 1.0
  outer loop
    vertex 278.685082593402 66.3542100472346 5.0
    vertex 272.435082593402 64.0542100472346 5.0
    vertex 273.133894015179 63.9622097782151 5.0
  endloop
endfacet
facet normal -0.0 -0.0 1.0
  outer loop
    vertex 278.685082593402 66.3542100472346 5.0
    vertex 273.133894015179 63.9622097782151 5.0
    vertex 273.785082593402 63.6924786374526 5.0
  endloop
endfacet
facet normal -0.0 -0.0 1.0
  outer loop
    vertex 278.685082593402 66.3542100472346 5.0
    vertex 273.785082593402 63.6924786374526 5.0
    vertex 274.344270902606 63.2633983564383 5.0
  endloop
endfacet
facet normal -0.0 -0.0 1.0
  outer loop
    vertex 278.685082593402 66.3542100472346 5.0
    vertex 274.344270902606 63.2633983564383 5.0
    vertex 274.77335118362 62.7042100472346 5.0
  endloop
endfacet
facet normal -0.0 -0.0 1.0
  outer loop
    vertex 278.685082593402 66.3542100472346 5.0
    vertex 274.77335118362 62.7042100472346 5.0
    vertex 275.043082324383 62.0530214690114 5.0
  endloop
endfacet
facet normal -0.0 -0.0 1.0
  outer loop
    vertex 278.685082593402 66.3542100472346 5.0
    vertex 275.043082324383 62.0530214690114 5.0
    vertex 275.135082593402 61.3542100472346 5.0
  endloop
endfacet
facet normal -0.0 -0.0 1.0
  outer loop
    vertex 278.685082593402 66.3542100472346 5.0
    vertex 275.135082593402 61.3542100472346 5.0
    vertex 278.685082593402 56.3542100472346 5.0
  endloop
endfacet
facet normal -0.0 -1.0 -0.0
  outer loop
    vertex 278.685082593402 56.3542100472346 5.0
    vertex 228.685082593402 56.3542100472346 0.0
    vertex 278.685082593402 56.3542100472346 0.0
  endloop
endfacet
facet normal -0.0 -1.0 -0.0
  outer loop
    vertex 228.685082593402 56.3542100472346 0.0
    vertex 278.685082593402 56.3542100472346 5.0
    vertex 228.685082593402 56.3542100472346 5.0
  endloop
endfacet
facet normal -1.0 0.0 0.0
  outer loop
    vertex 228.685082593402 64.3542100472346 5.0
    vertex 228.685082593402 56.3542100472346 0.0
    vertex 228.685082593402 56.3542100472346 5.0
  endloop
endfacet
facet normal -1.0 0.0 0.0
  outer loop
    vertex 228.685082593402 56.3542100472346 0.0
    vertex 228.685082593402 64.3542100472346 5.0
    vertex 228.685082593402 66.3542100472346 0.0
  endloop
endfacet
facet normal -1.0 0.0 0.0
  outer loop
    vertex 228.685082593402 66.3542100472346 0.0
    vertex 228.685082593402 64.3542100472346 5.0
    vertex 228.685082593402 66.3542100472346 3.0
  endloop
endfacet
facet normal -0.0 1.0 -0.0
  outer loop
    vertex 228.685082593402 66.3542100472346 3.0
    vertex 278.685082593402 66.3542100472346 0.0
    vertex 228.685082593402 66.3542100472346 0.0
  endloop
endfacet
facet normal -0.0 1.0 -0.0
  outer loop
    vertex 278.685082593402 66.3542100472346 0.0
    vertex 228.685082593402 66.3542100472346 3.0
    vertex 278.685082593402 66.3542100472346 5.0
  endloop
endfacet
facet normal -0.0 1.0 -0.0
  outer loop
    vertex 278.685082593402 66.3542100472346 5.0
    vertex 228.685082593402 66.3542100472346 3.0
    vertex 230.685082593402 66.3542100472346 5.0
  endloop
endfacet
facet normal 1.0 0.0 0.0
  outer loop
    vertex 278.685082593402 66.3542100472346 0.0
    vertex 278.685082593402 56.3542100472346 5.0
    vertex 278.685082593402 56.3542100472346 0.0
  endloop
endfacet
facet normal 1.0 0.0 0.0
  outer loop
    vertex 278.685082593402 56.3542100472346 5.0
    vertex 278.685082593402 66.3542100472346 0.0
    vertex 278.685082593402 66.3542100472346 5.0
  endloop
endfacet
facet normal -0.130526192220047 -0.991444861373811 -0.0
  outer loop
    vertex 235.595071158414 63.8173209042717 5.0
    vertex 234.935082593402 63.9042100472346 0.0
    vertex 235.595071158414 63.8173209042717 0.0
  endloop
endfacet
facet normal -0.130526192220047 -0.991444861373811 -0.0
  outer loop
    vertex 234.935082593402 63.9042100472346 0.0
    vertex 235.595071158414 63.8173209042717 5.0
    vertex 234.935082593402 63.9042100472346 5.0
  endloop
endfacet
facet normal 0.130526192220047 -0.991444861373811 0.0
  outer loop
    vertex 234.935082593402 63.9042100472346 5.0
    vertex 234.275094028391 63.8173209042717 0.0
    vertex 234.935082593402 63.9042100472346 0.0
  endloop
endfacet
facet normal 0.130526192220047 -0.991444861373811 0.0
  outer loop
    vertex 234.275094028391 63.8173209042717 0.0
    vertex 234.935082593402 63.9042100472346 5.0
    vertex 234.275094028391 63.8173209042717 5.0
  endloop
endfacet
facet normal 0.382683432365102 -0.923879532511282 0.0
  outer loop
    vertex 234.275094028391 63.8173209042717 5.0
    vertex 233.660082593402 63.5625748268849 0.0
    vertex 234.275094028391 63.8173209042717 0.0
  endloop
endfacet
facet normal 0.382683432365102 -0.923879532511282 0.0
  outer loop
    vertex 233.660082593402 63.5625748268849 0.0
    vertex 234.275094028391 63.8173209042717 5.0
    vertex 233.660082593402 63.5625748268849 5.0
  endloop
endfacet
facet normal 0.608761429008703 -0.793353340291249 0.0
  outer loop
    vertex 233.660082593402 63.5625748268849 5.0
    vertex 233.131960301376 63.1573323392603 0.0
    vertex 233.660082593402 63.5625748268849 0.0
  endloop
endfacet
facet normal 0.608761429008703 -0.793353340291249 0.0
  outer loop
    vertex 233.131960301376 63.1573323392603 0.0
    vertex 233.660082593402 63.5625748268849 5.0
    vertex 233.131960301376 63.1573323392603 5.0
  endloop
endfacet
facet normal 0.79335334029123 -0.608761429008728 0.0
  outer loop
    vertex 233.131960301376 63.1573323392603 0.0
    vertex 232.726717813752 62.6292100472346 5.0
    vertex 232.726717813752 62.6292100472346 0.0
  endloop
endfacet
facet normal 0.79335334029123 -0.608761429008728 0.0
  outer loop
    vertex 232.726717813752 62.6292100472346 5.0
    vertex 233.131960301376 63.1573323392603 0.0
    vertex 233.131960301376 63.1573323392603 5.0
  endloop
endfacet
facet normal 0.923879532511296 -0.382683432365067 0.0
  outer loop
    vertex 232.726717813752 62.6292100472346 0.0
    vertex 232.471971736365 62.014198612246 5.0
    vertex 232.471971736365 62.014198612246 0.0
  endloop
endfacet
facet normal 0.923879532511296 -0.382683432365067 0.0
  outer loop
    vertex 232.471971736365 62.014198612246 5.0
    vertex 232.726717813752 62.6292100472346 0.0
    vertex 232.726717813752 62.6292100472346 5.0
  endloop
endfacet
facet normal 0.991444861373809 -0.130526192220061 0.0
  outer loop
    vertex 232.471971736365 62.014198612246 0.0
    vertex 232.385082593402 61.3542100472346 5.0
    vertex 232.385082593402 61.3542100472346 0.0
  endloop
endfacet
facet normal 0.991444861373809 -0.130526192220061 0.0
  outer loop
    vertex 232.385082593402 61.3542100472346 5.0
    vertex 232.471971736365 62.014198612246 0.0
    vertex 232.471971736365 62.014198612246 5.0
  endloop
endfacet
facet normal 0.991444861373809 0.130526192220061 0.0
  outer loop
    vertex 232.385082593402 61.3542100472346 0.0
    vertex 232.471971736365 60.6942214822232 5.0
    vertex 232.471971736365 60.6942214822232 0.0
  endloop
endfacet
facet normal 0.991444861373809 0.130526192220061 0.0
  outer loop
    vertex 232.471971736365 60.6942214822232 5.0
    vertex 232.385082593402 61.3542100472346 0.0
    vertex 232.385082593402 61.3542100472346 5.0
  endloop
endfacet
facet normal 0.923879532511296 0.382683432365067 0.0
  outer loop
    vertex 232.471971736365 60.6942214822232 0.0
    vertex 232.726717813752 60.0792100472346 5.0
    vertex 232.726717813752 60.0792100472346 0.0
  endloop
endfacet
facet normal 0.923879532511296 0.382683432365067 0.0
  outer loop
    vertex 232.726717813752 60.0792100472346 5.0
    vertex 232.471971736365 60.6942214822232 0.0
    vertex 232.471971736365 60.6942214822232 5.0
  endloop
endfacet
facet normal 0.79335334029123 0.608761429008728 0.0
  outer loop
    vertex 232.726717813752 60.0792100472346 0.0
    vertex 233.131960301376 59.5510877552089 5.0
    vertex 233.131960301376 59.5510877552089 0.0
  endloop
endfacet
facet normal 0.79335334029123 0.608761429008728 0.0
  outer loop
    vertex 233.131960301376 59.5510877552089 5.0
    vertex 232.726717813752 60.0792100472346 0.0
    vertex 232.726717813752 60.0792100472346 5.0
  endloop
endfacet
facet normal 0.608761429008736 0.793353340291223 0.0
  outer loop
    vertex 233.131960301376 59.5510877552089 5.0
    vertex 233.660082593402 59.1458452675843 0.0
    vertex 233.131960301376 59.5510877552089 0.0
  endloop
endfacet
facet normal 0.608761429008736 0.793353340291223 0.0
  outer loop
    vertex 233.660082593402 59.1458452675843 0.0
    vertex 233.131960301376 59.5510877552089 5.0
    vertex 233.660082593402 59.1458452675843 5.0
  endloop
endfacet
facet normal 0.382683432365078 0.923879532511292 0.0
  outer loop
    vertex 233.660082593402 59.1458452675843 5.0
    vertex 234.275094028391 58.8910991901975 0.0
    vertex 233.660082593402 59.1458452675843 0.0
  endloop
endfacet
facet normal 0.382683432365078 0.923879532511292 0.0
  outer loop
    vertex 234.275094028391 58.8910991901975 0.0
    vertex 233.660082593402 59.1458452675843 5.0
    vertex 234.275094028391 58.8910991901975 5.0
  endloop
endfacet
facet normal 0.13052619222003 0.991444861373813 0.0
  outer loop
    vertex 234.275094028391 58.8910991901975 5.0
    vertex 234.935082593402 58.8042100472346 0.0
    vertex 234.275094028391 58.8910991901975 0.0
  endloop
endfacet
facet normal 0.13052619222003 0.991444861373813 0.0
  outer loop
    vertex 234.935082593402 58.8042100472346 0.0
    vertex 234.275094028391 58.8910991901975 5.0
    vertex 234.935082593402 58.8042100472346 5.0
  endloop
endfacet
facet normal -0.13052619222003 0.991444861373813 0.0
  outer loop
    vertex 234.935082593402 58.8042100472346 5.0
    vertex 235.595071158414 58.8910991901975 0.0
    vertex 234.935082593402 58.8042100472346 0.0
  endloop
endfacet
facet normal -0.13052619222003 0.991444861373813 0.0
  outer loop
    vertex 235.595071158414 58.8910991901975 0.0
    vertex 234.935082593402 58.8042100472346 5.0
    vertex 235.595071158414 58.8910991901975 5.0
  endloop
endfacet
facet normal -0.382683432365102 0.923879532511282 0.0
  outer loop
    vertex 235.595071158414 58.8910991901975 5.0
    vertex 236.210082593402 59.1458452675843 0.0
    vertex 235.595071158414 58.8910991901975 0.0
  endloop
endfacet
facet normal -0.382683432365102 0.923879532511282 0.0
  outer loop
    vertex 236.210082593402 59.1458452675843 0.0
    vertex 235.595071158414 58.8910991901975 5.0
    vertex 236.210082593402 59.1458452675843 5.0
  endloop
endfacet
facet normal -0.608761429008693 0.793353340291257 0.0
  outer loop
    vertex 236.210082593402 59.1458452675843 5.0
    vertex 236.738204885428 59.5510877552089 0.0
    vertex 236.210082593402 59.1458452675843 0.0
  endloop
endfacet
facet normal -0.608761429008693 0.793353340291257 0.0
  outer loop
    vertex 236.738204885428 59.5510877552089 0.0
    vertex 236.210082593402 59.1458452675843 5.0
    vertex 236.738204885428 59.5510877552089 5.0
  endloop
endfacet
facet normal -0.793353340291236 0.60876142900872 0.0
  outer loop
    vertex 237.143447373052 60.0792100472346 5.0
    vertex 236.738204885428 59.5510877552089 0.0
    vertex 236.738204885428 59.5510877552089 5.0
  endloop
endfacet
facet normal -0.793353340291236 0.60876142900872 0.0
  outer loop
    vertex 236.738204885428 59.5510877552089 0.0
    vertex 237.143447373052 60.0792100472346 5.0
    vertex 237.143447373052 60.0792100472346 0.0
  endloop
endfacet
facet normal -0.923879532511296 0.382683432365067 0.0
  outer loop
    vertex 237.398193450439 60.6942214822232 5.0
    vertex 237.143447373052 60.0792100472346 0.0
    vertex 237.143447373052 60.0792100472346 5.0
  endloop
endfacet
facet normal -0.923879532511296 0.382683432365067 0.0
  outer loop
    vertex 237.143447373052 60.0792100472346 0.0
    vertex 237.398193450439 60.6942214822232 5.0
    vertex 237.398193450439 60.6942214822232 0.0
  endloop
endfacet
facet normal -0.991444861373809 0.130526192220061 0.0
  outer loop
    vertex 237.485082593402 61.3542100472346 5.0
    vertex 237.398193450439 60.6942214822232 0.0
    vertex 237.398193450439 60.6942214822232 5.0
  endloop
endfacet
facet normal -0.991444861373809 0.130526192220061 0.0
  outer loop
    vertex 237.398193450439 60.6942214822232 0.0
    vertex 237.485082593402 61.3542100472346 5.0
    vertex 237.485082593402 61.3542100472346 0.0
  endloop
endfacet
facet normal -0.991444861373809 -0.130526192220061 -0.0
  outer loop
    vertex 237.398193450439 62.014198612246 5.0
    vertex 237.485082593402 61.3542100472346 0.0
    vertex 237.485082593402 61.3542100472346 5.0
  endloop
endfacet
facet normal -0.991444861373809 -0.130526192220061 -0.0
  outer loop
    vertex 237.485082593402 61.3542100472346 0.0
    vertex 237.398193450439 62.014198612246 5.0
    vertex 237.398193450439 62.014198612246 0.0
  endloop
endfacet
facet normal -0.923879532511296 -0.382683432365067 -0.0
  outer loop
    vertex 237.143447373052 62.6292100472346 5.0
    vertex 237.398193450439 62.014198612246 0.0
    vertex 237.398193450439 62.014198612246 5.0
  endloop
endfacet
facet normal -0.923879532511296 -0.382683432365067 -0.0
  outer loop
    vertex 237.398193450439 62.014198612246 0.0
    vertex 237.143447373052 62.6292100472346 5.0
    vertex 237.143447373052 62.6292100472346 0.0
  endloop
endfacet
facet normal -0.79335334029123 -0.608761429008728 -0.0
  outer loop
    vertex 236.738204885428 63.1573323392603 5.0
    vertex 237.143447373052 62.6292100472346 0.0
    vertex 237.143447373052 62.6292100472346 5.0
  endloop
endfacet
facet normal -0.79335334029123 -0.608761429008728 -0.0
  outer loop
    vertex 237.143447373052 62.6292100472346 0.0
    vertex 236.738204885428 63.1573323392603 5.0
    vertex 236.738204885428 63.1573323392603 0.0
  endloop
endfacet
facet normal -0.608761429008736 -0.793353340291223 -0.0
  outer loop
    vertex 236.738204885428 63.1573323392603 5.0
    vertex 236.210082593402 63.5625748268849 0.0
    vertex 236.738204885428 63.1573323392603 0.0
  endloop
endfacet
facet normal -0.608761429008736 -0.793353340291223 -0.0
  outer loop
    vertex 236.210082593402 63.5625748268849 0.0
    vertex 236.738204885428 63.1573323392603 5.0
    vertex 236.210082593402 63.5625748268849 5.0
  endloop
endfacet
facet normal -0.382683432365078 -0.923879532511292 -0.0
  outer loop
    vertex 236.210082593402 63.5625748268849 5.0
    vertex 235.595071158414 63.8173209042717 0.0
    vertex 236.210082593402 63.5625748268849 0.0
  endloop
endfacet
facet normal -0.382683432365078 -0.923879532511292 -0.0
  outer loop
    vertex 235.595071158414 63.8173209042717 0.0
    vertex 236.210082593402 63.5625748268849 5.0
    vertex 235.595071158414 63.8173209042717 5.0
  endloop
endfacet
facet normal -0.130526192220052 -0.99144486137381 -0.0
  outer loop
    vertex 248.108012110669 63.8656171955862 5.0
    vertex 247.435082593402 63.9542100472346 2.50463337407671e-030
    vertex 248.108012110669 63.8656171955862 2.50463337407671e-030
  endloop
endfacet
facet normal -0.130526192220052 -0.99144486137381 -0.0
  outer loop
    vertex 247.435082593402 63.9542100472346 2.50463337407671e-030
    vertex 248.108012110669 63.8656171955862 5.0
    vertex 247.435082593402 63.9542100472346 5.0
  endloop
endfacet
facet normal 0.130526192220052 -0.99144486137381 0.0
  outer loop
    vertex 247.435082593402 63.9542100472346 5.0
    vertex 246.762153076136 63.8656171955862 2.50463337407671e-030
    vertex 247.435082593402 63.9542100472346 2.50463337407671e-030
  endloop
endfacet
facet normal 0.130526192220052 -0.99144486137381 0.0
  outer loop
    vertex 246.762153076136 63.8656171955862 2.50463337407671e-030
    vertex 247.435082593402 63.9542100472346 5.0
    vertex 246.762153076136 63.8656171955862 5.0
  endloop
endfacet
facet normal 0.382683432365092 -0.923879532511286 0.0
  outer loop
    vertex 246.762153076136 63.8656171955862 5.0
    vertex 246.135082593402 63.6058760970742 2.50463337407671e-030
    vertex 246.762153076136 63.8656171955862 2.50463337407671e-030
  endloop
endfacet
facet normal 0.382683432365092 -0.923879532511286 0.0
  outer loop
    vertex 246.135082593402 63.6058760970742 2.50463337407671e-030
    vertex 246.762153076136 63.8656171955862 5.0
    vertex 246.135082593402 63.6058760970742 5.0
  endloop
endfacet
facet normal 0.60876142900871 -0.793353340291243 0.0
  outer loop
    vertex 246.135082593402 63.6058760970742 5.0
    vertex 245.596604962317 63.1926876783197 2.50463337407671e-030
    vertex 246.135082593402 63.6058760970742 2.50463337407671e-030
  endloop
endfacet
facet normal 0.60876142900871 -0.793353340291243 0.0
  outer loop
    vertex 245.596604962317 63.1926876783197 2.50463337407671e-030
    vertex 246.135082593402 63.6058760970742 5.0
    vertex 245.596604962317 63.1926876783197 5.0
  endloop
endfacet
facet normal 0.793353340291247 -0.608761429008706 0.0
  outer loop
    vertex 245.596604962317 63.1926876783197 2.50463337407671e-030
    vertex 245.183416543563 62.6542100472346 5.0
    vertex 245.183416543563 62.6542100472346 2.50463337407671e-030
  endloop
endfacet
facet normal 0.793353340291247 -0.608761429008706 0.0
  outer loop
    vertex 245.183416543563 62.6542100472346 5.0
    vertex 245.596604962317 63.1926876783197 2.50463337407671e-030
    vertex 245.596604962317 63.1926876783197 5.0
  endloop
endfacet
facet normal 0.923879532511282 -0.382683432365101 0.0
  outer loop
    vertex 245.183416543563 62.6542100472346 2.50463337407671e-030
    vertex 244.92367544505 62.0271395645012 5.0
    vertex 244.92367544505 62.0271395645012 2.50463337407671e-030
  endloop
endfacet
facet normal 0.923879532511282 -0.382683432365101 0.0
  outer loop
    vertex 244.92367544505 62.0271395645012 5.0
    vertex 245.183416543563 62.6542100472346 2.50463337407671e-030
    vertex 245.183416543563 62.6542100472346 5.0
  endloop
endfacet
facet normal 0.991444861373808 -0.130526192220066 0.0
  outer loop
    vertex 244.92367544505 62.0271395645012 2.50463337407671e-030
    vertex 244.835082593402 61.3542100472346 5.0
    vertex 244.835082593402 61.3542100472346 2.50463337407671e-030
  endloop
endfacet
facet normal 0.991444861373808 -0.130526192220066 0.0
  outer loop
    vertex 244.835082593402 61.3542100472346 5.0
    vertex 244.92367544505 62.0271395645012 2.50463337407671e-030
    vertex 244.92367544505 62.0271395645012 5.0
  endloop
endfacet
facet normal 0.991444861373808 0.130526192220066 0.0
  outer loop
    vertex 244.835082593402 61.3542100472346 2.50463337407671e-030
    vertex 244.92367544505 60.6812805299681 5.0
    vertex 244.92367544505 60.6812805299681 2.50463337407671e-030
  endloop
endfacet
facet normal 0.991444861373808 0.130526192220066 0.0
  outer loop
    vertex 244.92367544505 60.6812805299681 5.0
    vertex 244.835082593402 61.3542100472346 2.50463337407671e-030
    vertex 244.835082593402 61.3542100472346 5.0
  endloop
endfacet
facet normal -0.991444861373816 0.130526192220007 0.0
  outer loop
    vertex 262.585082593402 61.3542100472346 5.0
    vertex 262.494786033068 60.6683395777129 0.0
    vertex 262.494786033068 60.6683395777129 5.0
  endloop
endfacet
facet normal -0.991444861373816 0.130526192220007 0.0
  outer loop
    vertex 262.494786033068 60.6683395777129 0.0
    vertex 262.585082593402 61.3542100472346 5.0
    vertex 262.585082593402 61.3542100472346 0.0
  endloop
endfacet
facet normal -0.991444861373816 -0.130526192220007 -0.0
  outer loop
    vertex 262.494786033068 62.0400805167563 5.0
    vertex 262.585082593402 61.3542100472346 0.0
    vertex 262.585082593402 61.3542100472346 5.0
  endloop
endfacet
facet normal -0.991444861373816 -0.130526192220007 -0.0
  outer loop
    vertex 262.585082593402 61.3542100472346 0.0
    vertex 262.494786033068 62.0400805167563 5.0
    vertex 262.494786033068 62.0400805167563 0.0
  endloop
endfacet
facet normal -0.923879532511269 -0.382683432365133 -0.0
  outer loop
    vertex 262.230049913431 62.6792100472346 5.0
    vertex 262.494786033068 62.0400805167563 0.0
    vertex 262.494786033068 62.0400805167563 5.0
  endloop
endfacet
facet normal -0.923879532511269 -0.382683432365133 -0.0
  outer loop
    vertex 262.494786033068 62.0400805167563 0.0
    vertex 262.230049913431 62.6792100472346 5.0
    vertex 262.230049913431 62.6792100472346 0.0
  endloop
endfacet
facet normal -0.793353340291232 -0.608761429008725 -0.0
  outer loop
    vertex 261.808915563546 63.228043017379 5.0
    vertex 262.230049913431 62.6792100472346 0.0
    vertex 262.230049913431 62.6792100472346 5.0
  endloop
endfacet
facet normal -0.793353340291232 -0.608761429008725 -0.0
  outer loop
    vertex 262.230049913431 62.6792100472346 0.0
    vertex 261.808915563546 63.228043017379 5.0
    vertex 261.808915563546 63.228043017379 0.0
  endloop
endfacet
facet normal -0.608761429008749 -0.793353340291214 -0.0
  outer loop
    vertex 261.808915563546 63.228043017379 5.0
    vertex 261.260082593402 63.6491773672634 0.0
    vertex 261.808915563546 63.228043017379 0.0
  endloop
endfacet
facet normal -0.608761429008749 -0.793353340291214 -0.0
  outer loop
    vertex 261.260082593402 63.6491773672634 0.0
    vertex 261.808915563546 63.228043017379 5.0
    vertex 261.260082593402 63.6491773672634 5.0
  endloop
endfacet
facet normal -0.382683432365074 -0.923879532511294 -0.0
  outer loop
    vertex 261.260082593402 63.6491773672634 5.0
    vertex 260.620953062924 63.9139134869006 0.0
    vertex 261.260082593402 63.6491773672634 0.0
  endloop
endfacet
facet normal -0.382683432365074 -0.923879532511294 -0.0
  outer loop
    vertex 260.620953062924 63.9139134869006 0.0
    vertex 261.260082593402 63.6491773672634 5.0
    vertex 260.620953062924 63.9139134869006 5.0
  endloop
endfacet
facet normal -0.130526192220073 -0.991444861373808 -0.0
  outer loop
    vertex 260.620953062924 63.9139134869006 5.0
    vertex 259.935082593402 64.0042100472346 0.0
    vertex 260.620953062924 63.9139134869006 0.0
  endloop
endfacet
facet normal -0.130526192220073 -0.991444861373808 -0.0
  outer loop
    vertex 259.935082593402 64.0042100472346 0.0
    vertex 260.620953062924 63.9139134869006 5.0
    vertex 259.935082593402 64.0042100472346 5.0
  endloop
endfacet
facet normal 0.130526192220073 -0.991444861373808 0.0
  outer loop
    vertex 259.935082593402 64.0042100472346 5.0
    vertex 259.24921212388 63.9139134869006 0.0
    vertex 259.935082593402 64.0042100472346 0.0
  endloop
endfacet
facet normal 0.130526192220073 -0.991444861373808 0.0
  outer loop
    vertex 259.24921212388 63.9139134869006 0.0
    vertex 259.935082593402 64.0042100472346 5.0
    vertex 259.24921212388 63.9139134869006 5.0
  endloop
endfacet
facet normal 0.382683432365074 -0.923879532511294 0.0
  outer loop
    vertex 259.24921212388 63.9139134869006 5.0
    vertex 258.610082593402 63.6491773672634 0.0
    vertex 259.24921212388 63.9139134869006 0.0
  endloop
endfacet
facet normal 0.382683432365074 -0.923879532511294 0.0
  outer loop
    vertex 258.610082593402 63.6491773672634 0.0
    vertex 259.24921212388 63.9139134869006 5.0
    vertex 258.610082593402 63.6491773672634 5.0
  endloop
endfacet
facet normal 0.608761429008739 -0.793353340291222 0.0
  outer loop
    vertex 258.610082593402 63.6491773672634 5.0
    vertex 258.061249623258 63.228043017379 0.0
    vertex 258.610082593402 63.6491773672634 0.0
  endloop
endfacet
facet normal 0.608761429008739 -0.793353340291222 0.0
  outer loop
    vertex 258.061249623258 63.228043017379 0.0
    vertex 258.610082593402 63.6491773672634 5.0
    vertex 258.061249623258 63.228043017379 5.0
  endloop
endfacet
facet normal 0.793353340291232 -0.608761429008725 0.0
  outer loop
    vertex 258.061249623258 63.228043017379 0.0
    vertex 257.640115273373 62.6792100472346 5.0
    vertex 257.640115273373 62.6792100472346 0.0
  endloop
endfacet
facet normal 0.793353340291232 -0.608761429008725 0.0
  outer loop
    vertex 257.640115273373 62.6792100472346 5.0
    vertex 258.061249623258 63.228043017379 0.0
    vertex 258.061249623258 63.228043017379 5.0
  endloop
endfacet
facet normal 0.923879532511271 -0.382683432365127 0.0
  outer loop
    vertex 257.640115273373 62.6792100472346 0.0
    vertex 257.375379153736 62.0400805167563 5.0
    vertex 257.375379153736 62.0400805167563 0.0
  endloop
endfacet
facet normal 0.923879532511271 -0.382683432365127 0.0
  outer loop
    vertex 257.375379153736 62.0400805167563 5.0
    vertex 257.640115273373 62.6792100472346 0.0
    vertex 257.640115273373 62.6792100472346 5.0
  endloop
endfacet
facet normal 0.991444861373816 -0.130526192220007 0.0
  outer loop
    vertex 257.375379153736 62.0400805167563 0.0
    vertex 257.285082593402 61.3542100472346 5.0
    vertex 257.285082593402 61.3542100472346 0.0
  endloop
endfacet
facet normal 0.991444861373816 -0.130526192220007 0.0
  outer loop
    vertex 257.285082593402 61.3542100472346 5.0
    vertex 257.375379153736 62.0400805167563 0.0
    vertex 257.375379153736 62.0400805167563 5.0
  endloop
endfacet
facet normal 0.991444861373816 0.130526192220007 0.0
  outer loop
    vertex 257.285082593402 61.3542100472346 0.0
    vertex 257.375379153736 60.6683395777129 5.0
    vertex 257.375379153736 60.6683395777129 0.0
  endloop
endfacet
facet normal 0.991444861373816 0.130526192220007 0.0
  outer loop
    vertex 257.375379153736 60.6683395777129 5.0
    vertex 257.285082593402 61.3542100472346 0.0
    vertex 257.285082593402 61.3542100472346 5.0
  endloop
endfacet
facet normal 0.923879532511269 0.382683432365133 0.0
  outer loop
    vertex 257.375379153736 60.6683395777129 0.0
    vertex 257.640115273373 60.0292100472346 5.0
    vertex 257.640115273373 60.0292100472346 0.0
  endloop
endfacet
facet normal 0.923879532511269 0.382683432365133 0.0
  outer loop
    vertex 257.640115273373 60.0292100472346 5.0
    vertex 257.375379153736 60.6683395777129 0.0
    vertex 257.375379153736 60.6683395777129 5.0
  endloop
endfacet
facet normal 0.793353340291232 0.608761429008725 0.0
  outer loop
    vertex 257.640115273373 60.0292100472346 0.0
    vertex 258.061249623258 59.4803770770903 5.0
    vertex 258.061249623258 59.4803770770903 0.0
  endloop
endfacet
facet normal 0.793353340291232 0.608761429008725 0.0
  outer loop
    vertex 258.061249623258 59.4803770770903 5.0
    vertex 257.640115273373 60.0292100472346 0.0
    vertex 257.640115273373 60.0292100472346 5.0
  endloop
endfacet
facet normal 0.608761429008749 0.793353340291214 0.0
  outer loop
    vertex 258.061249623258 59.4803770770903 5.0
    vertex 258.610082593402 59.0592427272059 0.0
    vertex 258.061249623258 59.4803770770903 0.0
  endloop
endfacet
facet normal 0.608761429008749 0.793353340291214 0.0
  outer loop
    vertex 258.610082593402 59.0592427272059 0.0
    vertex 258.061249623258 59.4803770770903 5.0
    vertex 258.610082593402 59.0592427272059 5.0
  endloop
endfacet
facet normal 0.382683432365074 0.923879532511294 0.0
  outer loop
    vertex 258.610082593402 59.0592427272059 5.0
    vertex 259.24921212388 58.7945066075686 0.0
    vertex 258.610082593402 59.0592427272059 0.0
  endloop
endfacet
facet normal 0.382683432365074 0.923879532511294 0.0
  outer loop
    vertex 259.24921212388 58.7945066075686 0.0
    vertex 258.610082593402 59.0592427272059 5.0
    vertex 259.24921212388 58.7945066075686 5.0
  endloop
endfacet
facet normal -0.130526192220062 -0.991444861373809 -0.0
  outer loop
    vertex 273.133894015179 63.9622097782151 5.0
    vertex 272.435082593402 64.0542100472346 0.0
    vertex 273.133894015179 63.9622097782151 0.0
  endloop
endfacet
facet normal -0.130526192220062 -0.991444861373809 -0.0
  outer loop
    vertex 272.435082593402 64.0542100472346 0.0
    vertex 273.133894015179 63.9622097782151 5.0
    vertex 272.435082593402 64.0542100472346 5.0
  endloop
endfacet
facet normal 0.130526192220046 -0.991444861373811 0.0
  outer loop
    vertex 272.435082593402 64.0542100472346 5.0
    vertex 271.736271171625 63.9622097782151 0.0
    vertex 272.435082593402 64.0542100472346 0.0
  endloop
endfacet
facet normal 0.130526192220046 -0.991444861373811 0.0
  outer loop
    vertex 271.736271171625 63.9622097782151 0.0
    vertex 272.435082593402 64.0542100472346 5.0
    vertex 271.736271171625 63.9622097782151 5.0
  endloop
endfacet
facet normal 0.382683432365092 -0.923879532511286 0.0
  outer loop
    vertex 271.736271171625 63.9622097782151 5.0
    vertex 271.085082593402 63.6924786374526 0.0
    vertex 271.736271171625 63.9622097782151 0.0
  endloop
endfacet
facet normal 0.382683432365092 -0.923879532511286 0.0
  outer loop
    vertex 271.085082593402 63.6924786374526 0.0
    vertex 271.736271171625 63.9622097782151 5.0
    vertex 271.085082593402 63.6924786374526 5.0
  endloop
endfacet
facet normal 0.608761429008714 -0.79335334029124 0.0
  outer loop
    vertex 271.085082593402 63.6924786374526 5.0
    vertex 270.525894284198 63.2633983564383 0.0
    vertex 271.085082593402 63.6924786374526 0.0
  endloop
endfacet
facet normal 0.608761429008714 -0.79335334029124 0.0
  outer loop
    vertex 270.525894284198 63.2633983564383 0.0
    vertex 271.085082593402 63.6924786374526 5.0
    vertex 270.525894284198 63.2633983564383 5.0
  endloop
endfacet
facet normal 0.793353340291248 -0.608761429008704 0.0
  outer loop
    vertex 270.525894284198 63.2633983564383 0.0
    vertex 270.096814003184 62.7042100472346 5.0
    vertex 270.096814003184 62.7042100472346 0.0
  endloop
endfacet
facet normal 0.793353340291248 -0.608761429008704 0.0
  outer loop
    vertex 270.096814003184 62.7042100472346 5.0
    vertex 270.525894284198 63.2633983564383 0.0
    vertex 270.525894284198 63.2633983564383 5.0
  endloop
endfacet
facet normal 0.923879532511284 -0.382683432365098 0.0
  outer loop
    vertex 270.096814003184 62.7042100472346 0.0
    vertex 269.827082862422 62.0530214690114 5.0
    vertex 269.827082862422 62.0530214690114 0.0
  endloop
endfacet
facet normal 0.923879532511284 -0.382683432365098 0.0
  outer loop
    vertex 269.827082862422 62.0530214690114 5.0
    vertex 270.096814003184 62.7042100472346 0.0
    vertex 270.096814003184 62.7042100472346 5.0
  endloop
endfacet
facet normal 0.991444861373807 -0.130526192220076 0.0
  outer loop
    vertex 269.827082862422 62.0530214690114 0.0
    vertex 269.735082593402 61.3542100472346 5.0
    vertex 269.735082593402 61.3542100472346 0.0
  endloop
endfacet
facet normal 0.991444861373807 -0.130526192220076 0.0
  outer loop
    vertex 269.735082593402 61.3542100472346 5.0
    vertex 269.827082862422 62.0530214690114 0.0
    vertex 269.827082862422 62.0530214690114 5.0
  endloop
endfacet
facet normal 0.991444861373807 0.130526192220076 0.0
  outer loop
    vertex 269.735082593402 61.3542100472346 0.0
    vertex 269.827082862422 60.6553986254578 5.0
    vertex 269.827082862422 60.6553986254578 0.0
  endloop
endfacet
facet normal 0.991444861373807 0.130526192220076 0.0
  outer loop
    vertex 269.827082862422 60.6553986254578 5.0
    vertex 269.735082593402 61.3542100472346 0.0
    vertex 269.735082593402 61.3542100472346 5.0
  endloop
endfacet
facet normal 0.923879532511281 0.382683432365103 0.0
  outer loop
    vertex 269.827082862422 60.6553986254578 0.0
    vertex 270.096814003184 60.0042100472346 5.0
    vertex 270.096814003184 60.0042100472346 0.0
  endloop
endfacet
facet normal 0.923879532511281 0.382683432365103 0.0
  outer loop
    vertex 270.096814003184 60.0042100472346 5.0
    vertex 269.827082862422 60.6553986254578 0.0
    vertex 269.827082862422 60.6553986254578 5.0
  endloop
endfacet
facet normal 0.793353340291254 0.608761429008696 0.0
  outer loop
    vertex 270.096814003184 60.0042100472346 0.0
    vertex 270.525894284198 59.4450217380309 5.0
    vertex 270.525894284198 59.4450217380309 0.0
  endloop
endfacet
facet normal 0.793353340291254 0.608761429008696 0.0
  outer loop
    vertex 270.525894284198 59.4450217380309 5.0
    vertex 270.096814003184 60.0042100472346 0.0
    vertex 270.096814003184 60.0042100472346 5.0
  endloop
endfacet
facet normal 0.608761429008714 0.79335334029124 0.0
  outer loop
    vertex 270.525894284198 59.4450217380309 5.0
    vertex 271.085082593402 59.0159414570166 0.0
    vertex 270.525894284198 59.4450217380309 0.0
  endloop
endfacet
facet normal 0.608761429008714 0.79335334029124 0.0
  outer loop
    vertex 271.085082593402 59.0159414570166 0.0
    vertex 270.525894284198 59.4450217380309 5.0
    vertex 271.085082593402 59.0159414570166 5.0
  endloop
endfacet
facet normal 0.382683432365092 0.923879532511286 0.0
  outer loop
    vertex 271.085082593402 59.0159414570166 5.0
    vertex 271.736271171625 58.7462103162541 0.0
    vertex 271.085082593402 59.0159414570166 0.0
  endloop
endfacet
facet normal 0.382683432365092 0.923879532511286 0.0
  outer loop
    vertex 271.736271171625 58.7462103162541 0.0
    vertex 271.085082593402 59.0159414570166 5.0
    vertex 271.736271171625 58.7462103162541 5.0
  endloop
endfacet
facet normal 0.130526192220031 0.991444861373813 0.0
  outer loop
    vertex 271.736271171625 58.7462103162541 5.0
    vertex 272.435082593402 58.6542100472346 0.0
    vertex 271.736271171625 58.7462103162541 0.0
  endloop
endfacet
facet normal 0.130526192220031 0.991444861373813 0.0
  outer loop
    vertex 272.435082593402 58.6542100472346 0.0
    vertex 271.736271171625 58.7462103162541 5.0
    vertex 272.435082593402 58.6542100472346 5.0
  endloop
endfacet
facet normal -0.130526192220031 0.991444861373813 0.0
  outer loop
    vertex 272.435082593402 58.6542100472346 5.0
    vertex 273.133894015179 58.7462103162541 0.0
    vertex 272.435082593402 58.6542100472346 0.0
  endloop
endfacet
facet normal -0.130526192220031 0.991444861373813 0.0
  outer loop
    vertex 273.133894015179 58.7462103162541 0.0
    vertex 272.435082593402 58.6542100472346 5.0
    vertex 273.133894015179 58.7462103162541 5.0
  endloop
endfacet
facet normal -0.382683432365092 0.923879532511286 0.0
  outer loop
    vertex 273.133894015179 58.7462103162541 5.0
    vertex 273.785082593402 59.0159414570166 0.0
    vertex 273.133894015179 58.7462103162541 0.0
  endloop
endfacet
facet normal -0.382683432365092 0.923879532511286 0.0
  outer loop
    vertex 273.785082593402 59.0159414570166 0.0
    vertex 273.133894015179 58.7462103162541 5.0
    vertex 273.785082593402 59.0159414570166 5.0
  endloop
endfacet
facet normal -0.608761429008714 0.79335334029124 0.0
  outer loop
    vertex 273.785082593402 59.0159414570166 5.0
    vertex 274.344270902606 59.4450217380309 0.0
    vertex 273.785082593402 59.0159414570166 0.0
  endloop
endfacet
facet normal -0.608761429008714 0.79335334029124 0.0
  outer loop
    vertex 274.344270902606 59.4450217380309 0.0
    vertex 273.785082593402 59.0159414570166 5.0
    vertex 274.344270902606 59.4450217380309 5.0
  endloop
endfacet
facet normal -0.793353340291248 0.608761429008704 0.0
  outer loop
    vertex 274.77335118362 60.0042100472346 5.0
    vertex 274.344270902606 59.4450217380309 0.0
    vertex 274.344270902606 59.4450217380309 5.0
  endloop
endfacet
facet normal -0.793353340291248 0.608761429008704 0.0
  outer loop
    vertex 274.344270902606 59.4450217380309 0.0
    vertex 274.77335118362 60.0042100472346 5.0
    vertex 274.77335118362 60.0042100472346 0.0
  endloop
endfacet
facet normal -0.923879532511284 0.382683432365098 0.0
  outer loop
    vertex 275.043082324383 60.6553986254578 5.0
    vertex 274.77335118362 60.0042100472346 0.0
    vertex 274.77335118362 60.0042100472346 5.0
  endloop
endfacet
facet normal -0.923879532511284 0.382683432365098 0.0
  outer loop
    vertex 274.77335118362 60.0042100472346 0.0
    vertex 275.043082324383 60.6553986254578 5.0
    vertex 275.043082324383 60.6553986254578 0.0
  endloop
endfacet
facet normal -0.991444861373807 0.130526192220076 0.0
  outer loop
    vertex 275.135082593402 61.3542100472346 5.0
    vertex 275.043082324383 60.6553986254578 0.0
    vertex 275.043082324383 60.6553986254578 5.0
  endloop
endfacet
facet normal -0.991444861373807 0.130526192220076 0.0
  outer loop
    vertex 275.043082324383 60.6553986254578 0.0
    vertex 275.135082593402 61.3542100472346 5.0
    vertex 275.135082593402 61.3542100472346 0.0
  endloop
endfacet
facet normal -0.991444861373807 -0.130526192220076 -0.0
  outer loop
    vertex 275.043082324383 62.0530214690114 5.0
    vertex 275.135082593402 61.3542100472346 0.0
    vertex 275.135082593402 61.3542100472346 5.0
  endloop
endfacet
facet normal -0.991444861373807 -0.130526192220076 -0.0
  outer loop
    vertex 275.135082593402 61.3542100472346 0.0
    vertex 275.043082324383 62.0530214690114 5.0
    vertex 275.043082324383 62.0530214690114 0.0
  endloop
endfacet
facet normal -0.923879532511281 -0.382683432365103 -0.0
  outer loop
    vertex 274.77335118362 62.7042100472346 5.0
    vertex 275.043082324383 62.0530214690114 0.0
    vertex 275.043082324383 62.0530214690114 5.0
  endloop
endfacet
facet normal -0.923879532511281 -0.382683432365103 -0.0
  outer loop
    vertex 275.043082324383 62.0530214690114 0.0
    vertex 274.77335118362 62.7042100472346 5.0
    vertex 274.77335118362 62.7042100472346 0.0
  endloop
endfacet
facet normal -0.793353340291254 -0.608761429008696 -0.0
  outer loop
    vertex 274.344270902606 63.2633983564383 5.0
    vertex 274.77335118362 62.7042100472346 0.0
    vertex 274.77335118362 62.7042100472346 5.0
  endloop
endfacet
facet normal -0.793353340291254 -0.608761429008696 -0.0
  outer loop
    vertex 274.77335118362 62.7042100472346 0.0
    vertex 274.344270902606 63.2633983564383 5.0
    vertex 274.344270902606 63.2633983564383 0.0
  endloop
endfacet
facet normal -0.608761429008714 -0.79335334029124 -0.0
  outer loop
    vertex 274.344270902606 63.2633983564383 5.0
    vertex 273.785082593402 63.6924786374526 0.0
    vertex 274.344270902606 63.2633983564383 0.0
  endloop
endfacet
facet normal -0.608761429008714 -0.79335334029124 -0.0
  outer loop
    vertex 273.785082593402 63.6924786374526 0.0
    vertex 274.344270902606 63.2633983564383 5.0
    vertex 273.785082593402 63.6924786374526 5.0
  endloop
endfacet
facet normal -0.382683432365078 -0.923879532511292 -0.0
  outer loop
    vertex 273.785082593402 63.6924786374526 5.0
    vertex 273.133894015179 63.9622097782151 0.0
    vertex 273.785082593402 63.6924786374526 0.0
  endloop
endfacet
facet normal -0.382683432365078 -0.923879532511292 -0.0
  outer loop
    vertex 273.133894015179 63.9622097782151 0.0
    vertex 273.785082593402 63.6924786374526 5.0
    vertex 273.133894015179 63.9622097782151 5.0
  endloop
endfacet
endsolid triwheel rival
