solid Default
  facet normal 1.522380e-01 -7.693660e-14 9.883439e-01
    outer loop
      vertex 1.027869e+01 2.018448e+00 1.130133e+01
      vertex 7.690552e+00 1.361845e+01 1.170000e+01
      vertex 7.690552e+00 2.018448e+00 1.170000e+01
    endloop
  endfacet
  facet normal 1.522380e-01 -7.693660e-14 9.883439e-01
    outer loop
      vertex 7.690552e+00 1.361845e+01 1.170000e+01
      vertex 1.027869e+01 2.018448e+00 1.130133e+01
      vertex 1.027869e+01 1.361845e+01 1.130133e+01
    endloop
  endfacet
  facet normal 9.937287e-01 1.808267e-14 1.118178e-01
    outer loop
      vertex 1.769055e+01 2.018448e+00 0.000000e+00
      vertex 1.734973e+01 1.361845e+01 3.028183e+00
      vertex 1.734973e+01 2.018448e+00 3.028183e+00
    endloop
  endfacet
  facet normal 9.937287e-01 1.808267e-14 1.118178e-01
    outer loop
      vertex 1.734973e+01 1.361845e+01 3.028183e+00
      vertex 1.769055e+01 2.018448e+00 0.000000e+00
      vertex 1.769055e+01 1.361845e+01 0.000000e+00
    endloop
  endfacet
  facet normal 9.426681e-01 -1.254227e-13 3.337316e-01
    outer loop
      vertex 1.734973e+01 2.018448e+00 3.028183e+00
      vertex 1.635071e+01 1.361845e+01 5.850000e+00
      vertex 1.635071e+01 2.018448e+00 5.850000e+00
    endloop
  endfacet
  facet normal 9.426681e-01 -1.254227e-13 3.337316e-01
    outer loop
      vertex 1.635071e+01 1.361845e+01 5.850000e+00
      vertex 1.734973e+01 2.018448e+00 3.028183e+00
      vertex 1.734973e+01 1.361845e+01 3.028183e+00
    endloop
  endfacet
  facet normal 3.909697e-10 -3.325680e-10 -1.000000e+00
    outer loop
      vertex -1.770959e+01 1.361845e+01 0.000000e+00
      vertex -1.170959e+01 1.161845e+01 0.000000e+00
      vertex -1.770959e+01 2.018448e+00 0.000000e+00
    endloop
  endfacet
  facet normal 3.909697e-10 -3.325680e-10 -1.000000e+00
    outer loop
      vertex -1.170959e+01 1.161845e+01 0.000000e+00
      vertex -1.770959e+01 1.361845e+01 0.000000e+00
      vertex -3.709595e+00 1.361845e+01 0.000000e+00
    endloop
  endfacet
  facet normal 3.909697e-10 -3.325680e-10 -1.000000e+00
    outer loop
      vertex -1.770959e+01 2.018448e+00 0.000000e+00
      vertex -1.170959e+01 1.161845e+01 0.000000e+00
      vertex -1.370959e+01 5.018448e+00 0.000000e+00
    endloop
  endfacet
  facet normal 3.909697e-10 -3.325680e-10 -1.000000e+00
    outer loop
      vertex -1.170959e+01 1.161845e+01 0.000000e+00
      vertex -3.709595e+00 1.361845e+01 0.000000e+00
      vertex -3.709595e+00 1.161845e+01 0.000000e+00
    endloop
  endfacet
  facet normal 3.909697e-10 -3.325680e-10 -1.000000e+00
    outer loop
      vertex -1.370959e+01 5.018448e+00 0.000000e+00
      vertex -1.170959e+01 6.018448e+00 0.000000e+00
      vertex -8.709595e+00 5.018448e+00 0.000000e+00
    endloop
  endfacet
  facet normal 3.909697e-10 -3.325680e-10 -1.000000e+00
    outer loop
      vertex -1.170959e+01 6.018448e+00 0.000000e+00
      vertex -1.370959e+01 5.018448e+00 0.000000e+00
      vertex -1.170959e+01 1.161845e+01 0.000000e+00
    endloop
  endfacet
  facet normal 3.909697e-10 -3.325680e-10 -1.000000e+00
    outer loop
      vertex -8.709595e+00 5.018448e+00 0.000000e+00
      vertex -1.170959e+01 6.018448e+00 0.000000e+00
      vertex -8.709595e+00 6.018448e+00 0.000000e+00
    endloop
  endfacet
  facet normal 3.909697e-10 -3.325680e-10 -1.000000e+00
    outer loop
      vertex -1.770959e+01 2.018448e+00 0.000000e+00
      vertex -1.370959e+01 3.518448e+00 0.000000e+00
      vertex -9.509644e+00 2.018448e+00 0.000000e+00
    endloop
  endfacet
  facet normal 3.909697e-10 -3.325680e-10 -1.000000e+00
    outer loop
      vertex -1.370959e+01 3.518448e+00 0.000000e+00
      vertex -1.770959e+01 2.018448e+00 0.000000e+00
      vertex -1.370959e+01 5.018448e+00 0.000000e+00
    endloop
  endfacet
  facet normal 3.909697e-10 -3.325680e-10 -1.000000e+00
    outer loop
      vertex -9.509644e+00 2.018448e+00 0.000000e+00
      vertex -1.370959e+01 3.518448e+00 0.000000e+00
      vertex -9.509644e+00 3.518448e+00 0.000000e+00
    endloop
  endfacet
  facet normal -1.000000e+00 0.000000e+00 0.000000e+00
    outer loop
      vertex -1.770959e+01 1.361845e+01 1.170000e+01
      vertex -1.770959e+01 2.018448e+00 0.000000e+00
      vertex -1.770959e+01 2.018448e+00 1.170000e+01
    endloop
  endfacet
  facet normal -1.000000e+00 0.000000e+00 0.000000e+00
    outer loop
      vertex -1.770959e+01 2.018448e+00 0.000000e+00
      vertex -1.770959e+01 1.361845e+01 1.170000e+01
      vertex -1.770959e+01 1.361845e+01 0.000000e+00
    endloop
  endfacet
  facet normal 2.677959e-14 6.900149e-14 -1.000000e+00
    outer loop
      vertex 1.769055e+01 1.361845e+01 0.000000e+00
      vertex 5.690552e+00 5.018448e+00 0.000000e+00
      vertex 5.690552e+00 1.361845e+01 0.000000e+00
    endloop
  endfacet
  facet normal 2.677959e-14 6.900149e-14 -1.000000e+00
    outer loop
      vertex 5.690552e+00 5.018448e+00 0.000000e+00
      vertex 1.769055e+01 1.361845e+01 0.000000e+00
      vertex 7.690552e+00 5.018448e+00 0.000000e+00
    endloop
  endfacet
  facet normal 2.677959e-14 6.900149e-14 -1.000000e+00
    outer loop
      vertex 7.690552e+00 5.018448e+00 0.000000e+00
      vertex 1.769055e+01 1.361845e+01 0.000000e+00
      vertex 7.690552e+00 3.518448e+00 0.000000e+00
    endloop
  endfacet
  facet normal 2.677959e-14 6.900149e-14 -1.000000e+00
    outer loop
      vertex 7.690552e+00 3.518448e+00 0.000000e+00
      vertex 3.490356e+00 2.018448e+00 0.000000e+00
      vertex 3.490356e+00 3.518448e+00 0.000000e+00
    endloop
  endfacet
  facet normal 2.677959e-14 6.900149e-14 -1.000000e+00
    outer loop
      vertex 3.490356e+00 2.018448e+00 0.000000e+00
      vertex 7.690552e+00 3.518448e+00 0.000000e+00
      vertex 1.769055e+01 2.018448e+00 0.000000e+00
    endloop
  endfacet
  facet normal 2.677959e-14 6.900149e-14 -1.000000e+00
    outer loop
      vertex 1.769055e+01 2.018448e+00 0.000000e+00
      vertex 7.690552e+00 3.518448e+00 0.000000e+00
      vertex 1.769055e+01 1.361845e+01 0.000000e+00
    endloop
  endfacet
  facet normal 4.361142e-01 -8.537753e-14 8.998913e-01
    outer loop
      vertex 1.269055e+01 2.018448e+00 1.013250e+01
      vertex 1.027869e+01 1.361845e+01 1.130133e+01
      vertex 1.027869e+01 2.018448e+00 1.130133e+01
    endloop
  endfacet
  facet normal 4.361142e-01 -8.537753e-14 8.998913e-01
    outer loop
      vertex 1.027869e+01 1.361845e+01 1.130133e+01
      vertex 1.269055e+01 2.018448e+00 1.013250e+01
      vertex 1.269055e+01 1.361845e+01 1.013250e+01
    endloop
  endfacet
  facet normal 8.362070e-01 -2.748713e-13 5.484139e-01
    outer loop
      vertex 1.635071e+01 2.018448e+00 5.850000e+00
      vertex 1.476160e+01 1.361845e+01 8.273149e+00
      vertex 1.476160e+01 2.018448e+00 8.273149e+00
    endloop
  endfacet
  facet normal 8.362070e-01 -2.748713e-13 5.484139e-01
    outer loop
      vertex 1.476160e+01 1.361845e+01 8.273149e+00
      vertex 1.635071e+01 2.018448e+00 5.850000e+00
      vertex 1.635071e+01 1.361845e+01 5.850000e+00
    endloop
  endfacet
  facet normal 6.680485e-01 -1.842957e-13 7.441177e-01
    outer loop
      vertex 1.476160e+01 2.018448e+00 8.273149e+00
      vertex 1.269055e+01 1.361845e+01 1.013250e+01
      vertex 1.269055e+01 2.018448e+00 1.013250e+01
    endloop
  endfacet
  facet normal 6.680485e-01 -1.842957e-13 7.441177e-01
    outer loop
      vertex 1.269055e+01 1.361845e+01 1.013250e+01
      vertex 1.476160e+01 2.018448e+00 8.273149e+00
      vertex 1.476160e+01 1.361845e+01 8.273149e+00
    endloop
  endfacet
  facet normal 7.933533e-01 6.293064e-14 -6.087614e-01
    outer loop
      vertex -1.170959e+01 3.518448e+00 6.088242e+00
      vertex -1.057556e+01 5.018448e+00 7.566044e+00
      vertex -1.057556e+01 3.518448e+00 7.566044e+00
    endloop
  endfacet
  facet normal 7.933533e-01 6.293064e-14 -6.087614e-01
    outer loop
      vertex -1.057556e+01 5.018448e+00 7.566044e+00
      vertex -1.170959e+01 3.518448e+00 6.088242e+00
      vertex -1.227600e+01 3.518448e+00 5.350000e+00
    endloop
  endfacet
  facet normal 7.933533e-01 6.293064e-14 -6.087614e-01
    outer loop
      vertex -1.057556e+01 5.018448e+00 7.566044e+00
      vertex -1.227600e+01 3.518448e+00 5.350000e+00
      vertex -1.170959e+01 5.018448e+00 6.088242e+00
    endloop
  endfacet
  facet normal 7.933533e-01 6.293064e-14 -6.087614e-01
    outer loop
      vertex -1.170959e+01 5.018448e+00 6.088242e+00
      vertex -1.227600e+01 3.518448e+00 5.350000e+00
      vertex -1.227600e+01 5.018448e+00 5.350000e+00
    endloop
  endfacet
  facet normal 9.914449e-01 1.396263e-14 -1.305262e-01
    outer loop
      vertex -1.370959e+01 3.518448e+00 0.000000e+00
      vertex -1.334509e+01 5.018448e+00 2.769364e+00
      vertex -1.334509e+01 3.518448e+00 2.769364e+00
    endloop
  endfacet
  facet normal 9.914449e-01 1.396263e-14 -1.305262e-01
    outer loop
      vertex -1.334509e+01 5.018448e+00 2.769364e+00
      vertex -1.370959e+01 3.518448e+00 0.000000e+00
      vertex -1.370959e+01 5.018448e+00 0.000000e+00
    endloop
  endfacet
  facet normal 9.914449e-01 1.396263e-14 -1.305262e-01
    outer loop
      vertex -9.509644e+00 2.018448e+00 0.000000e+00
      vertex -9.287964e+00 3.518448e+00 1.682324e+00
      vertex -9.287964e+00 2.018448e+00 1.682324e+00
    endloop
  endfacet
  facet normal 9.914449e-01 1.396263e-14 -1.305262e-01
    outer loop
      vertex -9.287964e+00 3.518448e+00 1.682324e+00
      vertex -9.509644e+00 2.018448e+00 0.000000e+00
      vertex -9.509644e+00 3.518448e+00 0.000000e+00
    endloop
  endfacet
  facet normal -9.238795e-01 3.875677e-14 -3.826834e-01
    outer loop
      vertex 2.619507e+00 3.518448e+00 3.250000e+00
      vertex 3.268921e+00 2.018448e+00 1.682324e+00
      vertex 2.619507e+00 2.018448e+00 3.250000e+00
    endloop
  endfacet
  facet normal -9.238795e-01 3.875677e-14 -3.826834e-01
    outer loop
      vertex 3.268921e+00 2.018448e+00 1.682324e+00
      vertex 2.619507e+00 3.518448e+00 3.250000e+00
      vertex 3.268921e+00 3.518448e+00 1.682324e+00
    endloop
  endfacet
  facet normal 6.087614e-01 8.178409e-14 -7.933533e-01
    outer loop
      vertex -6.259644e+00 3.518448e+00 5.629166e+00
      vertex -7.605835e+00 2.018448e+00 4.596195e+00
      vertex -7.605835e+00 3.518448e+00 4.596195e+00
    endloop
  endfacet
  facet normal 6.087614e-01 8.178409e-14 -7.933533e-01
    outer loop
      vertex -7.605835e+00 2.018448e+00 4.596195e+00
      vertex -6.259644e+00 3.518448e+00 5.629166e+00
      vertex -6.259644e+00 2.018448e+00 5.629166e+00
    endloop
  endfacet
  facet normal -1.305262e-01 1.016975e-13 -9.914449e-01
    outer loop
      vertex -2.401123e-01 5.018448e+00 1.033541e+01
      vertex -3.009644e+00 3.518448e+00 1.070000e+01
      vertex -3.009644e+00 5.018448e+00 1.070000e+01
    endloop
  endfacet
  facet normal -1.305262e-01 1.016975e-13 -9.914449e-01
    outer loop
      vertex -3.009644e+00 3.518448e+00 1.070000e+01
      vertex -2.401123e-01 5.018448e+00 1.033541e+01
      vertex -2.401123e-01 3.518448e+00 1.033541e+01
    endloop
  endfacet
  facet normal 1.305262e-01 9.025152e-14 -9.914449e-01
    outer loop
      vertex -3.709595e+00 5.018448e+00 1.060784e+01
      vertex -5.778931e+00 3.518448e+00 1.033541e+01
      vertex -5.778931e+00 5.018448e+00 1.033541e+01
    endloop
  endfacet
  facet normal 1.305262e-01 9.025152e-14 -9.914449e-01
    outer loop
      vertex -5.778931e+00 3.518448e+00 1.033541e+01
      vertex -3.709595e+00 5.018448e+00 1.060784e+01
      vertex -3.009644e+00 3.518448e+00 1.070000e+01
    endloop
  endfacet
  facet normal 1.305262e-01 9.025152e-14 -9.914449e-01
    outer loop
      vertex -3.009644e+00 3.518448e+00 1.070000e+01
      vertex -3.709595e+00 5.018448e+00 1.060784e+01
      vertex -3.009644e+00 5.018448e+00 1.070000e+01
    endloop
  endfacet
  facet normal 6.087614e-01 7.067667e-14 -7.933533e-01
    outer loop
      vertex -8.709595e+00 5.018448e+00 8.997908e+00
      vertex -1.057556e+01 3.518448e+00 7.566044e+00
      vertex -1.057556e+01 5.018448e+00 7.566044e+00
    endloop
  endfacet
  facet normal 6.087614e-01 7.067667e-14 -7.933533e-01
    outer loop
      vertex -1.057556e+01 3.518448e+00 7.566044e+00
      vertex -8.709595e+00 5.018448e+00 8.997908e+00
      vertex -8.359497e+00 3.518448e+00 9.266472e+00
    endloop
  endfacet
  facet normal 6.087614e-01 7.067667e-14 -7.933533e-01
    outer loop
      vertex -8.359497e+00 3.518448e+00 9.266472e+00
      vertex -8.709595e+00 5.018448e+00 8.997908e+00
      vertex -8.359497e+00 5.018448e+00 9.266472e+00
    endloop
  endfacet
  facet normal 3.826834e-01 9.505396e-14 -9.238795e-01
    outer loop
      vertex -5.778931e+00 5.018448e+00 1.033541e+01
      vertex -8.359497e+00 3.518448e+00 9.266472e+00
      vertex -8.359497e+00 5.018448e+00 9.266472e+00
    endloop
  endfacet
  facet normal 3.826834e-01 9.505396e-14 -9.238795e-01
    outer loop
      vertex -8.359497e+00 3.518448e+00 9.266472e+00
      vertex -5.778931e+00 5.018448e+00 1.033541e+01
      vertex -5.778931e+00 3.518448e+00 1.033541e+01
    endloop
  endfacet
  facet normal 9.238795e-01 3.980813e-14 -3.826834e-01
    outer loop
      vertex -1.334509e+01 3.518448e+00 2.769364e+00
      vertex -1.227600e+01 5.018448e+00 5.350000e+00
      vertex -1.227600e+01 3.518448e+00 5.350000e+00
    endloop
  endfacet
  facet normal 9.238795e-01 3.980813e-14 -3.826834e-01
    outer loop
      vertex -1.227600e+01 5.018448e+00 5.350000e+00
      vertex -1.334509e+01 3.518448e+00 2.769364e+00
      vertex -1.334509e+01 5.018448e+00 2.769364e+00
    endloop
  endfacet
  facet normal -9.914449e-01 1.283439e-14 -1.305262e-01
    outer loop
      vertex 3.268921e+00 3.518448e+00 1.682324e+00
      vertex 3.490356e+00 2.018448e+00 0.000000e+00
      vertex 3.268921e+00 2.018448e+00 1.682324e+00
    endloop
  endfacet
  facet normal -9.914449e-01 1.283439e-14 -1.305262e-01
    outer loop
      vertex 3.490356e+00 2.018448e+00 0.000000e+00
      vertex 3.268921e+00 3.518448e+00 1.682324e+00
      vertex 3.490356e+00 3.518448e+00 0.000000e+00
    endloop
  endfacet
  facet normal 1.305262e-01 1.018461e-13 -9.914449e-01
    outer loop
      vertex -3.009644e+00 3.518448e+00 6.500000e+00
      vertex -4.691772e+00 2.018448e+00 6.278519e+00
      vertex -4.691772e+00 3.518448e+00 6.278519e+00
    endloop
  endfacet
  facet normal 1.305262e-01 1.018461e-13 -9.914449e-01
    outer loop
      vertex -4.691772e+00 2.018448e+00 6.278519e+00
      vertex -3.009644e+00 3.518448e+00 6.500000e+00
      vertex -3.009644e+00 2.018448e+00 6.500000e+00
    endloop
  endfacet
  facet normal 7.933533e-01 6.294076e-14 -6.087614e-01
    outer loop
      vertex -8.638794e+00 2.018448e+00 3.250000e+00
      vertex -7.605835e+00 3.518448e+00 4.596195e+00
      vertex -7.605835e+00 2.018448e+00 4.596195e+00
    endloop
  endfacet
  facet normal 7.933533e-01 6.294076e-14 -6.087614e-01
    outer loop
      vertex -7.605835e+00 3.518448e+00 4.596195e+00
      vertex -8.638794e+00 2.018448e+00 3.250000e+00
      vertex -8.638794e+00 3.518448e+00 3.250000e+00
    endloop
  endfacet
  facet normal -7.933533e-01 6.203794e-14 -6.087614e-01
    outer loop
      vertex 1.586548e+00 3.518448e+00 4.596195e+00
      vertex 2.619507e+00 2.018448e+00 3.250000e+00
      vertex 1.586548e+00 2.018448e+00 4.596195e+00
    endloop
  endfacet
  facet normal -7.933533e-01 6.203794e-14 -6.087614e-01
    outer loop
      vertex 2.619507e+00 2.018448e+00 3.250000e+00
      vertex 1.586548e+00 3.518448e+00 4.596195e+00
      vertex 2.619507e+00 3.518448e+00 3.250000e+00
    endloop
  endfacet
  facet normal -1.305262e-01 1.016975e-13 -9.914449e-01
    outer loop
      vertex -1.327271e+00 3.518448e+00 6.278519e+00
      vertex -3.009644e+00 2.018448e+00 6.500000e+00
      vertex -3.009644e+00 3.518448e+00 6.500000e+00
    endloop
  endfacet
  facet normal -1.305262e-01 1.016975e-13 -9.914449e-01
    outer loop
      vertex -3.009644e+00 2.018448e+00 6.500000e+00
      vertex -1.327271e+00 3.518448e+00 6.278519e+00
      vertex -1.327271e+00 2.018448e+00 6.278519e+00
    endloop
  endfacet
  facet normal -6.087614e-01 8.109133e-14 -7.933533e-01
    outer loop
      vertex 1.586548e+00 3.518448e+00 4.596195e+00
      vertex 2.403564e-01 2.018448e+00 5.629166e+00
      vertex 2.403564e-01 3.518448e+00 5.629166e+00
    endloop
  endfacet
  facet normal -6.087614e-01 8.109133e-14 -7.933533e-01
    outer loop
      vertex 2.403564e-01 2.018448e+00 5.629166e+00
      vertex 1.586548e+00 3.518448e+00 4.596195e+00
      vertex 1.586548e+00 2.018448e+00 4.596195e+00
    endloop
  endfacet
  facet normal 9.238795e-01 3.980813e-14 -3.826834e-01
    outer loop
      vertex -9.287964e+00 2.018448e+00 1.682324e+00
      vertex -8.638794e+00 3.518448e+00 3.250000e+00
      vertex -8.638794e+00 2.018448e+00 3.250000e+00
    endloop
  endfacet
  facet normal 9.238795e-01 3.980813e-14 -3.826834e-01
    outer loop
      vertex -8.638794e+00 3.518448e+00 3.250000e+00
      vertex -9.287964e+00 2.018448e+00 1.682324e+00
      vertex -9.287964e+00 3.518448e+00 1.682324e+00
    endloop
  endfacet
  facet normal 3.826834e-01 9.505396e-14 -9.238795e-01
    outer loop
      vertex -4.691772e+00 3.518448e+00 6.278519e+00
      vertex -6.259644e+00 2.018448e+00 5.629166e+00
      vertex -6.259644e+00 3.518448e+00 5.629166e+00
    endloop
  endfacet
  facet normal 3.826834e-01 9.505396e-14 -9.238795e-01
    outer loop
      vertex -6.259644e+00 2.018448e+00 5.629166e+00
      vertex -4.691772e+00 3.518448e+00 6.278519e+00
      vertex -4.691772e+00 2.018448e+00 6.278519e+00
    endloop
  endfacet
  facet normal -3.826834e-01 9.461847e-14 -9.238795e-01
    outer loop
      vertex 2.403564e-01 3.518448e+00 5.629166e+00
      vertex -1.327271e+00 2.018448e+00 6.278519e+00
      vertex -1.327271e+00 3.518448e+00 6.278519e+00
    endloop
  endfacet
  facet normal -3.826834e-01 9.461847e-14 -9.238795e-01
    outer loop
      vertex -1.327271e+00 2.018448e+00 6.278519e+00
      vertex 2.403564e-01 3.518448e+00 5.629166e+00
      vertex 2.403564e-01 2.018448e+00 5.629166e+00
    endloop
  endfacet
  facet normal -3.826834e-01 -5.028880e-14 -9.238795e-01
    outer loop
      vertex 2.340454e+00 5.018448e+00 9.266472e+00
      vertex -2.401123e-01 3.518448e+00 1.033541e+01
      vertex -2.401123e-01 5.018448e+00 1.033541e+01
    endloop
  endfacet
  facet normal -3.826834e-01 -5.028880e-14 -9.238795e-01
    outer loop
      vertex -2.401123e-01 3.518448e+00 1.033541e+01
      vertex 2.340454e+00 5.018448e+00 9.266472e+00
      vertex 2.340454e+00 3.518448e+00 9.266472e+00
    endloop
  endfacet
  facet normal -6.087614e-01 -1.438996e-13 -7.933533e-01
    outer loop
      vertex 3.078735e+00 5.018448e+00 8.700001e+00
      vertex 2.340454e+00 3.518448e+00 9.266472e+00
      vertex 2.340454e+00 5.018448e+00 9.266472e+00
    endloop
  endfacet
  facet normal -6.087614e-01 -1.438996e-13 -7.933533e-01
    outer loop
      vertex 2.340454e+00 3.518448e+00 9.266472e+00
      vertex 3.078735e+00 5.018448e+00 8.700001e+00
      vertex 4.556519e+00 3.518448e+00 7.566044e+00
    endloop
  endfacet
  facet normal -6.087614e-01 -1.438996e-13 -7.933533e-01
    outer loop
      vertex 4.556519e+00 3.518448e+00 7.566044e+00
      vertex 3.078735e+00 5.018448e+00 8.700001e+00
      vertex 4.556519e+00 5.018448e+00 7.566044e+00
    endloop
  endfacet
  facet normal 3.352841e-14 2.112730e-14 -1.000000e+00
    outer loop
      vertex 5.690552e+00 1.361845e+01 8.700001e+00
      vertex -3.709595e+00 1.161845e+01 8.700001e+00
      vertex -3.709595e+00 1.361845e+01 8.700001e+00
    endloop
  endfacet
  facet normal 3.352841e-14 2.112730e-14 -1.000000e+00
    outer loop
      vertex -3.709595e+00 1.161845e+01 8.700001e+00
      vertex 5.690552e+00 1.361845e+01 8.700001e+00
      vertex -3.709595e+00 6.018448e+00 8.700001e+00
    endloop
  endfacet
  facet normal 3.352841e-14 2.112730e-14 -1.000000e+00
    outer loop
      vertex -3.709595e+00 6.018448e+00 8.700001e+00
      vertex 5.690552e+00 1.361845e+01 8.700001e+00
      vertex -3.709595e+00 5.018448e+00 8.700001e+00
    endloop
  endfacet
  facet normal 3.352841e-14 2.112730e-14 -1.000000e+00
    outer loop
      vertex -3.709595e+00 5.018448e+00 8.700001e+00
      vertex 5.690552e+00 1.361845e+01 8.700001e+00
      vertex 3.078735e+00 5.018448e+00 8.700001e+00
    endloop
  endfacet
  facet normal 3.352841e-14 2.112730e-14 -1.000000e+00
    outer loop
      vertex 3.078735e+00 5.018448e+00 8.700001e+00
      vertex 5.690552e+00 1.361845e+01 8.700001e+00
      vertex 5.690552e+00 5.018448e+00 8.700001e+00
    endloop
  endfacet
  facet normal 3.352841e-14 2.112730e-14 -1.000000e+00
    outer loop
      vertex -3.709595e+00 1.161845e+01 8.700001e+00
      vertex -1.170959e+01 6.018448e+00 8.700001e+00
      vertex -1.170959e+01 1.161845e+01 8.700001e+00
    endloop
  endfacet
  facet normal 3.352841e-14 2.112730e-14 -1.000000e+00
    outer loop
      vertex -1.170959e+01 6.018448e+00 8.700001e+00
      vertex -3.709595e+00 1.161845e+01 8.700001e+00
      vertex -3.709595e+00 6.018448e+00 8.700001e+00
    endloop
  endfacet
  facet normal 1.000000e+00 5.689893e-16 -5.600925e-15
    outer loop
      vertex -8.709595e+00 5.018448e+00 0.000000e+00
      vertex -8.709595e+00 6.018448e+00 6.800001e+00
      vertex -8.709595e+00 5.018448e+00 6.800001e+00
    endloop
  endfacet
  facet normal 1.000000e+00 5.689893e-16 -5.600925e-15
    outer loop
      vertex -8.709595e+00 6.018448e+00 6.800001e+00
      vertex -8.709595e+00 5.018448e+00 0.000000e+00
      vertex -8.709595e+00 6.018448e+00 0.000000e+00
    endloop
  endfacet
  facet normal 5.689893e-16 -1.000000e+00 -1.026500e-13
    outer loop
      vertex 1.769055e+01 2.018448e+00 0.000000e+00
      vertex 3.268921e+00 2.018448e+00 1.682324e+00
      vertex 3.490356e+00 2.018448e+00 0.000000e+00
    endloop
  endfacet
  facet normal 5.689893e-16 -1.000000e+00 -1.026500e-13
    outer loop
      vertex 3.268921e+00 2.018448e+00 1.682324e+00
      vertex 1.769055e+01 2.018448e+00 0.000000e+00
      vertex 1.734973e+01 2.018448e+00 3.028183e+00
    endloop
  endfacet
  facet normal 5.689893e-16 -1.000000e+00 -1.026500e-13
    outer loop
      vertex 3.268921e+00 2.018448e+00 1.682324e+00
      vertex 1.734973e+01 2.018448e+00 3.028183e+00
      vertex 2.619507e+00 2.018448e+00 3.250000e+00
    endloop
  endfacet
  facet normal 5.689893e-16 -1.000000e+00 -1.026500e-13
    outer loop
      vertex 2.619507e+00 2.018448e+00 3.250000e+00
      vertex 1.734973e+01 2.018448e+00 3.028183e+00
      vertex 1.635071e+01 2.018448e+00 5.850000e+00
    endloop
  endfacet
  facet normal 5.689893e-16 -1.000000e+00 -1.026500e-13
    outer loop
      vertex 2.619507e+00 2.018448e+00 3.250000e+00
      vertex 1.635071e+01 2.018448e+00 5.850000e+00
      vertex 1.586548e+00 2.018448e+00 4.596195e+00
    endloop
  endfacet
  facet normal 5.689893e-16 -1.000000e+00 -1.026500e-13
    outer loop
      vertex 1.586548e+00 2.018448e+00 4.596195e+00
      vertex 1.635071e+01 2.018448e+00 5.850000e+00
      vertex 2.403564e-01 2.018448e+00 5.629166e+00
    endloop
  endfacet
  facet normal 5.689893e-16 -1.000000e+00 -1.026500e-13
    outer loop
      vertex 2.403564e-01 2.018448e+00 5.629166e+00
      vertex 1.635071e+01 2.018448e+00 5.850000e+00
      vertex -1.327271e+00 2.018448e+00 6.278519e+00
    endloop
  endfacet
  facet normal 5.689893e-16 -1.000000e+00 -1.026500e-13
    outer loop
      vertex -1.327271e+00 2.018448e+00 6.278519e+00
      vertex 1.635071e+01 2.018448e+00 5.850000e+00
      vertex 1.476160e+01 2.018448e+00 8.273149e+00
    endloop
  endfacet
  facet normal 5.689893e-16 -1.000000e+00 -1.026500e-13
    outer loop
      vertex -1.327271e+00 2.018448e+00 6.278519e+00
      vertex 1.476160e+01 2.018448e+00 8.273149e+00
      vertex -3.009644e+00 2.018448e+00 6.500000e+00
    endloop
  endfacet
  facet normal 5.689893e-16 -1.000000e+00 -1.026500e-13
    outer loop
      vertex -9.509644e+00 2.018448e+00 0.000000e+00
      vertex -1.770959e+01 2.018448e+00 1.170000e+01
      vertex -1.770959e+01 2.018448e+00 0.000000e+00
    endloop
  endfacet
  facet normal 5.689893e-16 -1.000000e+00 -1.026500e-13
    outer loop
      vertex -1.770959e+01 2.018448e+00 1.170000e+01
      vertex -9.509644e+00 2.018448e+00 0.000000e+00
      vertex -9.287964e+00 2.018448e+00 1.682324e+00
    endloop
  endfacet
  facet normal 5.689893e-16 -1.000000e+00 -1.026500e-13
    outer loop
      vertex -1.770959e+01 2.018448e+00 1.170000e+01
      vertex -9.287964e+00 2.018448e+00 1.682324e+00
      vertex -8.638794e+00 2.018448e+00 3.250000e+00
    endloop
  endfacet
  facet normal 5.689893e-16 -1.000000e+00 -1.026500e-13
    outer loop
      vertex -1.770959e+01 2.018448e+00 1.170000e+01
      vertex -8.638794e+00 2.018448e+00 3.250000e+00
      vertex -7.605835e+00 2.018448e+00 4.596195e+00
    endloop
  endfacet
  facet normal 5.689893e-16 -1.000000e+00 -1.026500e-13
    outer loop
      vertex -1.770959e+01 2.018448e+00 1.170000e+01
      vertex -7.605835e+00 2.018448e+00 4.596195e+00
      vertex -6.259644e+00 2.018448e+00 5.629166e+00
    endloop
  endfacet
  facet normal 5.689893e-16 -1.000000e+00 -1.026500e-13
    outer loop
      vertex -1.770959e+01 2.018448e+00 1.170000e+01
      vertex -6.259644e+00 2.018448e+00 5.629166e+00
      vertex -4.691772e+00 2.018448e+00 6.278519e+00
    endloop
  endfacet
  facet normal 5.689893e-16 -1.000000e+00 -1.026500e-13
    outer loop
      vertex -1.770959e+01 2.018448e+00 1.170000e+01
      vertex -4.691772e+00 2.018448e+00 6.278519e+00
      vertex -3.009644e+00 2.018448e+00 6.500000e+00
    endloop
  endfacet
  facet normal 5.689893e-16 -1.000000e+00 -1.026500e-13
    outer loop
      vertex -1.770959e+01 2.018448e+00 1.170000e+01
      vertex -3.009644e+00 2.018448e+00 6.500000e+00
      vertex 1.476160e+01 2.018448e+00 8.273149e+00
    endloop
  endfacet
  facet normal 5.689893e-16 -1.000000e+00 -1.026500e-13
    outer loop
      vertex -1.770959e+01 2.018448e+00 1.170000e+01
      vertex 1.476160e+01 2.018448e+00 8.273149e+00
      vertex 1.269055e+01 2.018448e+00 1.013250e+01
    endloop
  endfacet
  facet normal 5.689893e-16 -1.000000e+00 -1.026500e-13
    outer loop
      vertex -1.770959e+01 2.018448e+00 1.170000e+01
      vertex 1.269055e+01 2.018448e+00 1.013250e+01
      vertex 1.027869e+01 2.018448e+00 1.130133e+01
    endloop
  endfacet
  facet normal 5.689893e-16 -1.000000e+00 -1.026500e-13
    outer loop
      vertex -1.770959e+01 2.018448e+00 1.170000e+01
      vertex 1.027869e+01 2.018448e+00 1.130133e+01
      vertex 7.690552e+00 2.018448e+00 1.170000e+01
    endloop
  endfacet
  facet normal 6.591251e-14 -1.000000e+00 -1.477224e-13
    outer loop
      vertex -8.709595e+00 5.018448e+00 6.800001e+00
      vertex -1.370959e+01 5.018448e+00 0.000000e+00
      vertex -8.709595e+00 5.018448e+00 0.000000e+00
    endloop
  endfacet
  facet normal 6.591251e-14 -1.000000e+00 -1.477224e-13
    outer loop
      vertex -1.370959e+01 5.018448e+00 0.000000e+00
      vertex -8.709595e+00 5.018448e+00 6.800001e+00
      vertex -1.334509e+01 5.018448e+00 2.769364e+00
    endloop
  endfacet
  facet normal 6.591251e-14 -1.000000e+00 -1.477224e-13
    outer loop
      vertex -1.334509e+01 5.018448e+00 2.769364e+00
      vertex -8.709595e+00 5.018448e+00 6.800001e+00
      vertex -1.227600e+01 5.018448e+00 5.350000e+00
    endloop
  endfacet
  facet normal 6.591251e-14 -1.000000e+00 -1.477224e-13
    outer loop
      vertex -1.227600e+01 5.018448e+00 5.350000e+00
      vertex -8.709595e+00 5.018448e+00 6.800001e+00
      vertex -1.170959e+01 5.018448e+00 6.088242e+00
    endloop
  endfacet
  facet normal 6.591251e-14 -1.000000e+00 -1.477224e-13
    outer loop
      vertex -1.170959e+01 5.018448e+00 6.088242e+00
      vertex -8.709595e+00 5.018448e+00 6.800001e+00
      vertex -1.057556e+01 5.018448e+00 7.566044e+00
    endloop
  endfacet
  facet normal 6.591251e-14 -1.000000e+00 -1.477224e-13
    outer loop
      vertex -1.057556e+01 5.018448e+00 7.566044e+00
      vertex -8.709595e+00 5.018448e+00 6.800001e+00
      vertex -3.709595e+00 5.018448e+00 8.700001e+00
    endloop
  endfacet
  facet normal 6.591251e-14 -1.000000e+00 -1.477224e-13
    outer loop
      vertex -1.057556e+01 5.018448e+00 7.566044e+00
      vertex -3.709595e+00 5.018448e+00 8.700001e+00
      vertex -8.709595e+00 5.018448e+00 8.997908e+00
    endloop
  endfacet
  facet normal 6.591251e-14 -1.000000e+00 -1.477224e-13
    outer loop
      vertex -8.709595e+00 5.018448e+00 8.997908e+00
      vertex -3.709595e+00 5.018448e+00 8.700001e+00
      vertex 3.078735e+00 5.018448e+00 8.700001e+00
    endloop
  endfacet
  facet normal 6.591251e-14 -1.000000e+00 -1.477224e-13
    outer loop
      vertex -8.709595e+00 5.018448e+00 8.997908e+00
      vertex 3.078735e+00 5.018448e+00 8.700001e+00
      vertex 2.340454e+00 5.018448e+00 9.266472e+00
    endloop
  endfacet
  facet normal 6.591251e-14 -1.000000e+00 -1.477224e-13
    outer loop
      vertex -8.709595e+00 5.018448e+00 8.997908e+00
      vertex 2.340454e+00 5.018448e+00 9.266472e+00
      vertex -8.359497e+00 5.018448e+00 9.266472e+00
    endloop
  endfacet
  facet normal 6.591251e-14 -1.000000e+00 -1.477224e-13
    outer loop
      vertex -8.359497e+00 5.018448e+00 9.266472e+00
      vertex 2.340454e+00 5.018448e+00 9.266472e+00
      vertex -2.401123e-01 5.018448e+00 1.033541e+01
    endloop
  endfacet
  facet normal 6.591251e-14 -1.000000e+00 -1.477224e-13
    outer loop
      vertex -8.359497e+00 5.018448e+00 9.266472e+00
      vertex -2.401123e-01 5.018448e+00 1.033541e+01
      vertex -5.778931e+00 5.018448e+00 1.033541e+01
    endloop
  endfacet
  facet normal 6.591251e-14 -1.000000e+00 -1.477224e-13
    outer loop
      vertex -5.778931e+00 5.018448e+00 1.033541e+01
      vertex -2.401123e-01 5.018448e+00 1.033541e+01
      vertex -3.709595e+00 5.018448e+00 1.060784e+01
    endloop
  endfacet
  facet normal 6.591251e-14 -1.000000e+00 -1.477224e-13
    outer loop
      vertex -3.709595e+00 5.018448e+00 1.060784e+01
      vertex -2.401123e-01 5.018448e+00 1.033541e+01
      vertex -3.009644e+00 5.018448e+00 1.070000e+01
    endloop
  endfacet
  facet normal -5.689893e-16 1.000000e+00 1.029689e-13
    outer loop
      vertex -1.370959e+01 3.518448e+00 0.000000e+00
      vertex -9.287964e+00 3.518448e+00 1.682324e+00
      vertex -9.509644e+00 3.518448e+00 0.000000e+00
    endloop
  endfacet
  facet normal -5.689893e-16 1.000000e+00 1.029689e-13
    outer loop
      vertex -9.287964e+00 3.518448e+00 1.682324e+00
      vertex -1.370959e+01 3.518448e+00 0.000000e+00
      vertex -1.334509e+01 3.518448e+00 2.769364e+00
    endloop
  endfacet
  facet normal -5.689893e-16 1.000000e+00 1.029689e-13
    outer loop
      vertex -9.287964e+00 3.518448e+00 1.682324e+00
      vertex -1.334509e+01 3.518448e+00 2.769364e+00
      vertex -8.638794e+00 3.518448e+00 3.250000e+00
    endloop
  endfacet
  facet normal -5.689893e-16 1.000000e+00 1.029689e-13
    outer loop
      vertex -8.638794e+00 3.518448e+00 3.250000e+00
      vertex -1.334509e+01 3.518448e+00 2.769364e+00
      vertex -1.227600e+01 3.518448e+00 5.350000e+00
    endloop
  endfacet
  facet normal -5.689893e-16 1.000000e+00 1.029689e-13
    outer loop
      vertex -8.638794e+00 3.518448e+00 3.250000e+00
      vertex -1.227600e+01 3.518448e+00 5.350000e+00
      vertex -7.605835e+00 3.518448e+00 4.596195e+00
    endloop
  endfacet
  facet normal -5.689893e-16 1.000000e+00 1.029689e-13
    outer loop
      vertex -7.605835e+00 3.518448e+00 4.596195e+00
      vertex -1.227600e+01 3.518448e+00 5.350000e+00
      vertex -6.259644e+00 3.518448e+00 5.629166e+00
    endloop
  endfacet
  facet normal -5.689893e-16 1.000000e+00 1.029689e-13
    outer loop
      vertex -6.259644e+00 3.518448e+00 5.629166e+00
      vertex -1.227600e+01 3.518448e+00 5.350000e+00
      vertex -1.170959e+01 3.518448e+00 6.088242e+00
    endloop
  endfacet
  facet normal -5.689893e-16 1.000000e+00 1.029689e-13
    outer loop
      vertex -6.259644e+00 3.518448e+00 5.629166e+00
      vertex -1.170959e+01 3.518448e+00 6.088242e+00
      vertex -4.691772e+00 3.518448e+00 6.278519e+00
    endloop
  endfacet
  facet normal -5.689893e-16 1.000000e+00 1.029689e-13
    outer loop
      vertex -4.691772e+00 3.518448e+00 6.278519e+00
      vertex -1.170959e+01 3.518448e+00 6.088242e+00
      vertex -1.057556e+01 3.518448e+00 7.566044e+00
    endloop
  endfacet
  facet normal -5.689893e-16 1.000000e+00 1.029689e-13
    outer loop
      vertex -4.691772e+00 3.518448e+00 6.278519e+00
      vertex -1.057556e+01 3.518448e+00 7.566044e+00
      vertex -3.009644e+00 3.518448e+00 6.500000e+00
    endloop
  endfacet
  facet normal -5.689893e-16 1.000000e+00 1.029689e-13
    outer loop
      vertex 3.268921e+00 3.518448e+00 1.682324e+00
      vertex 7.690552e+00 3.518448e+00 0.000000e+00
      vertex 3.490356e+00 3.518448e+00 0.000000e+00
    endloop
  endfacet
  facet normal -5.689893e-16 1.000000e+00 1.029689e-13
    outer loop
      vertex 7.690552e+00 3.518448e+00 0.000000e+00
      vertex 3.268921e+00 3.518448e+00 1.682324e+00
      vertex 7.325806e+00 3.518448e+00 2.769364e+00
    endloop
  endfacet
  facet normal -5.689893e-16 1.000000e+00 1.029689e-13
    outer loop
      vertex 7.325806e+00 3.518448e+00 2.769364e+00
      vertex 3.268921e+00 3.518448e+00 1.682324e+00
      vertex 2.619507e+00 3.518448e+00 3.250000e+00
    endloop
  endfacet
  facet normal -5.689893e-16 1.000000e+00 1.029689e-13
    outer loop
      vertex 7.325806e+00 3.518448e+00 2.769364e+00
      vertex 2.619507e+00 3.518448e+00 3.250000e+00
      vertex 6.256958e+00 3.518448e+00 5.350000e+00
    endloop
  endfacet
  facet normal -5.689893e-16 1.000000e+00 1.029689e-13
    outer loop
      vertex 6.256958e+00 3.518448e+00 5.350000e+00
      vertex 2.619507e+00 3.518448e+00 3.250000e+00
      vertex 1.586548e+00 3.518448e+00 4.596195e+00
    endloop
  endfacet
  facet normal -5.689893e-16 1.000000e+00 1.029689e-13
    outer loop
      vertex 6.256958e+00 3.518448e+00 5.350000e+00
      vertex 1.586548e+00 3.518448e+00 4.596195e+00
      vertex 2.403564e-01 3.518448e+00 5.629166e+00
    endloop
  endfacet
  facet normal -5.689893e-16 1.000000e+00 1.029689e-13
    outer loop
      vertex 6.256958e+00 3.518448e+00 5.350000e+00
      vertex 2.403564e-01 3.518448e+00 5.629166e+00
      vertex 5.690552e+00 3.518448e+00 6.088242e+00
    endloop
  endfacet
  facet normal -5.689893e-16 1.000000e+00 1.029689e-13
    outer loop
      vertex 5.690552e+00 3.518448e+00 6.088242e+00
      vertex 2.403564e-01 3.518448e+00 5.629166e+00
      vertex -1.327271e+00 3.518448e+00 6.278519e+00
    endloop
  endfacet
  facet normal -5.689893e-16 1.000000e+00 1.029689e-13
    outer loop
      vertex 5.690552e+00 3.518448e+00 6.088242e+00
      vertex -1.327271e+00 3.518448e+00 6.278519e+00
      vertex 4.556519e+00 3.518448e+00 7.566044e+00
    endloop
  endfacet
  facet normal -5.689893e-16 1.000000e+00 1.029689e-13
    outer loop
      vertex 4.556519e+00 3.518448e+00 7.566044e+00
      vertex -1.327271e+00 3.518448e+00 6.278519e+00
      vertex -3.009644e+00 3.518448e+00 6.500000e+00
    endloop
  endfacet
  facet normal -5.689893e-16 1.000000e+00 1.029689e-13
    outer loop
      vertex 4.556519e+00 3.518448e+00 7.566044e+00
      vertex -3.009644e+00 3.518448e+00 6.500000e+00
      vertex -1.057556e+01 3.518448e+00 7.566044e+00
    endloop
  endfacet
  facet normal -5.689893e-16 1.000000e+00 1.029689e-13
    outer loop
      vertex 4.556519e+00 3.518448e+00 7.566044e+00
      vertex -1.057556e+01 3.518448e+00 7.566044e+00
      vertex -8.359497e+00 3.518448e+00 9.266472e+00
    endloop
  endfacet
  facet normal -5.689893e-16 1.000000e+00 1.029689e-13
    outer loop
      vertex 4.556519e+00 3.518448e+00 7.566044e+00
      vertex -8.359497e+00 3.518448e+00 9.266472e+00
      vertex 2.340454e+00 3.518448e+00 9.266472e+00
    endloop
  endfacet
  facet normal -5.689893e-16 1.000000e+00 1.029689e-13
    outer loop
      vertex 2.340454e+00 3.518448e+00 9.266472e+00
      vertex -8.359497e+00 3.518448e+00 9.266472e+00
      vertex -5.778931e+00 3.518448e+00 1.033541e+01
    endloop
  endfacet
  facet normal -5.689893e-16 1.000000e+00 1.029689e-13
    outer loop
      vertex 2.340454e+00 3.518448e+00 9.266472e+00
      vertex -5.778931e+00 3.518448e+00 1.033541e+01
      vertex -2.401123e-01 3.518448e+00 1.033541e+01
    endloop
  endfacet
  facet normal -5.689893e-16 1.000000e+00 1.029689e-13
    outer loop
      vertex -2.401123e-01 3.518448e+00 1.033541e+01
      vertex -5.778931e+00 3.518448e+00 1.033541e+01
      vertex -3.009644e+00 3.518448e+00 1.070000e+01
    endloop
  endfacet
  facet normal 1.261878e-14 1.000000e+00 9.371442e-14
    outer loop
      vertex -1.170959e+01 6.018448e+00 0.000000e+00
      vertex -8.709595e+00 6.018448e+00 6.800001e+00
      vertex -8.709595e+00 6.018448e+00 0.000000e+00
    endloop
  endfacet
  facet normal 1.261878e-14 1.000000e+00 9.371442e-14
    outer loop
      vertex -8.709595e+00 6.018448e+00 6.800001e+00
      vertex -1.170959e+01 6.018448e+00 0.000000e+00
      vertex -1.170959e+01 6.018448e+00 8.700001e+00
    endloop
  endfacet
  facet normal 1.261878e-14 1.000000e+00 9.371442e-14
    outer loop
      vertex -8.709595e+00 6.018448e+00 6.800001e+00
      vertex -1.170959e+01 6.018448e+00 8.700001e+00
      vertex -3.709595e+00 6.018448e+00 8.700001e+00
    endloop
  endfacet
  facet normal -2.598881e-14 -1.000000e+00 -8.231450e-14
    outer loop
      vertex -3.709595e+00 1.161845e+01 0.000000e+00
      vertex -1.170959e+01 1.161845e+01 8.700001e+00
      vertex -1.170959e+01 1.161845e+01 0.000000e+00
    endloop
  endfacet
  facet normal -2.598881e-14 -1.000000e+00 -8.231450e-14
    outer loop
      vertex -1.170959e+01 1.161845e+01 8.700001e+00
      vertex -3.709595e+00 1.161845e+01 0.000000e+00
      vertex -3.709595e+00 1.161845e+01 8.700001e+00
    endloop
  endfacet
  facet normal 1.000000e+00 1.227414e-27 -8.496981e-14
    outer loop
      vertex -1.170959e+01 6.018448e+00 0.000000e+00
      vertex -1.170959e+01 1.161845e+01 8.700001e+00
      vertex -1.170959e+01 6.018448e+00 8.700001e+00
    endloop
  endfacet
  facet normal 1.000000e+00 1.227414e-27 -8.496981e-14
    outer loop
      vertex -1.170959e+01 1.161845e+01 8.700001e+00
      vertex -1.170959e+01 6.018448e+00 0.000000e+00
      vertex -1.170959e+01 1.161845e+01 0.000000e+00
    endloop
  endfacet
  facet normal 3.552178e-01 9.176174e-14 -9.347836e-01
    outer loop
      vertex -3.709595e+00 6.018448e+00 8.700001e+00
      vertex -8.709595e+00 5.018448e+00 6.800001e+00
      vertex -8.709595e+00 6.018448e+00 6.800001e+00
    endloop
  endfacet
  facet normal 3.552178e-01 9.176174e-14 -9.347836e-01
    outer loop
      vertex -8.709595e+00 5.018448e+00 6.800001e+00
      vertex -3.709595e+00 6.018448e+00 8.700001e+00
      vertex -3.709595e+00 5.018448e+00 8.700001e+00
    endloop
  endfacet
  facet normal 1.000000e+00 0.000000e+00 0.000000e+00
    outer loop
      vertex -3.709595e+00 1.161845e+01 0.000000e+00
      vertex -3.709595e+00 1.361845e+01 8.700001e+00
      vertex -3.709595e+00 1.161845e+01 8.700001e+00
    endloop
  endfacet
  facet normal 1.000000e+00 0.000000e+00 0.000000e+00
    outer loop
      vertex -3.709595e+00 1.361845e+01 8.700001e+00
      vertex -3.709595e+00 1.161845e+01 0.000000e+00
      vertex -3.709595e+00 1.361845e+01 0.000000e+00
    endloop
  endfacet
  facet normal 1.225574e-13 1.000000e+00 3.879092e-13
    outer loop
      vertex 4.556519e+00 5.018448e+00 7.566044e+00
      vertex 5.690552e+00 5.018448e+00 8.700001e+00
      vertex 5.690552e+00 5.018448e+00 6.088242e+00
    endloop
  endfacet
  facet normal 1.225574e-13 1.000000e+00 3.879092e-13
    outer loop
      vertex 5.690552e+00 5.018448e+00 8.700001e+00
      vertex 4.556519e+00 5.018448e+00 7.566044e+00
      vertex 3.078735e+00 5.018448e+00 8.700001e+00
    endloop
  endfacet
  facet normal 1.509943e-11 -3.053020e-11 1.000000e+00
    outer loop
      vertex 7.690552e+00 2.018448e+00 1.170000e+01
      vertex -1.770959e+01 1.361845e+01 1.170000e+01
      vertex -1.770959e+01 2.018448e+00 1.170000e+01
    endloop
  endfacet
  facet normal 1.509943e-11 -3.053020e-11 1.000000e+00
    outer loop
      vertex -1.770959e+01 1.361845e+01 1.170000e+01
      vertex 7.690552e+00 2.018448e+00 1.170000e+01
      vertex 7.690552e+00 1.361845e+01 1.170000e+01
    endloop
  endfacet
  facet normal -9.914449e-01 1.283439e-14 -1.305262e-01
    outer loop
      vertex 7.325806e+00 5.018448e+00 2.769364e+00
      vertex 7.690552e+00 3.518448e+00 0.000000e+00
      vertex 7.325806e+00 3.518448e+00 2.769364e+00
    endloop
  endfacet
  facet normal -9.914449e-01 1.283439e-14 -1.305262e-01
    outer loop
      vertex 7.690552e+00 3.518448e+00 0.000000e+00
      vertex 7.325806e+00 5.018448e+00 2.769364e+00
      vertex 7.690552e+00 5.018448e+00 0.000000e+00
    endloop
  endfacet
  facet normal -9.238795e-01 3.875677e-14 -3.826834e-01
    outer loop
      vertex 6.256958e+00 5.018448e+00 5.350000e+00
      vertex 7.325806e+00 3.518448e+00 2.769364e+00
      vertex 6.256958e+00 3.518448e+00 5.350000e+00
    endloop
  endfacet
  facet normal -9.238795e-01 3.875677e-14 -3.826834e-01
    outer loop
      vertex 7.325806e+00 3.518448e+00 2.769364e+00
      vertex 6.256958e+00 5.018448e+00 5.350000e+00
      vertex 7.325806e+00 5.018448e+00 2.769364e+00
    endloop
  endfacet
  facet normal -7.933533e-01 -1.103762e-13 -6.087614e-01
    outer loop
      vertex 4.556519e+00 5.018448e+00 7.566044e+00
      vertex 5.690552e+00 3.518448e+00 6.088242e+00
      vertex 4.556519e+00 3.518448e+00 7.566044e+00
    endloop
  endfacet
  facet normal -7.933533e-01 -1.103762e-13 -6.087614e-01
    outer loop
      vertex 5.690552e+00 3.518448e+00 6.088242e+00
      vertex 4.556519e+00 5.018448e+00 7.566044e+00
      vertex 6.256958e+00 3.518448e+00 5.350000e+00
    endloop
  endfacet
  facet normal -7.933533e-01 -1.103762e-13 -6.087614e-01
    outer loop
      vertex 6.256958e+00 3.518448e+00 5.350000e+00
      vertex 4.556519e+00 5.018448e+00 7.566044e+00
      vertex 6.256958e+00 5.018448e+00 5.350000e+00
    endloop
  endfacet
  facet normal -7.933533e-01 -1.103762e-13 -6.087614e-01
    outer loop
      vertex 6.256958e+00 5.018448e+00 5.350000e+00
      vertex 4.556519e+00 5.018448e+00 7.566044e+00
      vertex 5.690552e+00 5.018448e+00 6.088242e+00
    endloop
  endfacet
  facet normal -1.000000e+00 2.707284e-14 -2.344790e-14
    outer loop
      vertex 5.690552e+00 1.361845e+01 8.700001e+00
      vertex 5.690552e+00 5.018448e+00 6.088242e+00
      vertex 5.690552e+00 5.018448e+00 8.700001e+00
    endloop
  endfacet
  facet normal -1.000000e+00 2.707284e-14 -2.344790e-14
    outer loop
      vertex 5.690552e+00 5.018448e+00 6.088242e+00
      vertex 5.690552e+00 1.361845e+01 0.000000e+00
      vertex 5.690552e+00 5.018448e+00 0.000000e+00
    endloop
  endfacet
  facet normal -1.000000e+00 2.707284e-14 -2.344790e-14
    outer loop
      vertex 5.690552e+00 1.361845e+01 0.000000e+00
      vertex 5.690552e+00 5.018448e+00 6.088242e+00
      vertex 5.690552e+00 1.361845e+01 8.700001e+00
    endloop
  endfacet
  facet normal -1.393902e-13 -1.000000e+00 -2.368357e-14
    outer loop
      vertex 7.325806e+00 5.018448e+00 2.769364e+00
      vertex 5.690552e+00 5.018448e+00 0.000000e+00
      vertex 7.690552e+00 5.018448e+00 0.000000e+00
    endloop
  endfacet
  facet normal -1.393902e-13 -1.000000e+00 -2.368357e-14
    outer loop
      vertex 5.690552e+00 5.018448e+00 0.000000e+00
      vertex 7.325806e+00 5.018448e+00 2.769364e+00
      vertex 5.690552e+00 5.018448e+00 6.088242e+00
    endloop
  endfacet
  facet normal -1.393902e-13 -1.000000e+00 -2.368357e-14
    outer loop
      vertex 5.690552e+00 5.018448e+00 6.088242e+00
      vertex 7.325806e+00 5.018448e+00 2.769364e+00
      vertex 6.256958e+00 5.018448e+00 5.350000e+00
    endloop
  endfacet
  facet normal -2.012720e-14 1.000000e+00 -9.841315e-14
    outer loop
      vertex -1.770959e+01 1.361845e+01 1.170000e+01
      vertex -3.709595e+00 1.361845e+01 0.000000e+00
      vertex -1.770959e+01 1.361845e+01 0.000000e+00
    endloop
  endfacet
  facet normal -2.012720e-14 1.000000e+00 -9.841315e-14
    outer loop
      vertex -3.709595e+00 1.361845e+01 0.000000e+00
      vertex -1.770959e+01 1.361845e+01 1.170000e+01
      vertex -3.709595e+00 1.361845e+01 8.700001e+00
    endloop
  endfacet
  facet normal -2.012720e-14 1.000000e+00 -9.841315e-14
    outer loop
      vertex -3.709595e+00 1.361845e+01 8.700001e+00
      vertex -1.770959e+01 1.361845e+01 1.170000e+01
      vertex 5.690552e+00 1.361845e+01 8.700001e+00
    endloop
  endfacet
  facet normal -2.012720e-14 1.000000e+00 -9.841315e-14
    outer loop
      vertex 5.690552e+00 1.361845e+01 8.700001e+00
      vertex -1.770959e+01 1.361845e+01 1.170000e+01
      vertex 1.269055e+01 1.361845e+01 1.013250e+01
    endloop
  endfacet
  facet normal -2.012720e-14 1.000000e+00 -9.841315e-14
    outer loop
      vertex 1.269055e+01 1.361845e+01 1.013250e+01
      vertex -1.770959e+01 1.361845e+01 1.170000e+01
      vertex 1.027869e+01 1.361845e+01 1.130133e+01
    endloop
  endfacet
  facet normal -2.012720e-14 1.000000e+00 -9.841315e-14
    outer loop
      vertex 1.027869e+01 1.361845e+01 1.130133e+01
      vertex -1.770959e+01 1.361845e+01 1.170000e+01
      vertex 7.690552e+00 1.361845e+01 1.170000e+01
    endloop
  endfacet
  facet normal -2.012720e-14 1.000000e+00 -9.841315e-14
    outer loop
      vertex 5.690552e+00 1.361845e+01 8.700001e+00
      vertex 1.769055e+01 1.361845e+01 0.000000e+00
      vertex 5.690552e+00 1.361845e+01 0.000000e+00
    endloop
  endfacet
  facet normal -2.012720e-14 1.000000e+00 -9.841315e-14
    outer loop
      vertex 1.769055e+01 1.361845e+01 0.000000e+00
      vertex 5.690552e+00 1.361845e+01 8.700001e+00
      vertex 1.734973e+01 1.361845e+01 3.028183e+00
    endloop
  endfacet
  facet normal -2.012720e-14 1.000000e+00 -9.841315e-14
    outer loop
      vertex 1.734973e+01 1.361845e+01 3.028183e+00
      vertex 5.690552e+00 1.361845e+01 8.700001e+00
      vertex 1.635071e+01 1.361845e+01 5.850000e+00
    endloop
  endfacet
  facet normal -2.012720e-14 1.000000e+00 -9.841315e-14
    outer loop
      vertex 1.635071e+01 1.361845e+01 5.850000e+00
      vertex 5.690552e+00 1.361845e+01 8.700001e+00
      vertex 1.476160e+01 1.361845e+01 8.273149e+00
    endloop
  endfacet
  facet normal -2.012720e-14 1.000000e+00 -9.841315e-14
    outer loop
      vertex 1.476160e+01 1.361845e+01 8.273149e+00
      vertex 5.690552e+00 1.361845e+01 8.700001e+00
      vertex 1.269055e+01 1.361845e+01 1.013250e+01
    endloop
  endfacet
  facet normal 8.362070e-01 2.936542e-13 5.484139e-01
    outer loop
      vertex 1.637000e+01 -1.361845e+01 5.850000e+00
      vertex 1.478088e+01 -2.018448e+00 8.273149e+00
      vertex 1.478088e+01 -1.361845e+01 8.273149e+00
    endloop
  endfacet
  facet normal 8.362070e-01 2.936542e-13 5.484139e-01
    outer loop
      vertex 1.478088e+01 -2.018448e+00 8.273149e+00
      vertex 1.637000e+01 -1.361845e+01 5.850000e+00
      vertex 1.637000e+01 -2.018448e+00 5.850000e+00
    endloop
  endfacet
  facet normal 4.361142e-01 8.468548e-14 8.998913e-01
    outer loop
      vertex 1.029797e+01 -1.361845e+01 1.130133e+01
      vertex 1.270959e+01 -2.018448e+00 1.013250e+01
      vertex 1.029797e+01 -2.018448e+00 1.130133e+01
    endloop
  endfacet
  facet normal 4.361142e-01 8.468548e-14 8.998913e-01
    outer loop
      vertex 1.270959e+01 -2.018448e+00 1.013250e+01
      vertex 1.029797e+01 -1.361845e+01 1.130133e+01
      vertex 1.270959e+01 -1.361845e+01 1.013250e+01
    endloop
  endfacet
  facet normal 3.177459e-14 -4.813026e-14 -1.000000e+00
    outer loop
      vertex 1.770959e+01 -2.018448e+00 0.000000e+00
      vertex 3.509644e+00 -3.518448e+00 0.000000e+00
      vertex 3.509644e+00 -2.018448e+00 0.000000e+00
    endloop
  endfacet
  facet normal 3.177459e-14 -4.813026e-14 -1.000000e+00
    outer loop
      vertex 3.509644e+00 -3.518448e+00 0.000000e+00
      vertex 1.770959e+01 -2.018448e+00 0.000000e+00
      vertex 7.709595e+00 -3.518448e+00 0.000000e+00
    endloop
  endfacet
  facet normal 3.177459e-14 -4.813026e-14 -1.000000e+00
    outer loop
      vertex 7.709595e+00 -3.518448e+00 0.000000e+00
      vertex 1.770959e+01 -2.018448e+00 0.000000e+00
      vertex 7.709595e+00 -5.018448e+00 0.000000e+00
    endloop
  endfacet
  facet normal 3.177459e-14 -4.813026e-14 -1.000000e+00
    outer loop
      vertex 7.709595e+00 -5.018448e+00 0.000000e+00
      vertex 1.770959e+01 -2.018448e+00 0.000000e+00
      vertex 1.770959e+01 -1.361845e+01 0.000000e+00
    endloop
  endfacet
  facet normal 3.177459e-14 -4.813026e-14 -1.000000e+00
    outer loop
      vertex 7.709595e+00 -5.018448e+00 0.000000e+00
      vertex 5.709595e+00 -1.361845e+01 0.000000e+00
      vertex 5.709595e+00 -5.018448e+00 0.000000e+00
    endloop
  endfacet
  facet normal 3.177459e-14 -4.813026e-14 -1.000000e+00
    outer loop
      vertex 5.709595e+00 -1.361845e+01 0.000000e+00
      vertex 7.709595e+00 -5.018448e+00 0.000000e+00
      vertex 1.770959e+01 -1.361845e+01 0.000000e+00
    endloop
  endfacet
  facet normal -1.000000e+00 0.000000e+00 0.000000e+00
    outer loop
      vertex -1.769031e+01 -2.018448e+00 1.170000e+01
      vertex -1.769031e+01 -1.361845e+01 0.000000e+00
      vertex -1.769031e+01 -1.361845e+01 1.170000e+01
    endloop
  endfacet
  facet normal -1.000000e+00 0.000000e+00 0.000000e+00
    outer loop
      vertex -1.769031e+01 -1.361845e+01 0.000000e+00
      vertex -1.769031e+01 -2.018448e+00 1.170000e+01
      vertex -1.769031e+01 -2.018448e+00 0.000000e+00
    endloop
  endfacet
  facet normal 5.303935e-10 3.675536e-10 -1.000000e+00
    outer loop
      vertex -1.769031e+01 -2.018448e+00 0.000000e+00
      vertex -1.369031e+01 -3.518448e+00 0.000000e+00
      vertex -1.769031e+01 -1.361845e+01 0.000000e+00
    endloop
  endfacet
  facet normal 5.303935e-10 3.675536e-10 -1.000000e+00
    outer loop
      vertex -1.369031e+01 -3.518448e+00 0.000000e+00
      vertex -1.769031e+01 -2.018448e+00 0.000000e+00
      vertex -9.490356e+00 -2.018448e+00 0.000000e+00
    endloop
  endfacet
  facet normal 5.303935e-10 3.675536e-10 -1.000000e+00
    outer loop
      vertex -1.369031e+01 -3.518448e+00 0.000000e+00
      vertex -9.490356e+00 -2.018448e+00 0.000000e+00
      vertex -9.490356e+00 -3.518448e+00 0.000000e+00
    endloop
  endfacet
  facet normal 5.303935e-10 3.675536e-10 -1.000000e+00
    outer loop
      vertex -8.690308e+00 -5.018448e+00 0.000000e+00
      vertex -1.169031e+01 -6.018448e+00 0.000000e+00
      vertex -1.369031e+01 -5.018448e+00 0.000000e+00
    endloop
  endfacet
  facet normal 5.303935e-10 3.675536e-10 -1.000000e+00
    outer loop
      vertex -1.169031e+01 -6.018448e+00 0.000000e+00
      vertex -8.690308e+00 -5.018448e+00 0.000000e+00
      vertex -8.690308e+00 -6.018448e+00 0.000000e+00
    endloop
  endfacet
  facet normal 5.303935e-10 3.675536e-10 -1.000000e+00
    outer loop
      vertex -1.769031e+01 -1.361845e+01 0.000000e+00
      vertex -1.369031e+01 -5.018448e+00 0.000000e+00
      vertex -1.169031e+01 -1.361845e+01 0.000000e+00
    endloop
  endfacet
  facet normal 5.303935e-10 3.675536e-10 -1.000000e+00
    outer loop
      vertex -1.369031e+01 -5.018448e+00 0.000000e+00
      vertex -1.769031e+01 -1.361845e+01 0.000000e+00
      vertex -1.369031e+01 -3.518448e+00 0.000000e+00
    endloop
  endfacet
  facet normal 5.303935e-10 3.675536e-10 -1.000000e+00
    outer loop
      vertex -1.169031e+01 -1.361845e+01 0.000000e+00
      vertex -1.369031e+01 -5.018448e+00 0.000000e+00
      vertex -1.169031e+01 -6.018448e+00 0.000000e+00
    endloop
  endfacet
  facet normal 9.426681e-01 1.332483e-13 3.337316e-01
    outer loop
      vertex 1.736902e+01 -1.361845e+01 3.028183e+00
      vertex 1.637000e+01 -2.018448e+00 5.850000e+00
      vertex 1.637000e+01 -1.361845e+01 5.850000e+00
    endloop
  endfacet
  facet normal 9.426681e-01 1.332483e-13 3.337316e-01
    outer loop
      vertex 1.637000e+01 -2.018448e+00 5.850000e+00
      vertex 1.736902e+01 -1.361845e+01 3.028183e+00
      vertex 1.736902e+01 -2.018448e+00 3.028183e+00
    endloop
  endfacet
  facet normal 9.937287e-01 -2.063507e-14 1.118178e-01
    outer loop
      vertex 1.770959e+01 -1.361845e+01 0.000000e+00
      vertex 1.736902e+01 -2.018448e+00 3.028183e+00
      vertex 1.736902e+01 -1.361845e+01 3.028183e+00
    endloop
  endfacet
  facet normal 9.937287e-01 -2.063507e-14 1.118178e-01
    outer loop
      vertex 1.736902e+01 -2.018448e+00 3.028183e+00
      vertex 1.770959e+01 -1.361845e+01 0.000000e+00
      vertex 1.770959e+01 -2.018448e+00 0.000000e+00
    endloop
  endfacet
  facet normal 1.522380e-01 7.472336e-14 9.883439e-01
    outer loop
      vertex 1.029797e+01 -1.361845e+01 1.130133e+01
      vertex 7.709595e+00 -2.018448e+00 1.170000e+01
      vertex 7.709595e+00 -1.361845e+01 1.170000e+01
    endloop
  endfacet
  facet normal 1.522380e-01 7.472336e-14 9.883439e-01
    outer loop
      vertex 7.709595e+00 -2.018448e+00 1.170000e+01
      vertex 1.029797e+01 -1.361845e+01 1.130133e+01
      vertex 1.029797e+01 -2.018448e+00 1.130133e+01
    endloop
  endfacet
  facet normal -1.000000e+00 -1.395493e-14 -5.512230e-15
    outer loop
      vertex 5.709595e+00 -1.361845e+01 8.700001e+00
      vertex 5.709595e+00 -5.018448e+00 0.000000e+00
      vertex 5.709595e+00 -1.361845e+01 0.000000e+00
    endloop
  endfacet
  facet normal -1.000000e+00 -1.395493e-14 -5.512230e-15
    outer loop
      vertex 5.709595e+00 -5.018448e+00 0.000000e+00
      vertex 5.709595e+00 -1.361845e+01 8.700001e+00
      vertex 5.709595e+00 -5.018448e+00 6.088242e+00
    endloop
  endfacet
  facet normal -1.000000e+00 -1.395493e-14 -5.512230e-15
    outer loop
      vertex 5.709595e+00 -5.018448e+00 6.088242e+00
      vertex 5.709595e+00 -1.361845e+01 8.700001e+00
      vertex 5.709595e+00 -5.018448e+00 8.700001e+00
    endloop
  endfacet
  facet normal -1.393902e-13 1.000000e+00 -2.368357e-14
    outer loop
      vertex 5.709595e+00 -5.018448e+00 6.088242e+00
      vertex 7.709595e+00 -5.018448e+00 0.000000e+00
      vertex 5.709595e+00 -5.018448e+00 0.000000e+00
    endloop
  endfacet
  facet normal -1.393902e-13 1.000000e+00 -2.368357e-14
    outer loop
      vertex 7.709595e+00 -5.018448e+00 0.000000e+00
      vertex 5.709595e+00 -5.018448e+00 6.088242e+00
      vertex 7.345093e+00 -5.018448e+00 2.769364e+00
    endloop
  endfacet
  facet normal -1.393902e-13 1.000000e+00 -2.368357e-14
    outer loop
      vertex 7.345093e+00 -5.018448e+00 2.769364e+00
      vertex 5.709595e+00 -5.018448e+00 6.088242e+00
      vertex 6.276245e+00 -5.018448e+00 5.350000e+00
    endloop
  endfacet
  facet normal -1.677473e-13 -1.000000e+00 -4.391650e-14
    outer loop
      vertex 5.709595e+00 -5.018448e+00 8.700001e+00
      vertex 4.575806e+00 -5.018448e+00 7.566044e+00
      vertex 5.709595e+00 -5.018448e+00 6.088242e+00
    endloop
  endfacet
  facet normal -1.677473e-13 -1.000000e+00 -4.391650e-14
    outer loop
      vertex 4.575806e+00 -5.018448e+00 7.566044e+00
      vertex 5.709595e+00 -5.018448e+00 8.700001e+00
      vertex 3.098022e+00 -5.018448e+00 8.700001e+00
    endloop
  endfacet
  facet normal 6.680485e-01 1.935307e-13 7.441177e-01
    outer loop
      vertex 1.478088e+01 -1.361845e+01 8.273149e+00
      vertex 1.270959e+01 -2.018448e+00 1.013250e+01
      vertex 1.270959e+01 -1.361845e+01 1.013250e+01
    endloop
  endfacet
  facet normal 6.680485e-01 1.935307e-13 7.441177e-01
    outer loop
      vertex 1.270959e+01 -2.018448e+00 1.013250e+01
      vertex 1.478088e+01 -1.361845e+01 8.273149e+00
      vertex 1.478088e+01 -2.018448e+00 8.273149e+00
    endloop
  endfacet
  facet normal 1.261878e-14 -1.000000e+00 9.371442e-14
    outer loop
      vertex -8.690308e+00 -6.018448e+00 6.800001e+00
      vertex -1.169031e+01 -6.018448e+00 0.000000e+00
      vertex -8.690308e+00 -6.018448e+00 0.000000e+00
    endloop
  endfacet
  facet normal 1.261878e-14 -1.000000e+00 9.371442e-14
    outer loop
      vertex -1.169031e+01 -6.018448e+00 0.000000e+00
      vertex -8.690308e+00 -6.018448e+00 6.800001e+00
      vertex -1.169031e+01 -6.018448e+00 8.700001e+00
    endloop
  endfacet
  facet normal 1.261878e-14 -1.000000e+00 9.371442e-14
    outer loop
      vertex -1.169031e+01 -6.018448e+00 8.700001e+00
      vertex -8.690308e+00 -6.018448e+00 6.800001e+00
      vertex -3.690308e+00 -6.018448e+00 8.700001e+00
    endloop
  endfacet
  facet normal -4.610107e-14 -1.000000e+00 -4.344055e-14
    outer loop
      vertex 1.770959e+01 -1.361845e+01 0.000000e+00
      vertex 5.709595e+00 -1.361845e+01 8.700001e+00
      vertex 5.709595e+00 -1.361845e+01 0.000000e+00
    endloop
  endfacet
  facet normal -4.610107e-14 -1.000000e+00 -4.344055e-14
    outer loop
      vertex 5.709595e+00 -1.361845e+01 8.700001e+00
      vertex 1.770959e+01 -1.361845e+01 0.000000e+00
      vertex 1.736902e+01 -1.361845e+01 3.028183e+00
    endloop
  endfacet
  facet normal -4.610107e-14 -1.000000e+00 -4.344055e-14
    outer loop
      vertex 5.709595e+00 -1.361845e+01 8.700001e+00
      vertex 1.736902e+01 -1.361845e+01 3.028183e+00
      vertex 1.637000e+01 -1.361845e+01 5.850000e+00
    endloop
  endfacet
  facet normal -4.610107e-14 -1.000000e+00 -4.344055e-14
    outer loop
      vertex 5.709595e+00 -1.361845e+01 8.700001e+00
      vertex 1.637000e+01 -1.361845e+01 5.850000e+00
      vertex 1.478088e+01 -1.361845e+01 8.273149e+00
    endloop
  endfacet
  facet normal -4.610107e-14 -1.000000e+00 -4.344055e-14
    outer loop
      vertex 5.709595e+00 -1.361845e+01 8.700001e+00
      vertex 1.478088e+01 -1.361845e+01 8.273149e+00
      vertex 1.270959e+01 -1.361845e+01 1.013250e+01
    endloop
  endfacet
  facet normal -4.610107e-14 -1.000000e+00 -4.344055e-14
    outer loop
      vertex -1.169031e+01 -1.361845e+01 0.000000e+00
      vertex -1.769031e+01 -1.361845e+01 1.170000e+01
      vertex -1.769031e+01 -1.361845e+01 0.000000e+00
    endloop
  endfacet
  facet normal -4.610107e-14 -1.000000e+00 -4.344055e-14
    outer loop
      vertex -1.769031e+01 -1.361845e+01 1.170000e+01
      vertex -1.169031e+01 -1.361845e+01 0.000000e+00
      vertex -1.169031e+01 -1.361845e+01 8.700001e+00
    endloop
  endfacet
  facet normal -4.610107e-14 -1.000000e+00 -4.344055e-14
    outer loop
      vertex -1.769031e+01 -1.361845e+01 1.170000e+01
      vertex -1.169031e+01 -1.361845e+01 8.700001e+00
      vertex 5.709595e+00 -1.361845e+01 8.700001e+00
    endloop
  endfacet
  facet normal -4.610107e-14 -1.000000e+00 -4.344055e-14
    outer loop
      vertex -1.769031e+01 -1.361845e+01 1.170000e+01
      vertex 5.709595e+00 -1.361845e+01 8.700001e+00
      vertex 1.270959e+01 -1.361845e+01 1.013250e+01
    endloop
  endfacet
  facet normal -4.610107e-14 -1.000000e+00 -4.344055e-14
    outer loop
      vertex -1.769031e+01 -1.361845e+01 1.170000e+01
      vertex 1.270959e+01 -1.361845e+01 1.013250e+01
      vertex 1.029797e+01 -1.361845e+01 1.130133e+01
    endloop
  endfacet
  facet normal -4.610107e-14 -1.000000e+00 -4.344055e-14
    outer loop
      vertex -1.769031e+01 -1.361845e+01 1.170000e+01
      vertex 1.029797e+01 -1.361845e+01 1.130133e+01
      vertex 7.709595e+00 -1.361845e+01 1.170000e+01
    endloop
  endfacet
  facet normal 7.933533e-01 -6.093729e-14 -6.087614e-01
    outer loop
      vertex -1.225671e+01 -3.518448e+00 5.350000e+00
      vertex -1.169031e+01 -5.018448e+00 6.088242e+00
      vertex -1.225671e+01 -5.018448e+00 5.350000e+00
    endloop
  endfacet
  facet normal 7.933533e-01 -6.093729e-14 -6.087614e-01
    outer loop
      vertex -1.169031e+01 -5.018448e+00 6.088242e+00
      vertex -1.225671e+01 -3.518448e+00 5.350000e+00
      vertex -1.055627e+01 -5.018448e+00 7.566044e+00
    endloop
  endfacet
  facet normal 7.933533e-01 -6.093729e-14 -6.087614e-01
    outer loop
      vertex -1.055627e+01 -5.018448e+00 7.566044e+00
      vertex -1.225671e+01 -3.518448e+00 5.350000e+00
      vertex -1.055627e+01 -3.518448e+00 7.566044e+00
    endloop
  endfacet
  facet normal 7.933533e-01 -6.093729e-14 -6.087614e-01
    outer loop
      vertex -1.055627e+01 -3.518448e+00 7.566044e+00
      vertex -1.225671e+01 -3.518448e+00 5.350000e+00
      vertex -1.169031e+01 -3.518448e+00 6.088242e+00
    endloop
  endfacet
  facet normal 9.914449e-01 -1.314284e-14 -1.305262e-01
    outer loop
      vertex -1.369031e+01 -3.518448e+00 0.000000e+00
      vertex -1.332581e+01 -5.018448e+00 2.769364e+00
      vertex -1.369031e+01 -5.018448e+00 0.000000e+00
    endloop
  endfacet
  facet normal 9.914449e-01 -1.314284e-14 -1.305262e-01
    outer loop
      vertex -1.332581e+01 -5.018448e+00 2.769364e+00
      vertex -1.369031e+01 -3.518448e+00 0.000000e+00
      vertex -1.332581e+01 -3.518448e+00 2.769364e+00
    endloop
  endfacet
  facet normal 9.914449e-01 -1.306364e-14 -1.305262e-01
    outer loop
      vertex -9.490356e+00 -2.018448e+00 0.000000e+00
      vertex -9.268921e+00 -3.518448e+00 1.682324e+00
      vertex -9.490356e+00 -3.518448e+00 0.000000e+00
    endloop
  endfacet
  facet normal 9.914449e-01 -1.306364e-14 -1.305262e-01
    outer loop
      vertex -9.268921e+00 -3.518448e+00 1.682324e+00
      vertex -9.490356e+00 -2.018448e+00 0.000000e+00
      vertex -9.268921e+00 -2.018448e+00 1.682324e+00
    endloop
  endfacet
  facet normal -9.238795e-01 -3.832827e-14 -3.826834e-01
    outer loop
      vertex 2.638794e+00 -3.518448e+00 3.250000e+00
      vertex 3.288208e+00 -2.018448e+00 1.682324e+00
      vertex 3.288208e+00 -3.518448e+00 1.682324e+00
    endloop
  endfacet
  facet normal -9.238795e-01 -3.832827e-14 -3.826834e-01
    outer loop
      vertex 3.288208e+00 -2.018448e+00 1.682324e+00
      vertex 2.638794e+00 -3.518448e+00 3.250000e+00
      vertex 2.638794e+00 -2.018448e+00 3.250000e+00
    endloop
  endfacet
  facet normal 6.087614e-01 -7.941420e-14 -7.933533e-01
    outer loop
      vertex -6.240356e+00 -2.018448e+00 5.629166e+00
      vertex -7.586548e+00 -3.518448e+00 4.596195e+00
      vertex -7.586548e+00 -2.018448e+00 4.596195e+00
    endloop
  endfacet
  facet normal 6.087614e-01 -7.941420e-14 -7.933533e-01
    outer loop
      vertex -7.586548e+00 -3.518448e+00 4.596195e+00
      vertex -6.240356e+00 -2.018448e+00 5.629166e+00
      vertex -6.240356e+00 -3.518448e+00 5.629166e+00
    endloop
  endfacet
  facet normal -1.305262e-01 -1.030732e-13 -9.914449e-01
    outer loop
      vertex -2.208252e-01 -3.518448e+00 1.033541e+01
      vertex -2.990356e+00 -5.018448e+00 1.070000e+01
      vertex -2.990356e+00 -3.518448e+00 1.070000e+01
    endloop
  endfacet
  facet normal -1.305262e-01 -1.030732e-13 -9.914449e-01
    outer loop
      vertex -2.990356e+00 -5.018448e+00 1.070000e+01
      vertex -2.208252e-01 -3.518448e+00 1.033541e+01
      vertex -2.208252e-01 -5.018448e+00 1.033541e+01
    endloop
  endfacet
  facet normal 1.305262e-01 -9.233227e-14 -9.914449e-01
    outer loop
      vertex -2.990356e+00 -3.518448e+00 1.070000e+01
      vertex -5.759644e+00 -5.018448e+00 1.033541e+01
      vertex -5.759644e+00 -3.518448e+00 1.033541e+01
    endloop
  endfacet
  facet normal 1.305262e-01 -9.233227e-14 -9.914449e-01
    outer loop
      vertex -5.759644e+00 -5.018448e+00 1.033541e+01
      vertex -2.990356e+00 -3.518448e+00 1.070000e+01
      vertex -3.690308e+00 -5.018448e+00 1.060784e+01
    endloop
  endfacet
  facet normal 1.305262e-01 -9.233227e-14 -9.914449e-01
    outer loop
      vertex -3.690308e+00 -5.018448e+00 1.060784e+01
      vertex -2.990356e+00 -3.518448e+00 1.070000e+01
      vertex -2.990356e+00 -5.018448e+00 1.070000e+01
    endloop
  endfacet
  facet normal 6.087614e-01 -9.204542e-14 -7.933533e-01
    outer loop
      vertex -8.340210e+00 -3.518448e+00 9.266472e+00
      vertex -1.055627e+01 -5.018448e+00 7.566044e+00
      vertex -1.055627e+01 -3.518448e+00 7.566044e+00
    endloop
  endfacet
  facet normal 6.087614e-01 -9.204542e-14 -7.933533e-01
    outer loop
      vertex -1.055627e+01 -5.018448e+00 7.566044e+00
      vertex -8.340210e+00 -3.518448e+00 9.266472e+00
      vertex -8.690308e+00 -5.018448e+00 8.997908e+00
    endloop
  endfacet
  facet normal 6.087614e-01 -9.204542e-14 -7.933533e-01
    outer loop
      vertex -8.690308e+00 -5.018448e+00 8.997908e+00
      vertex -8.340210e+00 -3.518448e+00 9.266472e+00
      vertex -8.340210e+00 -5.018448e+00 9.266472e+00
    endloop
  endfacet
  facet normal 3.826834e-01 -1.280328e-13 -9.238795e-01
    outer loop
      vertex -5.759644e+00 -3.518448e+00 1.033541e+01
      vertex -8.340210e+00 -5.018448e+00 9.266472e+00
      vertex -8.340210e+00 -3.518448e+00 9.266472e+00
    endloop
  endfacet
  facet normal 3.826834e-01 -1.280328e-13 -9.238795e-01
    outer loop
      vertex -8.340210e+00 -5.018448e+00 9.266472e+00
      vertex -5.759644e+00 -3.518448e+00 1.033541e+01
      vertex -5.759644e+00 -5.018448e+00 1.033541e+01
    endloop
  endfacet
  facet normal 9.238795e-01 -3.832065e-14 -3.826834e-01
    outer loop
      vertex -1.332581e+01 -3.518448e+00 2.769364e+00
      vertex -1.225671e+01 -5.018448e+00 5.350000e+00
      vertex -1.332581e+01 -5.018448e+00 2.769364e+00
    endloop
  endfacet
  facet normal 9.238795e-01 -3.832065e-14 -3.826834e-01
    outer loop
      vertex -1.225671e+01 -5.018448e+00 5.350000e+00
      vertex -1.332581e+01 -3.518448e+00 2.769364e+00
      vertex -1.225671e+01 -3.518448e+00 5.350000e+00
    endloop
  endfacet
  facet normal -9.914449e-01 -1.306448e-14 -1.305262e-01
    outer loop
      vertex 3.288208e+00 -3.518448e+00 1.682324e+00
      vertex 3.509644e+00 -2.018448e+00 0.000000e+00
      vertex 3.509644e+00 -3.518448e+00 0.000000e+00
    endloop
  endfacet
  facet normal -9.914449e-01 -1.306448e-14 -1.305262e-01
    outer loop
      vertex 3.509644e+00 -2.018448e+00 0.000000e+00
      vertex 3.288208e+00 -3.518448e+00 1.682324e+00
      vertex 3.288208e+00 -2.018448e+00 1.682324e+00
    endloop
  endfacet
  facet normal 1.305262e-01 -9.923597e-14 -9.914449e-01
    outer loop
      vertex -2.990356e+00 -2.018448e+00 6.500000e+00
      vertex -4.672729e+00 -3.518448e+00 6.278519e+00
      vertex -4.672729e+00 -2.018448e+00 6.278519e+00
    endloop
  endfacet
  facet normal 1.305262e-01 -9.923597e-14 -9.914449e-01
    outer loop
      vertex -4.672729e+00 -3.518448e+00 6.278519e+00
      vertex -2.990356e+00 -2.018448e+00 6.500000e+00
      vertex -2.990356e+00 -3.518448e+00 6.500000e+00
    endloop
  endfacet
  facet normal 7.933533e-01 -6.095360e-14 -6.087614e-01
    outer loop
      vertex -8.619507e+00 -2.018448e+00 3.250000e+00
      vertex -7.586548e+00 -3.518448e+00 4.596195e+00
      vertex -8.619507e+00 -3.518448e+00 3.250000e+00
    endloop
  endfacet
  facet normal 7.933533e-01 -6.095360e-14 -6.087614e-01
    outer loop
      vertex -7.586548e+00 -3.518448e+00 4.596195e+00
      vertex -8.619507e+00 -2.018448e+00 3.250000e+00
      vertex -7.586548e+00 -2.018448e+00 4.596195e+00
    endloop
  endfacet
  facet normal -7.933533e-01 -6.094157e-14 -6.087614e-01
    outer loop
      vertex 1.605835e+00 -3.518448e+00 4.596195e+00
      vertex 2.638794e+00 -2.018448e+00 3.250000e+00
      vertex 2.638794e+00 -3.518448e+00 3.250000e+00
    endloop
  endfacet
  facet normal -7.933533e-01 -6.094157e-14 -6.087614e-01
    outer loop
      vertex 2.638794e+00 -2.018448e+00 3.250000e+00
      vertex 1.605835e+00 -3.518448e+00 4.596195e+00
      vertex 1.605835e+00 -2.018448e+00 4.596195e+00
    endloop
  endfacet
  facet normal -1.305262e-01 -9.925213e-14 -9.914449e-01
    outer loop
      vertex -1.307983e+00 -2.018448e+00 6.278519e+00
      vertex -2.990356e+00 -3.518448e+00 6.500000e+00
      vertex -2.990356e+00 -2.018448e+00 6.500000e+00
    endloop
  endfacet
  facet normal -1.305262e-01 -9.925213e-14 -9.914449e-01
    outer loop
      vertex -2.990356e+00 -3.518448e+00 6.500000e+00
      vertex -1.307983e+00 -2.018448e+00 6.278519e+00
      vertex -1.307983e+00 -3.518448e+00 6.278519e+00
    endloop
  endfacet
  facet normal -6.087614e-01 -7.943110e-14 -7.933533e-01
    outer loop
      vertex 1.605835e+00 -2.018448e+00 4.596195e+00
      vertex 2.596436e-01 -3.518448e+00 5.629166e+00
      vertex 2.596436e-01 -2.018448e+00 5.629166e+00
    endloop
  endfacet
  facet normal -6.087614e-01 -7.943110e-14 -7.933533e-01
    outer loop
      vertex 2.596436e-01 -3.518448e+00 5.629166e+00
      vertex 1.605835e+00 -2.018448e+00 4.596195e+00
      vertex 1.605835e+00 -3.518448e+00 4.596195e+00
    endloop
  endfacet
  facet normal 9.238795e-01 -3.830439e-14 -3.826834e-01
    outer loop
      vertex -9.268921e+00 -2.018448e+00 1.682324e+00
      vertex -8.619507e+00 -3.518448e+00 3.250000e+00
      vertex -9.268921e+00 -3.518448e+00 1.682324e+00
    endloop
  endfacet
  facet normal 9.238795e-01 -3.830439e-14 -3.826834e-01
    outer loop
      vertex -8.619507e+00 -3.518448e+00 3.250000e+00
      vertex -9.268921e+00 -2.018448e+00 1.682324e+00
      vertex -8.619507e+00 -2.018448e+00 3.250000e+00
    endloop
  endfacet
  facet normal 3.826834e-01 -9.248754e-14 -9.238795e-01
    outer loop
      vertex -4.672729e+00 -2.018448e+00 6.278519e+00
      vertex -6.240356e+00 -3.518448e+00 5.629166e+00
      vertex -6.240356e+00 -2.018448e+00 5.629166e+00
    endloop
  endfacet
  facet normal 3.826834e-01 -9.248754e-14 -9.238795e-01
    outer loop
      vertex -6.240356e+00 -3.518448e+00 5.629166e+00
      vertex -4.672729e+00 -2.018448e+00 6.278519e+00
      vertex -4.672729e+00 -3.518448e+00 6.278519e+00
    endloop
  endfacet
  facet normal -3.826834e-01 -9.249120e-14 -9.238795e-01
    outer loop
      vertex 2.596436e-01 -2.018448e+00 5.629166e+00
      vertex -1.307983e+00 -3.518448e+00 6.278519e+00
      vertex -1.307983e+00 -2.018448e+00 6.278519e+00
    endloop
  endfacet
  facet normal -3.826834e-01 -9.249120e-14 -9.238795e-01
    outer loop
      vertex -1.307983e+00 -3.518448e+00 6.278519e+00
      vertex 2.596436e-01 -2.018448e+00 5.629166e+00
      vertex 2.596436e-01 -3.518448e+00 5.629166e+00
    endloop
  endfacet
  facet normal 3.552178e-01 -9.176174e-14 -9.347836e-01
    outer loop
      vertex -3.690308e+00 -5.018448e+00 8.700001e+00
      vertex -8.690308e+00 -6.018448e+00 6.800001e+00
      vertex -8.690308e+00 -5.018448e+00 6.800001e+00
    endloop
  endfacet
  facet normal 3.552178e-01 -9.176174e-14 -9.347836e-01
    outer loop
      vertex -8.690308e+00 -6.018448e+00 6.800001e+00
      vertex -3.690308e+00 -5.018448e+00 8.700001e+00
      vertex -3.690308e+00 -6.018448e+00 8.700001e+00
    endloop
  endfacet
  facet normal -3.826834e-01 5.028880e-14 -9.238795e-01
    outer loop
      vertex 2.359741e+00 -3.518448e+00 9.266472e+00
      vertex -2.208252e-01 -5.018448e+00 1.033541e+01
      vertex -2.208252e-01 -3.518448e+00 1.033541e+01
    endloop
  endfacet
  facet normal -3.826834e-01 5.028880e-14 -9.238795e-01
    outer loop
      vertex -2.208252e-01 -5.018448e+00 1.033541e+01
      vertex 2.359741e+00 -3.518448e+00 9.266472e+00
      vertex 2.359741e+00 -5.018448e+00 9.266472e+00
    endloop
  endfacet
  facet normal -9.914449e-01 -1.301519e-14 -1.305262e-01
    outer loop
      vertex 7.345093e+00 -5.018448e+00 2.769364e+00
      vertex 7.709595e+00 -3.518448e+00 0.000000e+00
      vertex 7.709595e+00 -5.018448e+00 0.000000e+00
    endloop
  endfacet
  facet normal -9.914449e-01 -1.301519e-14 -1.305262e-01
    outer loop
      vertex 7.709595e+00 -3.518448e+00 0.000000e+00
      vertex 7.345093e+00 -5.018448e+00 2.769364e+00
      vertex 7.345093e+00 -3.518448e+00 2.769364e+00
    endloop
  endfacet
  facet normal -6.087614e-01 1.280050e-13 -7.933533e-01
    outer loop
      vertex 2.359741e+00 -3.518448e+00 9.266472e+00
      vertex 3.098022e+00 -5.018448e+00 8.700001e+00
      vertex 2.359741e+00 -5.018448e+00 9.266472e+00
    endloop
  endfacet
  facet normal -6.087614e-01 1.280050e-13 -7.933533e-01
    outer loop
      vertex 3.098022e+00 -5.018448e+00 8.700001e+00
      vertex 2.359741e+00 -3.518448e+00 9.266472e+00
      vertex 4.575806e+00 -3.518448e+00 7.566044e+00
    endloop
  endfacet
  facet normal -6.087614e-01 1.280050e-13 -7.933533e-01
    outer loop
      vertex 3.098022e+00 -5.018448e+00 8.700001e+00
      vertex 4.575806e+00 -3.518448e+00 7.566044e+00
      vertex 4.575806e+00 -5.018448e+00 7.566044e+00
    endloop
  endfacet
  facet normal -9.238795e-01 -3.832065e-14 -3.826834e-01
    outer loop
      vertex 6.276245e+00 -5.018448e+00 5.350000e+00
      vertex 7.345093e+00 -3.518448e+00 2.769364e+00
      vertex 7.345093e+00 -5.018448e+00 2.769364e+00
    endloop
  endfacet
  facet normal -9.238795e-01 -3.832065e-14 -3.826834e-01
    outer loop
      vertex 7.345093e+00 -3.518448e+00 2.769364e+00
      vertex 6.276245e+00 -5.018448e+00 5.350000e+00
      vertex 6.276245e+00 -3.518448e+00 5.350000e+00
    endloop
  endfacet
  facet normal -7.933533e-01 1.099885e-13 -6.087614e-01
    outer loop
      vertex 4.575806e+00 -5.018448e+00 7.566044e+00
      vertex 6.276245e+00 -5.018448e+00 5.350000e+00
      vertex 5.709595e+00 -5.018448e+00 6.088242e+00
    endloop
  endfacet
  facet normal -7.933533e-01 1.099885e-13 -6.087614e-01
    outer loop
      vertex 6.276245e+00 -5.018448e+00 5.350000e+00
      vertex 4.575806e+00 -5.018448e+00 7.566044e+00
      vertex 4.575806e+00 -3.518448e+00 7.566044e+00
    endloop
  endfacet
  facet normal -7.933533e-01 1.099885e-13 -6.087614e-01
    outer loop
      vertex 6.276245e+00 -5.018448e+00 5.350000e+00
      vertex 4.575806e+00 -3.518448e+00 7.566044e+00
      vertex 6.276245e+00 -3.518448e+00 5.350000e+00
    endloop
  endfacet
  facet normal -7.933533e-01 1.099885e-13 -6.087614e-01
    outer loop
      vertex 6.276245e+00 -3.518448e+00 5.350000e+00
      vertex 4.575806e+00 -3.518448e+00 7.566044e+00
      vertex 5.709595e+00 -3.518448e+00 6.088242e+00
    endloop
  endfacet
  facet normal 1.000000e+00 -5.326216e-27 -5.435568e-14
    outer loop
      vertex -8.690308e+00 -5.018448e+00 0.000000e+00
      vertex -8.690308e+00 -6.018448e+00 6.800001e+00
      vertex -8.690308e+00 -6.018448e+00 0.000000e+00
    endloop
  endfacet
  facet normal 1.000000e+00 -5.326216e-27 -5.435568e-14
    outer loop
      vertex -8.690308e+00 -6.018448e+00 6.800001e+00
      vertex -8.690308e+00 -5.018448e+00 0.000000e+00
      vertex -8.690308e+00 -5.018448e+00 6.800001e+00
    endloop
  endfacet
  facet normal 1.483018e-15 1.000000e+00 -1.068733e-13
    outer loop
      vertex -1.769031e+01 -2.018448e+00 1.170000e+01
      vertex -9.490356e+00 -2.018448e+00 0.000000e+00
      vertex -1.769031e+01 -2.018448e+00 0.000000e+00
    endloop
  endfacet
  facet normal 1.483018e-15 1.000000e+00 -1.068733e-13
    outer loop
      vertex -9.490356e+00 -2.018448e+00 0.000000e+00
      vertex -1.769031e+01 -2.018448e+00 1.170000e+01
      vertex -9.268921e+00 -2.018448e+00 1.682324e+00
    endloop
  endfacet
  facet normal 1.483018e-15 1.000000e+00 -1.068733e-13
    outer loop
      vertex -9.268921e+00 -2.018448e+00 1.682324e+00
      vertex -1.769031e+01 -2.018448e+00 1.170000e+01
      vertex -8.619507e+00 -2.018448e+00 3.250000e+00
    endloop
  endfacet
  facet normal 1.483018e-15 1.000000e+00 -1.068733e-13
    outer loop
      vertex -8.619507e+00 -2.018448e+00 3.250000e+00
      vertex -1.769031e+01 -2.018448e+00 1.170000e+01
      vertex -7.586548e+00 -2.018448e+00 4.596195e+00
    endloop
  endfacet
  facet normal 1.483018e-15 1.000000e+00 -1.068733e-13
    outer loop
      vertex -7.586548e+00 -2.018448e+00 4.596195e+00
      vertex -1.769031e+01 -2.018448e+00 1.170000e+01
      vertex -6.240356e+00 -2.018448e+00 5.629166e+00
    endloop
  endfacet
  facet normal 1.483018e-15 1.000000e+00 -1.068733e-13
    outer loop
      vertex -6.240356e+00 -2.018448e+00 5.629166e+00
      vertex -1.769031e+01 -2.018448e+00 1.170000e+01
      vertex -4.672729e+00 -2.018448e+00 6.278519e+00
    endloop
  endfacet
  facet normal 1.483018e-15 1.000000e+00 -1.068733e-13
    outer loop
      vertex -4.672729e+00 -2.018448e+00 6.278519e+00
      vertex -1.769031e+01 -2.018448e+00 1.170000e+01
      vertex -2.990356e+00 -2.018448e+00 6.500000e+00
    endloop
  endfacet
  facet normal 1.483018e-15 1.000000e+00 -1.068733e-13
    outer loop
      vertex -2.990356e+00 -2.018448e+00 6.500000e+00
      vertex -1.769031e+01 -2.018448e+00 1.170000e+01
      vertex 1.478088e+01 -2.018448e+00 8.273149e+00
    endloop
  endfacet
  facet normal 1.483018e-15 1.000000e+00 -1.068733e-13
    outer loop
      vertex 1.478088e+01 -2.018448e+00 8.273149e+00
      vertex -1.769031e+01 -2.018448e+00 1.170000e+01
      vertex 1.270959e+01 -2.018448e+00 1.013250e+01
    endloop
  endfacet
  facet normal 1.483018e-15 1.000000e+00 -1.068733e-13
    outer loop
      vertex 1.270959e+01 -2.018448e+00 1.013250e+01
      vertex -1.769031e+01 -2.018448e+00 1.170000e+01
      vertex 1.029797e+01 -2.018448e+00 1.130133e+01
    endloop
  endfacet
  facet normal 1.483018e-15 1.000000e+00 -1.068733e-13
    outer loop
      vertex 1.029797e+01 -2.018448e+00 1.130133e+01
      vertex -1.769031e+01 -2.018448e+00 1.170000e+01
      vertex 7.709595e+00 -2.018448e+00 1.170000e+01
    endloop
  endfacet
  facet normal 1.483018e-15 1.000000e+00 -1.068733e-13
    outer loop
      vertex 3.288208e+00 -2.018448e+00 1.682324e+00
      vertex 1.770959e+01 -2.018448e+00 0.000000e+00
      vertex 3.509644e+00 -2.018448e+00 0.000000e+00
    endloop
  endfacet
  facet normal 1.483018e-15 1.000000e+00 -1.068733e-13
    outer loop
      vertex 1.770959e+01 -2.018448e+00 0.000000e+00
      vertex 3.288208e+00 -2.018448e+00 1.682324e+00
      vertex 1.736902e+01 -2.018448e+00 3.028183e+00
    endloop
  endfacet
  facet normal 1.483018e-15 1.000000e+00 -1.068733e-13
    outer loop
      vertex 1.736902e+01 -2.018448e+00 3.028183e+00
      vertex 3.288208e+00 -2.018448e+00 1.682324e+00
      vertex 2.638794e+00 -2.018448e+00 3.250000e+00
    endloop
  endfacet
  facet normal 1.483018e-15 1.000000e+00 -1.068733e-13
    outer loop
      vertex 1.736902e+01 -2.018448e+00 3.028183e+00
      vertex 2.638794e+00 -2.018448e+00 3.250000e+00
      vertex 1.637000e+01 -2.018448e+00 5.850000e+00
    endloop
  endfacet
  facet normal 1.483018e-15 1.000000e+00 -1.068733e-13
    outer loop
      vertex 1.637000e+01 -2.018448e+00 5.850000e+00
      vertex 2.638794e+00 -2.018448e+00 3.250000e+00
      vertex 1.605835e+00 -2.018448e+00 4.596195e+00
    endloop
  endfacet
  facet normal 1.483018e-15 1.000000e+00 -1.068733e-13
    outer loop
      vertex 1.637000e+01 -2.018448e+00 5.850000e+00
      vertex 1.605835e+00 -2.018448e+00 4.596195e+00
      vertex 2.596436e-01 -2.018448e+00 5.629166e+00
    endloop
  endfacet
  facet normal 1.483018e-15 1.000000e+00 -1.068733e-13
    outer loop
      vertex 1.637000e+01 -2.018448e+00 5.850000e+00
      vertex 2.596436e-01 -2.018448e+00 5.629166e+00
      vertex -1.307983e+00 -2.018448e+00 6.278519e+00
    endloop
  endfacet
  facet normal 1.483018e-15 1.000000e+00 -1.068733e-13
    outer loop
      vertex 1.637000e+01 -2.018448e+00 5.850000e+00
      vertex -1.307983e+00 -2.018448e+00 6.278519e+00
      vertex 1.478088e+01 -2.018448e+00 8.273149e+00
    endloop
  endfacet
  facet normal 1.483018e-15 1.000000e+00 -1.068733e-13
    outer loop
      vertex 1.478088e+01 -2.018448e+00 8.273149e+00
      vertex -1.307983e+00 -2.018448e+00 6.278519e+00
      vertex -2.990356e+00 -2.018448e+00 6.500000e+00
    endloop
  endfacet
  facet normal 7.658019e-14 1.000000e+00 -1.564751e-13
    outer loop
      vertex -1.369031e+01 -5.018448e+00 0.000000e+00
      vertex -8.690308e+00 -5.018448e+00 6.800001e+00
      vertex -8.690308e+00 -5.018448e+00 0.000000e+00
    endloop
  endfacet
  facet normal 7.658019e-14 1.000000e+00 -1.564751e-13
    outer loop
      vertex -8.690308e+00 -5.018448e+00 6.800001e+00
      vertex -1.369031e+01 -5.018448e+00 0.000000e+00
      vertex -1.332581e+01 -5.018448e+00 2.769364e+00
    endloop
  endfacet
  facet normal 7.658019e-14 1.000000e+00 -1.564751e-13
    outer loop
      vertex -8.690308e+00 -5.018448e+00 6.800001e+00
      vertex -1.332581e+01 -5.018448e+00 2.769364e+00
      vertex -1.225671e+01 -5.018448e+00 5.350000e+00
    endloop
  endfacet
  facet normal 7.658019e-14 1.000000e+00 -1.564751e-13
    outer loop
      vertex -8.690308e+00 -5.018448e+00 6.800001e+00
      vertex -1.225671e+01 -5.018448e+00 5.350000e+00
      vertex -1.169031e+01 -5.018448e+00 6.088242e+00
    endloop
  endfacet
  facet normal 7.658019e-14 1.000000e+00 -1.564751e-13
    outer loop
      vertex -8.690308e+00 -5.018448e+00 6.800001e+00
      vertex -1.169031e+01 -5.018448e+00 6.088242e+00
      vertex -1.055627e+01 -5.018448e+00 7.566044e+00
    endloop
  endfacet
  facet normal 7.658019e-14 1.000000e+00 -1.564751e-13
    outer loop
      vertex -8.690308e+00 -5.018448e+00 6.800001e+00
      vertex -1.055627e+01 -5.018448e+00 7.566044e+00
      vertex -3.690308e+00 -5.018448e+00 8.700001e+00
    endloop
  endfacet
  facet normal 7.658019e-14 1.000000e+00 -1.564751e-13
    outer loop
      vertex -3.690308e+00 -5.018448e+00 8.700001e+00
      vertex -1.055627e+01 -5.018448e+00 7.566044e+00
      vertex -8.690308e+00 -5.018448e+00 8.997908e+00
    endloop
  endfacet
  facet normal 7.658019e-14 1.000000e+00 -1.564751e-13
    outer loop
      vertex -3.690308e+00 -5.018448e+00 8.700001e+00
      vertex -8.690308e+00 -5.018448e+00 8.997908e+00
      vertex 3.098022e+00 -5.018448e+00 8.700001e+00
    endloop
  endfacet
  facet normal 7.658019e-14 1.000000e+00 -1.564751e-13
    outer loop
      vertex 3.098022e+00 -5.018448e+00 8.700001e+00
      vertex -8.690308e+00 -5.018448e+00 8.997908e+00
      vertex 2.359741e+00 -5.018448e+00 9.266472e+00
    endloop
  endfacet
  facet normal 7.658019e-14 1.000000e+00 -1.564751e-13
    outer loop
      vertex 2.359741e+00 -5.018448e+00 9.266472e+00
      vertex -8.690308e+00 -5.018448e+00 8.997908e+00
      vertex -8.340210e+00 -5.018448e+00 9.266472e+00
    endloop
  endfacet
  facet normal 7.658019e-14 1.000000e+00 -1.564751e-13
    outer loop
      vertex 2.359741e+00 -5.018448e+00 9.266472e+00
      vertex -8.340210e+00 -5.018448e+00 9.266472e+00
      vertex -2.208252e-01 -5.018448e+00 1.033541e+01
    endloop
  endfacet
  facet normal 7.658019e-14 1.000000e+00 -1.564751e-13
    outer loop
      vertex -2.208252e-01 -5.018448e+00 1.033541e+01
      vertex -8.340210e+00 -5.018448e+00 9.266472e+00
      vertex -5.759644e+00 -5.018448e+00 1.033541e+01
    endloop
  endfacet
  facet normal 7.658019e-14 1.000000e+00 -1.564751e-13
    outer loop
      vertex -2.208252e-01 -5.018448e+00 1.033541e+01
      vertex -5.759644e+00 -5.018448e+00 1.033541e+01
      vertex -3.690308e+00 -5.018448e+00 1.060784e+01
    endloop
  endfacet
  facet normal 7.658019e-14 1.000000e+00 -1.564751e-13
    outer loop
      vertex -2.208252e-01 -5.018448e+00 1.033541e+01
      vertex -3.690308e+00 -5.018448e+00 1.060784e+01
      vertex -2.990356e+00 -5.018448e+00 1.070000e+01
    endloop
  endfacet
  facet normal -3.219391e-16 -1.000000e+00 1.056951e-13
    outer loop
      vertex 7.709595e+00 -3.518448e+00 0.000000e+00
      vertex 3.288208e+00 -3.518448e+00 1.682324e+00
      vertex 3.509644e+00 -3.518448e+00 0.000000e+00
    endloop
  endfacet
  facet normal -3.219391e-16 -1.000000e+00 1.056951e-13
    outer loop
      vertex 3.288208e+00 -3.518448e+00 1.682324e+00
      vertex 7.709595e+00 -3.518448e+00 0.000000e+00
      vertex 7.345093e+00 -3.518448e+00 2.769364e+00
    endloop
  endfacet
  facet normal -3.219391e-16 -1.000000e+00 1.056951e-13
    outer loop
      vertex 3.288208e+00 -3.518448e+00 1.682324e+00
      vertex 7.345093e+00 -3.518448e+00 2.769364e+00
      vertex 2.638794e+00 -3.518448e+00 3.250000e+00
    endloop
  endfacet
  facet normal -3.219391e-16 -1.000000e+00 1.056951e-13
    outer loop
      vertex 2.638794e+00 -3.518448e+00 3.250000e+00
      vertex 7.345093e+00 -3.518448e+00 2.769364e+00
      vertex 6.276245e+00 -3.518448e+00 5.350000e+00
    endloop
  endfacet
  facet normal -3.219391e-16 -1.000000e+00 1.056951e-13
    outer loop
      vertex 2.638794e+00 -3.518448e+00 3.250000e+00
      vertex 6.276245e+00 -3.518448e+00 5.350000e+00
      vertex 1.605835e+00 -3.518448e+00 4.596195e+00
    endloop
  endfacet
  facet normal -3.219391e-16 -1.000000e+00 1.056951e-13
    outer loop
      vertex 1.605835e+00 -3.518448e+00 4.596195e+00
      vertex 6.276245e+00 -3.518448e+00 5.350000e+00
      vertex 2.596436e-01 -3.518448e+00 5.629166e+00
    endloop
  endfacet
  facet normal -3.219391e-16 -1.000000e+00 1.056951e-13
    outer loop
      vertex 2.596436e-01 -3.518448e+00 5.629166e+00
      vertex 6.276245e+00 -3.518448e+00 5.350000e+00
      vertex 5.709595e+00 -3.518448e+00 6.088242e+00
    endloop
  endfacet
  facet normal -3.219391e-16 -1.000000e+00 1.056951e-13
    outer loop
      vertex 2.596436e-01 -3.518448e+00 5.629166e+00
      vertex 5.709595e+00 -3.518448e+00 6.088242e+00
      vertex -1.307983e+00 -3.518448e+00 6.278519e+00
    endloop
  endfacet
  facet normal -3.219391e-16 -1.000000e+00 1.056951e-13
    outer loop
      vertex -1.307983e+00 -3.518448e+00 6.278519e+00
      vertex 5.709595e+00 -3.518448e+00 6.088242e+00
      vertex 4.575806e+00 -3.518448e+00 7.566044e+00
    endloop
  endfacet
  facet normal -3.219391e-16 -1.000000e+00 1.056951e-13
    outer loop
      vertex -1.307983e+00 -3.518448e+00 6.278519e+00
      vertex 4.575806e+00 -3.518448e+00 7.566044e+00
      vertex -2.990356e+00 -3.518448e+00 6.500000e+00
    endloop
  endfacet
  facet normal -3.219391e-16 -1.000000e+00 1.056951e-13
    outer loop
      vertex -9.268921e+00 -3.518448e+00 1.682324e+00
      vertex -1.369031e+01 -3.518448e+00 0.000000e+00
      vertex -9.490356e+00 -3.518448e+00 0.000000e+00
    endloop
  endfacet
  facet normal -3.219391e-16 -1.000000e+00 1.056951e-13
    outer loop
      vertex -1.369031e+01 -3.518448e+00 0.000000e+00
      vertex -9.268921e+00 -3.518448e+00 1.682324e+00
      vertex -1.332581e+01 -3.518448e+00 2.769364e+00
    endloop
  endfacet
  facet normal -3.219391e-16 -1.000000e+00 1.056951e-13
    outer loop
      vertex -1.332581e+01 -3.518448e+00 2.769364e+00
      vertex -9.268921e+00 -3.518448e+00 1.682324e+00
      vertex -8.619507e+00 -3.518448e+00 3.250000e+00
    endloop
  endfacet
  facet normal -3.219391e-16 -1.000000e+00 1.056951e-13
    outer loop
      vertex -1.332581e+01 -3.518448e+00 2.769364e+00
      vertex -8.619507e+00 -3.518448e+00 3.250000e+00
      vertex -1.225671e+01 -3.518448e+00 5.350000e+00
    endloop
  endfacet
  facet normal -3.219391e-16 -1.000000e+00 1.056951e-13
    outer loop
      vertex -1.225671e+01 -3.518448e+00 5.350000e+00
      vertex -8.619507e+00 -3.518448e+00 3.250000e+00
      vertex -7.586548e+00 -3.518448e+00 4.596195e+00
    endloop
  endfacet
  facet normal -3.219391e-16 -1.000000e+00 1.056951e-13
    outer loop
      vertex -1.225671e+01 -3.518448e+00 5.350000e+00
      vertex -7.586548e+00 -3.518448e+00 4.596195e+00
      vertex -6.240356e+00 -3.518448e+00 5.629166e+00
    endloop
  endfacet
  facet normal -3.219391e-16 -1.000000e+00 1.056951e-13
    outer loop
      vertex -1.225671e+01 -3.518448e+00 5.350000e+00
      vertex -6.240356e+00 -3.518448e+00 5.629166e+00
      vertex -1.169031e+01 -3.518448e+00 6.088242e+00
    endloop
  endfacet
  facet normal -3.219391e-16 -1.000000e+00 1.056951e-13
    outer loop
      vertex -1.169031e+01 -3.518448e+00 6.088242e+00
      vertex -6.240356e+00 -3.518448e+00 5.629166e+00
      vertex -4.672729e+00 -3.518448e+00 6.278519e+00
    endloop
  endfacet
  facet normal -3.219391e-16 -1.000000e+00 1.056951e-13
    outer loop
      vertex -1.169031e+01 -3.518448e+00 6.088242e+00
      vertex -4.672729e+00 -3.518448e+00 6.278519e+00
      vertex -1.055627e+01 -3.518448e+00 7.566044e+00
    endloop
  endfacet
  facet normal -3.219391e-16 -1.000000e+00 1.056951e-13
    outer loop
      vertex -1.055627e+01 -3.518448e+00 7.566044e+00
      vertex -4.672729e+00 -3.518448e+00 6.278519e+00
      vertex -2.990356e+00 -3.518448e+00 6.500000e+00
    endloop
  endfacet
  facet normal -3.219391e-16 -1.000000e+00 1.056951e-13
    outer loop
      vertex -1.055627e+01 -3.518448e+00 7.566044e+00
      vertex -2.990356e+00 -3.518448e+00 6.500000e+00
      vertex 4.575806e+00 -3.518448e+00 7.566044e+00
    endloop
  endfacet
  facet normal -3.219391e-16 -1.000000e+00 1.056951e-13
    outer loop
      vertex -1.055627e+01 -3.518448e+00 7.566044e+00
      vertex 4.575806e+00 -3.518448e+00 7.566044e+00
      vertex 2.359741e+00 -3.518448e+00 9.266472e+00
    endloop
  endfacet
  facet normal -3.219391e-16 -1.000000e+00 1.056951e-13
    outer loop
      vertex -1.055627e+01 -3.518448e+00 7.566044e+00
      vertex 2.359741e+00 -3.518448e+00 9.266472e+00
      vertex -8.340210e+00 -3.518448e+00 9.266472e+00
    endloop
  endfacet
  facet normal -3.219391e-16 -1.000000e+00 1.056951e-13
    outer loop
      vertex -8.340210e+00 -3.518448e+00 9.266472e+00
      vertex 2.359741e+00 -3.518448e+00 9.266472e+00
      vertex -2.208252e-01 -3.518448e+00 1.033541e+01
    endloop
  endfacet
  facet normal -3.219391e-16 -1.000000e+00 1.056951e-13
    outer loop
      vertex -8.340210e+00 -3.518448e+00 9.266472e+00
      vertex -2.208252e-01 -3.518448e+00 1.033541e+01
      vertex -5.759644e+00 -3.518448e+00 1.033541e+01
    endloop
  endfacet
  facet normal -3.219391e-16 -1.000000e+00 1.056951e-13
    outer loop
      vertex -5.759644e+00 -3.518448e+00 1.033541e+01
      vertex -2.208252e-01 -3.518448e+00 1.033541e+01
      vertex -2.990356e+00 -3.518448e+00 1.070000e+01
    endloop
  endfacet
  facet normal 1.000000e+00 6.545755e-14 -5.195884e-14
    outer loop
      vertex -1.169031e+01 -6.018448e+00 0.000000e+00
      vertex -1.169031e+01 -1.361845e+01 8.700001e+00
      vertex -1.169031e+01 -1.361845e+01 0.000000e+00
    endloop
  endfacet
  facet normal 1.000000e+00 6.545755e-14 -5.195884e-14
    outer loop
      vertex -1.169031e+01 -1.361845e+01 8.700001e+00
      vertex -1.169031e+01 -6.018448e+00 0.000000e+00
      vertex -1.169031e+01 -6.018448e+00 8.700001e+00
    endloop
  endfacet
  facet normal 1.509943e-11 3.315316e-11 1.000000e+00
    outer loop
      vertex 7.709595e+00 -1.361845e+01 1.170000e+01
      vertex -1.769031e+01 -2.018448e+00 1.170000e+01
      vertex -1.769031e+01 -1.361845e+01 1.170000e+01
    endloop
  endfacet
  facet normal 1.509943e-11 3.315316e-11 1.000000e+00
    outer loop
      vertex -1.769031e+01 -2.018448e+00 1.170000e+01
      vertex 7.709595e+00 -1.361845e+01 1.170000e+01
      vertex 7.709595e+00 -2.018448e+00 1.170000e+01
    endloop
  endfacet
  facet normal 5.083589e-14 -3.077603e-14 -1.000000e+00
    outer loop
      vertex 3.098022e+00 -5.018448e+00 8.700001e+00
      vertex -3.690308e+00 -6.018448e+00 8.700001e+00
      vertex -3.690308e+00 -5.018448e+00 8.700001e+00
    endloop
  endfacet
  facet normal 5.083589e-14 -3.077603e-14 -1.000000e+00
    outer loop
      vertex -3.690308e+00 -6.018448e+00 8.700001e+00
      vertex -1.169031e+01 -1.361845e+01 8.700001e+00
      vertex -1.169031e+01 -6.018448e+00 8.700001e+00
    endloop
  endfacet
  facet normal 5.083589e-14 -3.077603e-14 -1.000000e+00
    outer loop
      vertex -1.169031e+01 -1.361845e+01 8.700001e+00
      vertex -3.690308e+00 -6.018448e+00 8.700001e+00
      vertex 5.709595e+00 -1.361845e+01 8.700001e+00
    endloop
  endfacet
  facet normal 5.083589e-14 -3.077603e-14 -1.000000e+00
    outer loop
      vertex 5.709595e+00 -1.361845e+01 8.700001e+00
      vertex -3.690308e+00 -6.018448e+00 8.700001e+00
      vertex 3.098022e+00 -5.018448e+00 8.700001e+00
    endloop
  endfacet
  facet normal 5.083589e-14 -3.077603e-14 -1.000000e+00
    outer loop
      vertex 5.709595e+00 -1.361845e+01 8.700001e+00
      vertex 3.098022e+00 -5.018448e+00 8.700001e+00
      vertex 5.709595e+00 -5.018448e+00 8.700001e+00
    endloop
  endfacet
endsolid Default
